{
.appVersion = "947";
DisplayStrings = (
"/dotaccent/Ldot L",
/circumflexcomb/circumflex,
"/circumflexgrave/circumflex \U00EA",
"/breve-cy/Iishort-cy n",
"/brevecomb-cy/breve-cy",
"/Iishort-cy",
"/Ii-cy/breve-cy/peseta",
"/enhook-cy",
"/breve-cy",
"/zhedescender-cy",
"/tedescender-cy",
/ogonek,
/ogonekcomb/ogonek,
/Aogonek/Eogonek/Iogonek/Oogonek/Uogonek/aogonek/eogonek/iogonek/oogonek/uogonek,
"/Obarred-cy",
/Ldot,
/naira,
/peseta,
"/ring \U00C5/Aringacute"
);
classes = (
{
automatic = 1;

glyphs = (
{
glyphname = A;
lastChange = "2016-12-09 13:27:44 +0000";
layers = (
{
anchors = (
{
name = bottom;
position = "{270, 0}";
},
{
name = ogonek;
position = "{543, 0}";
},
{
name = top;
position = "{361, 740}";
}
);
layerId = "E21536AE-9819-4FE7-8A20-8865FE3C0515";
paths = (
{
closed = 1;
nodes = (
"335 690 LINE SMOOTH",
"329 690 OFFCURVE",
"325 688 OFFCURVE",
"322 682 CURVE SMOOTH",
"-22 0 LINE",
"6 0 LINE",
"313 611 LINE SMOOTH",
"323 630 OFFCURVE",
"331 648 OFFCURVE",
"341 667 CURVE",
"370 667 LINE",
"375 648 OFFCURVE",
"378 632 OFFCURVE",
"382 613 CURVE SMOOTH",
"517 0 LINE",
"543 0 LINE",
"391 680 LINE SMOOTH",
"390 686 OFFCURVE",
"384 690 OFFCURVE",
"378 690 CURVE SMOOTH"
);
},
{
closed = 1;
nodes = (
"124 274 LINE",
"121 252 LINE",
"471 252 LINE",
"474 274 LINE"
);
}
);
width = 599;
},
{
anchors = (
{
name = bottom;
position = "{307, 0}";
},
{
name = ogonek;
position = "{648, 0}";
},
{
name = top;
position = "{398, 735}";
}
);
layerId = "924B7471-43FB-4CAD-AF7E-45215B64D997";
paths = (
{
closed = 1;
nodes = (
"293 690 LINE SMOOTH",
"258 690 OFFCURVE",
"230 672 OFFCURVE",
"217 638 CURVE SMOOTH",
"-49 0 LINE",
"176 0 LINE",
"345 455 LINE SMOOTH",
"355 482 OFFCURVE",
"361 508 OFFCURVE",
"365 530 CURVE",
"393 530 LINE",
"392 505 OFFCURVE",
"391 479 OFFCURVE",
"394 453 CURVE SMOOTH",
"430 0 LINE",
"647 0 LINE",
"558 630 LINE SMOOTH",
"554 664 OFFCURVE",
"524 690 OFFCURVE",
"489 690 CURVE SMOOTH"
);
},
{
closed = 1;
nodes = (
"160 304 LINE",
"141 146 LINE",
"504 146 LINE",
"522 304 LINE"
);
}
);
width = 678;
},
{
anchors = (
{
name = bottom;
position = "{285, 0}";
},
{
name = ogonek;
position = "{582, 0}";
},
{
name = top;
position = "{379, 732}";
}
);
layerId = "77EC9CE6-E33A-4866-9665-0506F15B57B2";
paths = (
{
closed = 1;
nodes = (
"314 690 LINE SMOOTH",
"295 690 OFFCURVE",
"279 681 OFFCURVE",
"272 662 CURVE SMOOTH",
"-33 0 LINE",
"84 0 LINE",
"322 547 LINE SMOOTH",
"330 565 OFFCURVE",
"340 589 OFFCURVE",
"348 607 CURVE",
"378 607 LINE",
"380 587 OFFCURVE",
"382 566 OFFCURVE",
"385 546 CURVE SMOOTH",
"471 0 LINE",
"582 0 LINE",
"461 658 LINE SMOOTH",
"460 676 OFFCURVE",
"444 690 OFFCURVE",
"425 690 CURVE SMOOTH"
);
},
{
closed = 1;
nodes = (
"141 299 LINE",
"128 201 LINE",
"478 201 LINE",
"491 299 LINE"
);
}
);
width = 627;
}
);
leftKerningGroup = A;
rightKerningGroup = A;
unicode = 0041;
},
{
glyphname = Aringacute;
lastChange = "2016-12-09 18:10:04 +0000";
layers = (
{
anchors = (
{
name = _top;
position = "{361, 740}";
}
);
background = {
paths = (
{
closed = 1;
nodes = (
"322 630 LINE SMOOTH",
"316 630 OFFCURVE",
"312 628 OFFCURVE",
"309 622 CURVE SMOOTH",
"-22 0 LINE",
"6 0 LINE",
"300 551 LINE SMOOTH",
"310 570 OFFCURVE",
"318 588 OFFCURVE",
"328 607 CURVE",
"357 607 LINE",
"362 588 OFFCURVE",
"364 572 OFFCURVE",
"369 553 CURVE SMOOTH",
"517 0 LINE",
"543 0 LINE",
"378 620 LINE SMOOTH",
"376 626 OFFCURVE",
"371 630 OFFCURVE",
"365 630 CURVE SMOOTH"
);
},
{
closed = 1;
nodes = (
"102 224 LINE",
"99 202 LINE",
"479 202 LINE",
"482 224 LINE"
);
},
{
closed = 1;
nodes = (
"315 859 OFFCURVE",
"268 812 OFFCURVE",
"268 754 CURVE SMOOTH",
"268 705 OFFCURVE",
"301 669 OFFCURVE",
"356 669 CURVE SMOOTH",
"416 669 OFFCURVE",
"462 717 OFFCURVE",
"462 774 CURVE SMOOTH",
"462 823 OFFCURVE",
"429 859 OFFCURVE",
"374 859 CURVE SMOOTH"
);
},
{
closed = 1;
nodes = (
"416 840 OFFCURVE",
"441 811 OFFCURVE",
"441 776 CURVE SMOOTH",
"441 731 OFFCURVE",
"409 688 OFFCURVE",
"356 688 CURVE SMOOTH",
"312 688 OFFCURVE",
"289 719 OFFCURVE",
"289 756 CURVE SMOOTH",
"289 799 OFFCURVE",
"323 840 OFFCURVE",
"374 840 CURVE SMOOTH"
);
},
{
closed = 1;
nodes = (
"317 896 LINE",
"328 881 LINE",
"469 960 LINE",
"456 981 LINE"
);
}
);
};
components = (
{
name = A;
},
{
alignment = -1;
name = ring;
transform = "{1, 0, 0, 1, 166, 129}";
}
);
layerId = "E21536AE-9819-4FE7-8A20-8865FE3C0515";
paths = (
{
closed = 1;
nodes = (
"291 888 LINE",
"301 871 LINE",
"504 963 LINE",
"492 985 LINE"
);
}
);
width = 599;
},
{
anchors = (
{
name = _top;
position = "{379, 732}";
}
);
background = {
paths = (
{
closed = 1;
nodes = (
"301 630 LINE SMOOTH",
"282 630 OFFCURVE",
"268 620 OFFCURVE",
"259 602 CURVE SMOOTH",
"-33 0 LINE",
"84 0 LINE",
"309 487 LINE SMOOTH",
"317 505 OFFCURVE",
"327 529 OFFCURVE",
"335 547 CURVE",
"365 547 LINE",
"367 527 OFFCURVE",
"368 506 OFFCURVE",
"372 486 CURVE SMOOTH",
"471 0 LINE",
"582 0 LINE",
"448 598 LINE SMOOTH",
"444 616 OFFCURVE",
"431 630 OFFCURVE",
"412 630 CURVE SMOOTH"
);
},
{
closed = 1;
nodes = (
"141 249 LINE",
"128 151 LINE",
"478 151 LINE",
"491 249 LINE"
);
},
{
closed = 1;
nodes = (
"307 874 OFFCURVE",
"259 824 OFFCURVE",
"259 757 CURVE SMOOTH",
"259 697 OFFCURVE",
"303 657 OFFCURVE",
"364 657 CURVE SMOOTH",
"433 657 OFFCURVE",
"481 707 OFFCURVE",
"481 774 CURVE SMOOTH",
"481 834 OFFCURVE",
"437 874 OFFCURVE",
"375 874 CURVE SMOOTH"
);
},
{
closed = 1;
nodes = (
"406 821 OFFCURVE",
"423 800 OFFCURVE",
"423 769 CURVE SMOOTH",
"423 735 OFFCURVE",
"399 710 OFFCURVE",
"367 710 CURVE SMOOTH",
"334 710 OFFCURVE",
"317 731 OFFCURVE",
"317 762 CURVE SMOOTH",
"317 796 OFFCURVE",
"337 821 OFFCURVE",
"374 821 CURVE SMOOTH"
);
},
{
closed = 1;
nodes = (
"299 937 LINE",
"325 891 LINE",
"488 959 LINE",
"445 1037 LINE"
);
}
);
};
components = (
{
name = A;
},
{
alignment = -1;
name = ring;
transform = "{1, 0, 0, 1, 166, 123}";
}
);
layerId = "77EC9CE6-E33A-4866-9665-0506F15B57B2";
paths = (
{
closed = 1;
nodes = (
"267 931 LINE",
"289 878 LINE",
"525 951 LINE",
"490 1041 LINE"
);
}
);
width = 627;
},
{
anchors = (
{
name = _top;
position = "{398, 735}";
}
);
background = {
paths = (
{
closed = 1;
nodes = (
"281 630 LINE SMOOTH",
"246 630 OFFCURVE",
"220 612 OFFCURVE",
"205 578 CURVE SMOOTH",
"-49 0 LINE",
"176 0 LINE",
"333 395 LINE SMOOTH",
"344 422 OFFCURVE",
"349 448 OFFCURVE",
"353 470 CURVE",
"381 470 LINE",
"380 445 OFFCURVE",
"379 419 OFFCURVE",
"382 393 CURVE SMOOTH",
"430 0 LINE",
"647 0 LINE",
"546 570 LINE SMOOTH",
"540 604 OFFCURVE",
"512 630 OFFCURVE",
"477 630 CURVE SMOOTH"
);
},
{
closed = 1;
nodes = (
"160 254 LINE",
"141 96 LINE",
"504 96 LINE",
"522 254 LINE"
);
},
{
closed = 1;
nodes = (
"321 902 OFFCURVE",
"264 848 OFFCURVE",
"264 771 CURVE SMOOTH",
"264 705 OFFCURVE",
"320 660 OFFCURVE",
"388 660 CURVE SMOOTH",
"466 660 OFFCURVE",
"522 714 OFFCURVE",
"522 791 CURVE SMOOTH",
"522 857 OFFCURVE",
"467 902 OFFCURVE",
"398 902 CURVE SMOOTH"
);
},
{
closed = 1;
nodes = (
"420 827 OFFCURVE",
"438 810 OFFCURVE",
"438 784 CURVE SMOOTH",
"438 754 OFFCURVE",
"420 735 OFFCURVE",
"391 735 CURVE SMOOTH",
"367 735 OFFCURVE",
"348 753 OFFCURVE",
"348 779 CURVE SMOOTH",
"348 809 OFFCURVE",
"367 827 OFFCURVE",
"394 827 CURVE SMOOTH"
);
},
{
closed = 1;
nodes = (
"287 994 LINE",
"332 917 LINE",
"530 990 LINE",
"467 1122 LINE"
);
}
);
};
components = (
{
name = A;
},
{
alignment = -1;
name = ring;
transform = "{1, 0, 0, 1, 181, 106}";
}
);
layerId = "924B7471-43FB-4CAD-AF7E-45215B64D997";
paths = (
{
closed = 1;
nodes = (
"236 973 LINE",
"276 883 LINE",
"549 956 LINE",
"496 1107 LINE"
);
}
);
width = 678;
},
{
associatedMasterId = "E21536AE-9819-4FE7-8A20-8865FE3C0515";
background = {
paths = (
{
closed = 1;
nodes = (
"322 630 LINE SMOOTH",
"316 630 OFFCURVE",
"312 628 OFFCURVE",
"309 622 CURVE SMOOTH",
"-22 0 LINE",
"6 0 LINE",
"300 551 LINE SMOOTH",
"310 570 OFFCURVE",
"318 588 OFFCURVE",
"328 607 CURVE",
"357 607 LINE",
"362 588 OFFCURVE",
"364 572 OFFCURVE",
"369 553 CURVE SMOOTH",
"517 0 LINE",
"543 0 LINE",
"378 620 LINE SMOOTH",
"376 626 OFFCURVE",
"371 630 OFFCURVE",
"365 630 CURVE SMOOTH"
);
},
{
closed = 1;
nodes = (
"102 224 LINE",
"99 202 LINE",
"479 202 LINE",
"482 224 LINE"
);
},
{
closed = 1;
nodes = (
"315 859 OFFCURVE",
"268 812 OFFCURVE",
"268 754 CURVE SMOOTH",
"268 705 OFFCURVE",
"301 669 OFFCURVE",
"356 669 CURVE SMOOTH",
"416 669 OFFCURVE",
"462 717 OFFCURVE",
"462 774 CURVE SMOOTH",
"462 823 OFFCURVE",
"429 859 OFFCURVE",
"374 859 CURVE SMOOTH"
);
},
{
closed = 1;
nodes = (
"416 840 OFFCURVE",
"441 811 OFFCURVE",
"441 776 CURVE SMOOTH",
"441 731 OFFCURVE",
"409 688 OFFCURVE",
"356 688 CURVE SMOOTH",
"312 688 OFFCURVE",
"289 719 OFFCURVE",
"289 756 CURVE SMOOTH",
"289 799 OFFCURVE",
"323 840 OFFCURVE",
"374 840 CURVE SMOOTH"
);
},
{
closed = 1;
nodes = (
"317 896 LINE",
"328 881 LINE",
"469 960 LINE",
"456 981 LINE"
);
}
);
};
layerId = "1E819A32-4C46-4F08-8FBB-F2BC7C3ABB58";
name = "Dec 9 16, 18:07";
paths = (
{
closed = 1;
nodes = (
"322 630 LINE SMOOTH",
"316 630 OFFCURVE",
"312 628 OFFCURVE",
"309 622 CURVE SMOOTH",
"-22 0 LINE",
"6 0 LINE",
"300 551 LINE SMOOTH",
"310 570 OFFCURVE",
"318 588 OFFCURVE",
"328 607 CURVE",
"357 607 LINE",
"362 588 OFFCURVE",
"364 572 OFFCURVE",
"369 553 CURVE SMOOTH",
"517 0 LINE",
"543 0 LINE",
"378 620 LINE SMOOTH",
"376 626 OFFCURVE",
"371 630 OFFCURVE",
"365 630 CURVE SMOOTH"
);
},
{
closed = 1;
nodes = (
"102 224 LINE",
"99 202 LINE",
"479 202 LINE",
"482 224 LINE"
);
},
{
closed = 1;
nodes = (
"315 859 OFFCURVE",
"268 812 OFFCURVE",
"268 754 CURVE SMOOTH",
"268 705 OFFCURVE",
"301 669 OFFCURVE",
"356 669 CURVE SMOOTH",
"416 669 OFFCURVE",
"462 717 OFFCURVE",
"462 774 CURVE SMOOTH",
"462 823 OFFCURVE",
"429 859 OFFCURVE",
"374 859 CURVE SMOOTH"
);
},
{
closed = 1;
nodes = (
"416 840 OFFCURVE",
"441 811 OFFCURVE",
"441 776 CURVE SMOOTH",
"441 731 OFFCURVE",
"409 688 OFFCURVE",
"356 688 CURVE SMOOTH",
"312 688 OFFCURVE",
"289 719 OFFCURVE",
"289 756 CURVE SMOOTH",
"289 799 OFFCURVE",
"323 840 OFFCURVE",
"374 840 CURVE SMOOTH"
);
},
{
closed = 1;
nodes = (
"317 896 LINE",
"328 881 LINE",
"469 960 LINE",
"456 981 LINE"
);
}
);
width = 599;
},
{
associatedMasterId = "77EC9CE6-E33A-4866-9665-0506F15B57B2";
background = {
paths = (
{
closed = 1;
nodes = (
"314 690 LINE SMOOTH",
"295 690 OFFCURVE",
"279 681 OFFCURVE",
"272 662 CURVE SMOOTH",
"-33 0 LINE",
"84 0 LINE",
"322 547 LINE SMOOTH",
"330 565 OFFCURVE",
"340 589 OFFCURVE",
"348 607 CURVE",
"378 607 LINE",
"380 587 OFFCURVE",
"382 566 OFFCURVE",
"385 546 CURVE SMOOTH",
"471 0 LINE",
"582 0 LINE",
"461 658 LINE SMOOTH",
"460 676 OFFCURVE",
"444 690 OFFCURVE",
"425 690 CURVE SMOOTH"
);
},
{
closed = 1;
nodes = (
"141 299 LINE",
"128 201 LINE",
"478 201 LINE",
"491 299 LINE"
);
}
);
};
layerId = "C504E0E8-A990-4F3E-B2C9-A52E3EFE188C";
name = "Dec 9 16, 18:07";
paths = (
{
closed = 1;
nodes = (
"301 630 LINE SMOOTH",
"282 630 OFFCURVE",
"268 620 OFFCURVE",
"259 602 CURVE SMOOTH",
"-33 0 LINE",
"84 0 LINE",
"309 487 LINE SMOOTH",
"317 505 OFFCURVE",
"327 529 OFFCURVE",
"335 547 CURVE",
"365 547 LINE",
"367 527 OFFCURVE",
"368 506 OFFCURVE",
"372 486 CURVE SMOOTH",
"471 0 LINE",
"582 0 LINE",
"448 598 LINE SMOOTH",
"444 616 OFFCURVE",
"431 630 OFFCURVE",
"412 630 CURVE SMOOTH"
);
},
{
closed = 1;
nodes = (
"141 249 LINE",
"128 151 LINE",
"478 151 LINE",
"491 249 LINE"
);
},
{
closed = 1;
nodes = (
"307 874 OFFCURVE",
"259 824 OFFCURVE",
"259 757 CURVE SMOOTH",
"259 697 OFFCURVE",
"303 657 OFFCURVE",
"364 657 CURVE SMOOTH",
"433 657 OFFCURVE",
"481 707 OFFCURVE",
"481 774 CURVE SMOOTH",
"481 834 OFFCURVE",
"437 874 OFFCURVE",
"375 874 CURVE SMOOTH"
);
},
{
closed = 1;
nodes = (
"406 821 OFFCURVE",
"423 800 OFFCURVE",
"423 769 CURVE SMOOTH",
"423 735 OFFCURVE",
"399 710 OFFCURVE",
"367 710 CURVE SMOOTH",
"334 710 OFFCURVE",
"317 731 OFFCURVE",
"317 762 CURVE SMOOTH",
"317 796 OFFCURVE",
"337 821 OFFCURVE",
"374 821 CURVE SMOOTH"
);
},
{
closed = 1;
nodes = (
"299 937 LINE",
"325 891 LINE",
"488 959 LINE",
"445 1037 LINE"
);
}
);
width = 627;
},
{
associatedMasterId = "924B7471-43FB-4CAD-AF7E-45215B64D997";
background = {
paths = (
{
closed = 1;
nodes = (
"293 690 LINE SMOOTH",
"258 690 OFFCURVE",
"231 672 OFFCURVE",
"217 638 CURVE SMOOTH",
"-49 0 LINE",
"176 0 LINE",
"345 455 LINE SMOOTH",
"355 482 OFFCURVE",
"361 508 OFFCURVE",
"365 530 CURVE",
"393 530 LINE",
"392 505 OFFCURVE",
"392 479 OFFCURVE",
"394 453 CURVE SMOOTH",
"430 0 LINE",
"647 0 LINE",
"558 630 LINE SMOOTH",
"553 664 OFFCURVE",
"524 690 OFFCURVE",
"489 690 CURVE SMOOTH"
);
},
{
closed = 1;
nodes = (
"160 304 LINE",
"141 146 LINE",
"504 146 LINE",
"522 304 LINE"
);
}
);
};
layerId = "4E4DFB24-2F0A-4D01-A76D-CDCFF376B864";
name = "Dec 9 16, 18:07";
paths = (
{
closed = 1;
nodes = (
"281 630 LINE SMOOTH",
"246 630 OFFCURVE",
"220 612 OFFCURVE",
"205 578 CURVE SMOOTH",
"-49 0 LINE",
"176 0 LINE",
"333 395 LINE SMOOTH",
"344 422 OFFCURVE",
"349 448 OFFCURVE",
"353 470 CURVE",
"381 470 LINE",
"380 445 OFFCURVE",
"379 419 OFFCURVE",
"382 393 CURVE SMOOTH",
"430 0 LINE",
"647 0 LINE",
"546 570 LINE SMOOTH",
"540 604 OFFCURVE",
"512 630 OFFCURVE",
"477 630 CURVE SMOOTH"
);
},
{
closed = 1;
nodes = (
"160 254 LINE",
"141 96 LINE",
"504 96 LINE",
"522 254 LINE"
);
},
{
closed = 1;
nodes = (
"321 902 OFFCURVE",
"264 848 OFFCURVE",
"264 771 CURVE SMOOTH",
"264 705 OFFCURVE",
"320 660 OFFCURVE",
"388 660 CURVE SMOOTH",
"466 660 OFFCURVE",
"522 714 OFFCURVE",
"522 791 CURVE SMOOTH",
"522 857 OFFCURVE",
"467 902 OFFCURVE",
"398 902 CURVE SMOOTH"
);
},
{
closed = 1;
nodes = (
"420 827 OFFCURVE",
"438 810 OFFCURVE",
"438 784 CURVE SMOOTH",
"438 754 OFFCURVE",
"420 735 OFFCURVE",
"391 735 CURVE SMOOTH",
"367 735 OFFCURVE",
"348 753 OFFCURVE",
"348 779 CURVE SMOOTH",
"348 809 OFFCURVE",
"367 827 OFFCURVE",
"394 827 CURVE SMOOTH"
);
},
{
closed = 1;
nodes = (
"287 994 LINE",
"332 917 LINE",
"530 990 LINE",
"467 1122 LINE"
);
}
);
width = 678;
}
);
leftKerningGroup = A;
rightKerningGroup = A;
unicode = 01FA;
},
{
glyphname = AE;
lastChange = "2016-12-09 13:27:44 +0000";
layers = (
{
anchors = (
{
name = top;
position = "{625, 740}";
}
);
layerId = "E21536AE-9819-4FE7-8A20-8865FE3C0515";
paths = (
{
closed = 1;
nodes = (
"565 690 OFFCURVE",
"514 680 OFFCURVE",
"454 606 CURVE SMOOTH",
"-30 0 LINE",
"0 0 LINE",
"472 591 LINE SMOOTH",
"504 631 OFFCURVE",
"536 655 OFFCURVE",
"560 664 CURVE",
"564 664 LINE",
"540 654 OFFCURVE",
"517 619 OFFCURVE",
"513 588 CURVE SMOOTH",
"445 103 LINE SMOOTH",
"436 44 OFFCURVE",
"474 0 OFFCURVE",
"534 0 CURVE SMOOTH",
"625 0 OFFCURVE",
"715 0 OFFCURVE",
"808 4 CURVE",
"809 22 LINE",
"539 22 LINE SMOOTH",
"491 22 OFFCURVE",
"463 55 OFFCURVE",
"470 103 CURVE SMOOTH",
"537 585 LINE SMOOTH",
"545 635 OFFCURVE",
"582 668 OFFCURVE",
"632 668 CURVE SMOOTH",
"900 668 LINE",
"902 686 LINE",
"829 689 OFFCURVE",
"754 690 OFFCURVE",
"629 690 CURVE SMOOTH"
);
},
{
closed = 1;
nodes = (
"220 294 LINE",
"203 272 LINE",
"480 272 LINE",
"484 294 LINE"
);
},
{
closed = 1;
nodes = (
"498 359 LINE",
"814 360 LINE",
"817 380 LINE",
"501 381 LINE"
);
}
);
width = 903;
},
{
anchors = (
{
name = top;
position = "{598, 735}";
}
);
background = {
paths = (
{
closed = 1;
nodes = (
"523 694 OFFCURVE",
"463 634 OFFCURVE",
"450 541 CURVE SMOOTH",
"400 184 LINE SMOOTH",
"386 75 OFFCURVE",
"439 -4 OFFCURVE",
"548 -4 CURVE SMOOTH",
"653 -4 OFFCURVE",
"784 -5 OFFCURVE",
"877 8 CURVE",
"882 162 LINE",
"655 162 LINE SMOOTH",
"628 162 OFFCURVE",
"617 175 OFFCURVE",
"621 201 CURVE SMOOTH",
"660 488 LINE SMOOTH",
"664 518 OFFCURVE",
"676 528 OFFCURVE",
"708 528 CURVE SMOOTH",
"934 528 LINE",
"959 680 LINE",
"870 693 OFFCURVE",
"739 694 OFFCURVE",
"622 694 CURVE SMOOTH"
);
},
{
closed = 1;
nodes = (
"430 280 LINE",
"868 290 LINE",
"885 416 LINE",
"451 426 LINE"
);
}
);
};
layerId = "924B7471-43FB-4CAD-AF7E-45215B64D997";
paths = (
{
closed = 1;
nodes = (
"391 692 OFFCURVE",
"322 650 OFFCURVE",
"257 538 CURVE SMOOTH",
"-58 0 LINE",
"167 0 LINE",
"454 512 LINE SMOOTH",
"461 523 OFFCURVE",
"473 549 OFFCURVE",
"481 564 CURVE",
"492 564 LINE",
"483 546 OFFCURVE",
"474 521 OFFCURVE",
"471 502 CURVE SMOOTH",
"423 157 LINE SMOOTH",
"410 64 OFFCURVE",
"462 -4 OFFCURVE",
"559 -4 CURVE SMOOTH",
"666 -4 OFFCURVE",
"789 -5 OFFCURVE",
"894 8 CURVE",
"897 159 LINE",
"665 159 LINE SMOOTH",
"634 159 OFFCURVE",
"626 173 OFFCURVE",
"629 199 CURVE SMOOTH",
"672 491 LINE SMOOTH",
"676 521 OFFCURVE",
"688 531 OFFCURVE",
"721 531 CURVE SMOOTH",
"951 531 LINE",
"977 681 LINE",
"857 692 OFFCURVE",
"756 692 OFFCURVE",
"623 692 CURVE SMOOTH"
);
},
{
closed = 1;
nodes = (
"136 314 LINE",
"116 156 LINE",
"473 156 LINE",
"493 314 LINE"
);
},
{
closed = 1;
nodes = (
"448 286 LINE",
"884 286 LINE",
"900 420 LINE",
"468 420 LINE"
);
}
);
width = 956;
},
{
anchors = (
{
name = top;
position = "{579, 732}";
}
);
background = {
paths = (
{
closed = 1;
nodes = (
"554 692 OFFCURVE",
"501 646 OFFCURVE",
"490 567 CURVE SMOOTH",
"432 149 LINE SMOOTH",
"419 55 OFFCURVE",
"466 -2 OFFCURVE",
"582 -2 CURVE SMOOTH",
"671 -2 OFFCURVE",
"772 -2 OFFCURVE",
"856 6 CURVE",
"859 93 LINE",
"595 93 LINE SMOOTH",
"551 93 OFFCURVE",
"539 107 OFFCURVE",
"545 152 CURVE SMOOTH",
"597 534 LINE SMOOTH",
"603 582 OFFCURVE",
"619 597 OFFCURVE",
"660 597 CURVE SMOOTH",
"930 597 LINE",
"945 684 LINE",
"856 692 OFFCURVE",
"749 692 OFFCURVE",
"647 692 CURVE SMOOTH"
);
},
{
closed = 1;
nodes = (
"473 317 LINE",
"854 322 LINE",
"865 403 LINE",
"486 408 LINE"
);
}
);
};
layerId = "77EC9CE6-E33A-4866-9665-0506F15B57B2";
paths = (
{
closed = 1;
nodes = (
"476 691 OFFCURVE",
"417 666 OFFCURVE",
"355 575 CURVE SMOOTH",
"-47 0 LINE",
"71 0 LINE",
"455 556 LINE SMOOTH",
"476 587 OFFCURVE",
"497 607 OFFCURVE",
"515 618 CURVE",
"520 618 LINE",
"502 605 OFFCURVE",
"487 576 OFFCURVE",
"484 549 CURVE SMOOTH",
"428 149 LINE SMOOTH",
"413 52 OFFCURVE",
"469 -2 OFFCURVE",
"563 -2 CURVE SMOOTH",
"652 -2 OFFCURVE",
"743 -1 OFFCURVE",
"831 6 CURVE",
"836 93 LINE",
"583 93 LINE SMOOTH",
"539 93 OFFCURVE",
"527 108 OFFCURVE",
"533 153 CURVE SMOOTH",
"585 533 LINE SMOOTH",
"592 581 OFFCURVE",
"617 597 OFFCURVE",
"655 597 CURVE SMOOTH",
"906 597 LINE",
"921 684 LINE",
"828 690 OFFCURVE",
"742 691 OFFCURVE",
"615 691 CURVE SMOOTH"
);
},
{
closed = 1;
nodes = (
"175 303 LINE",
"155 206 LINE",
"464 206 LINE",
"477 301 LINE"
);
},
{
closed = 1;
nodes = (
"463 318 LINE",
"830 318 LINE",
"841 405 LINE",
"476 405 LINE"
);
}
);
width = 915;
}
);
leftKerningGroup = AE;
rightKerningGroup = AE;
unicode = 00C6;
},
{
glyphname = B;
lastChange = "2016-12-09 13:27:44 +0000";
layers = (
{
layerId = "E21536AE-9819-4FE7-8A20-8865FE3C0515";
paths = (
{
closed = 1;
nodes = (
"264 698 OFFCURVE",
"222 697 OFFCURVE",
"159 690 CURVE",
"172 675 LINE",
"196 675 OFFCURVE",
"264 675 OFFCURVE",
"353 675 CURVE SMOOTH",
"497 675 OFFCURVE",
"543 647 OFFCURVE",
"525 520 CURVE SMOOTH",
"508 399 OFFCURVE",
"456 369 OFFCURVE",
"327 368 CURVE SMOOTH",
"127 368 LINE",
"124 347 LINE",
"326 347 LINE SMOOTH",
"470 345 OFFCURVE",
"516 310 OFFCURVE",
"497 174 CURVE SMOOTH",
"479 45 OFFCURVE",
"424 15 OFFCURVE",
"286 15 CURVE SMOOTH",
"185 15 OFFCURVE",
"106 16 OFFCURVE",
"78 18 CURVE",
"62 0 LINE",
"132 -7 OFFCURVE",
"182 -8 OFFCURVE",
"287 -8 CURVE SMOOTH",
"444 -8 OFFCURVE",
"502 29 OFFCURVE",
"522 170 CURVE SMOOTH",
"538 281 OFFCURVE",
"512 347 OFFCURVE",
"412 356 CURVE",
"412 360 LINE",
"496 368 OFFCURVE",
"537 418 OFFCURVE",
"551 516 CURVE SMOOTH",
"571 658 OFFCURVE",
"518 698 OFFCURVE",
"353 698 CURVE SMOOTH"
);
},
{
closed = 1;
nodes = (
"159 690 LINE",
"62 0 LINE",
"87 0 LINE",
"184 690 LINE"
);
}
);
width = 610;
},
{
layerId = "924B7471-43FB-4CAD-AF7E-45215B64D997";
paths = (
{
closed = 1;
nodes = (
"270 698 OFFCURVE",
"194 697 OFFCURVE",
"108 690 CURVE",
"110 545 LINE",
"185 549 OFFCURVE",
"254 548 OFFCURVE",
"384 548 CURVE SMOOTH",
"419 548 OFFCURVE",
"428 535 OFFCURVE",
"422 495 CURVE SMOOTH",
"413 435 OFFCURVE",
"400 423 OFFCURVE",
"349 423 CURVE SMOOTH",
"84 423 LINE",
"67 292 LINE",
"345 292 LINE SMOOTH",
"395 292 OFFCURVE",
"405 280 OFFCURVE",
"397 224 CURVE SMOOTH",
"387 156 OFFCURVE",
"370 142 OFFCURVE",
"306 142 CURVE SMOOTH",
"180 142 OFFCURVE",
"74 143 OFFCURVE",
"40 145 CURVE",
"11 0 LINE",
"109 -7 OFFCURVE",
"192 -8 OFFCURVE",
"348 -8 CURVE SMOOTH",
"520 -8 OFFCURVE",
"595 26 OFFCURVE",
"614 164 CURVE SMOOTH",
"630 278 OFFCURVE",
"595 346 OFFCURVE",
"486 355 CURVE",
"487 361 LINE",
"583 369 OFFCURVE",
"616 415 OFFCURVE",
"629 510 CURVE SMOOTH",
"648 656 OFFCURVE",
"574 698 OFFCURVE",
"391 698 CURVE SMOOTH"
);
},
{
closed = 1;
nodes = (
"108 690 LINE",
"11 0 LINE",
"223 0 LINE",
"320 690 LINE"
);
}
);
width = 657;
},
{
layerId = "77EC9CE6-E33A-4866-9665-0506F15B57B2";
paths = (
{
closed = 1;
nodes = (
"265 698 OFFCURVE",
"208 697 OFFCURVE",
"136 690 CURVE",
"142 601 LINE",
"188 605 OFFCURVE",
"256 604 OFFCURVE",
"361 604 CURVE SMOOTH",
"456 604 OFFCURVE",
"483 589 OFFCURVE",
"472 508 CURVE SMOOTH",
"460 423 OFFCURVE",
"424 400 OFFCURVE",
"335 400 CURVE SMOOTH",
"109 400 LINE",
"97 315 LINE",
"330 315 LINE SMOOTH",
"431 314 OFFCURVE",
"457 290 OFFCURVE",
"444 196 CURVE SMOOTH",
"432 108 OFFCURVE",
"398 86 OFFCURVE",
"294 86 CURVE SMOOTH",
"181 86 OFFCURVE",
"93 87 OFFCURVE",
"63 89 CURVE",
"39 0 LINE",
"121 -7 OFFCURVE",
"185 -8 OFFCURVE",
"311 -8 CURVE SMOOTH",
"467 -8 OFFCURVE",
"530 25 OFFCURVE",
"552 168 CURVE SMOOTH",
"568 274 OFFCURVE",
"542 346 OFFCURVE",
"440 354 CURVE",
"441 359 LINE",
"526 367 OFFCURVE",
"565 416 OFFCURVE",
"579 514 CURVE SMOOTH",
"599 657 OFFCURVE",
"531 698 OFFCURVE",
"367 698 CURVE SMOOTH"
);
},
{
closed = 1;
nodes = (
"136 690 LINE",
"39 0 LINE",
"148 0 LINE",
"245 690 LINE"
);
}
);
width = 621;
}
);
leftKerningGroup = B;
rightKerningGroup = B;
unicode = 0042;
},
{
glyphname = C;
lastChange = "2016-12-09 13:27:44 +0000";
layers = (
{
anchors = (
{
name = bottom;
position = "{288, -12}";
},
{
name = top;
position = "{384, 740}";
}
);
guideLines = (
{
angle = -70;
position = "{342, 278}";
},
{
angle = 70;
position = "{336, 401}";
},
{
angle = 90;
position = "{430, 354}";
}
);
layerId = "E21536AE-9819-4FE7-8A20-8865FE3C0515";
paths = (
{
closed = 1;
nodes = (
"198 702 OFFCURVE",
"120 609 OFFCURVE",
"83 347 CURVE SMOOTH",
"46 83 OFFCURVE",
"100 -12 OFFCURVE",
"290 -12 CURVE SMOOTH",
"373 -12 OFFCURVE",
"424 -6 OFFCURVE",
"479 6 CURVE",
"474 24 LINE",
"420 15 OFFCURVE",
"370 11 OFFCURVE",
"289 11 CURVE SMOOTH",
"118 11 OFFCURVE",
"74 96 OFFCURVE",
"108 343 CURVE SMOOTH",
"143 592 OFFCURVE",
"209 679 OFFCURVE",
"387 679 CURVE SMOOTH",
"461 679 OFFCURVE",
"497 676 OFFCURVE",
"552 667 CURVE",
"559 685 LINE",
"508 697 OFFCURVE",
"466 702 OFFCURVE",
"386 702 CURVE SMOOTH"
);
}
);
width = 557;
},
{
anchors = (
{
name = bottom;
position = "{279, -24}";
},
{
name = top;
position = "{404, 736}";
}
);
background = {
paths = (
{
closed = 1;
nodes = (
"177 704 OFFCURVE",
"85 634 OFFCURVE",
"46 353 CURVE SMOOTH",
"7 69 OFFCURVE",
"84 -14 OFFCURVE",
"318 -14 CURVE SMOOTH",
"528 -14 OFFCURVE",
"624 53 OFFCURVE",
"662 337 CURVE SMOOTH",
"700 624 OFFCURVE",
"607 704 OFFCURVE",
"385 704 CURVE SMOOTH"
);
},
{
closed = 1;
nodes = (
"446 543 OFFCURVE",
"458 510 OFFCURVE",
"434 353 CURVE SMOOTH",
"408 182 OFFCURVE",
"392 147 OFFCURVE",
"324 147 CURVE SMOOTH",
"260 147 OFFCURVE",
"248 179 OFFCURVE",
"273 337 CURVE SMOOTH",
"300 508 OFFCURVE",
"316 543 OFFCURVE",
"382 543 CURVE SMOOTH"
);
}
);
};
layerId = "924B7471-43FB-4CAD-AF7E-45215B64D997";
paths = (
{
closed = 1;
nodes = (
"161 702 OFFCURVE",
"80 631 OFFCURVE",
"41 353 CURVE SMOOTH",
"3 81 OFFCURVE",
"84 -12 OFFCURVE",
"314 -12 CURVE SMOOTH",
"415 -12 OFFCURVE",
"479 -3 OFFCURVE",
"553 20 CURVE",
"545 179 LINE",
"481 173 OFFCURVE",
"424 171 OFFCURVE",
"324 171 CURVE SMOOTH",
"250 171 OFFCURVE",
"249 201 OFFCURVE",
"267 337 CURVE SMOOTH",
"288 500 OFFCURVE",
"309 519 OFFCURVE",
"380 519 CURVE SMOOTH",
"472 519 OFFCURVE",
"520 518 OFFCURVE",
"593 517 CURVE",
"618 674 LINE",
"551 693 OFFCURVE",
"494 702 OFFCURVE",
"391 702 CURVE SMOOTH"
);
}
);
width = 603;
},
{
anchors = (
{
name = bottom;
position = "{277, -12}";
},
{
name = top;
position = "{381, 732}";
}
);
background = {
paths = (
{
closed = 1;
nodes = (
"182 703 OFFCURVE",
"101 608 OFFCURVE",
"66 349 CURVE SMOOTH",
"29 76 OFFCURVE",
"113 -13 OFFCURVE",
"303 -13 CURVE SMOOTH",
"502 -13 OFFCURVE",
"586 72 OFFCURVE",
"623 341 CURVE SMOOTH",
"660 609 OFFCURVE",
"581 703 OFFCURVE",
"390 703 CURVE SMOOTH"
);
},
{
closed = 1;
nodes = (
"506 604 OFFCURVE",
"536 552 OFFCURVE",
"507 349 CURVE SMOOTH",
"478 147 OFFCURVE",
"429 86 OFFCURVE",
"306 86 CURVE SMOOTH",
"182 86 OFFCURVE",
"155 147 OFFCURVE",
"182 341 CURVE SMOOTH",
"211 546 OFFCURVE",
"256 604 OFFCURVE",
"384 604 CURVE SMOOTH"
);
}
);
};
layerId = "77EC9CE6-E33A-4866-9665-0506F15B57B2";
paths = (
{
closed = 1;
nodes = (
"181 702 OFFCURVE",
"99 610 OFFCURVE",
"63 349 CURVE SMOOTH",
"27 99 OFFCURVE",
"93 -12 OFFCURVE",
"294 -12 CURVE SMOOTH",
"384 -12 OFFCURVE",
"440 -6 OFFCURVE",
"502 12 CURVE",
"497 97 LINE",
"439 90 OFFCURVE",
"386 86 OFFCURVE",
"296 87 CURVE SMOOTH",
"180 88 OFFCURVE",
"151 147 OFFCURVE",
"179 341 CURVE SMOOTH",
"208 557 OFFCURVE",
"261 603 OFFCURVE",
"380 603 CURVE SMOOTH",
"459 603 OFFCURVE",
"499 601 OFFCURVE",
"559 596 CURVE",
"576 680 LINE",
"519 695 OFFCURVE",
"475 702 OFFCURVE",
"382 702 CURVE SMOOTH"
);
}
);
width = 570;
}
);
leftKerningGroup = C;
rightKerningGroup = C;
unicode = 0043;
},
{
glyphname = D;
lastChange = "2016-12-09 13:27:44 +0000";
layers = (
{
anchors = (
{
name = bottom;
position = "{275, -12}";
},
{
name = center;
position = "{129, 345}";
},
{
name = top;
position = "{378, 740}";
}
);
background = {
paths = (
{
closed = 1;
nodes = (
"483 -10 OFFCURVE",
"561 83 OFFCURVE",
"598 341 CURVE SMOOTH",
"635 605 OFFCURVE",
"581 700 OFFCURVE",
"391 700 CURVE SMOOTH",
"308 700 OFFCURVE",
"257 694 OFFCURVE",
"202 682 CURVE",
"207 664 LINE",
"261 673 OFFCURVE",
"311 677 OFFCURVE",
"392 677 CURVE SMOOTH",
"563 677 OFFCURVE",
"607 592 OFFCURVE",
"573 345 CURVE SMOOTH",
"538 100 OFFCURVE",
"472 13 OFFCURVE",
"294 13 CURVE SMOOTH",
"220 13 OFFCURVE",
"184 16 OFFCURVE",
"129 25 CURVE",
"122 7 LINE",
"173 -5 OFFCURVE",
"215 -10 OFFCURVE",
"295 -10 CURVE SMOOTH"
);
}
);
};
layerId = "E21536AE-9819-4FE7-8A20-8865FE3C0515";
paths = (
{
closed = 1;
nodes = (
"302 699 OFFCURVE",
"226 695 OFFCURVE",
"159 690 CURVE",
"168 672 LINE",
"233 674 OFFCURVE",
"301 676 OFFCURVE",
"388 676 CURVE SMOOTH",
"553 676 OFFCURVE",
"599 591 OFFCURVE",
"565 347 CURVE SMOOTH",
"530 95 OFFCURVE",
"458 14 OFFCURVE",
"291 14 CURVE SMOOTH",
"207 14 OFFCURVE",
"141 16 OFFCURVE",
"77 17 CURVE",
"62 0 LINE",
"129 -5 OFFCURVE",
"203 -9 OFFCURVE",
"292 -9 CURVE SMOOTH",
"476 -9 OFFCURVE",
"554 80 OFFCURVE",
"590 343 CURVE SMOOTH",
"626 604 OFFCURVE",
"574 699 OFFCURVE",
"388 699 CURVE SMOOTH"
);
},
{
closed = 1;
nodes = (
"159 690 LINE",
"62 0 LINE",
"87 0 LINE",
"184 690 LINE"
);
}
);
width = 658;
},
{
anchors = (
{
name = bottom;
position = "{279, -24}";
},
{
name = center;
position = "{221, 345}";
},
{
name = top;
position = "{398, 735}";
}
);
background = {
paths = (
{
closed = 1;
nodes = (
"167 704 OFFCURVE",
"75 634 OFFCURVE",
"36 353 CURVE SMOOTH",
"-3 69 OFFCURVE",
"74 -14 OFFCURVE",
"308 -14 CURVE SMOOTH",
"518 -14 OFFCURVE",
"614 53 OFFCURVE",
"652 337 CURVE SMOOTH",
"690 624 OFFCURVE",
"597 704 OFFCURVE",
"375 704 CURVE SMOOTH"
);
},
{
closed = 1;
nodes = (
"436 543 OFFCURVE",
"448 510 OFFCURVE",
"424 353 CURVE SMOOTH",
"398 182 OFFCURVE",
"382 147 OFFCURVE",
"314 147 CURVE SMOOTH",
"250 147 OFFCURVE",
"238 179 OFFCURVE",
"263 337 CURVE SMOOTH",
"290 508 OFFCURVE",
"306 543 OFFCURVE",
"372 543 CURVE SMOOTH"
);
}
);
};
layerId = "924B7471-43FB-4CAD-AF7E-45215B64D997";
paths = (
{
closed = 1;
nodes = (
"285 700 OFFCURVE",
"185 696 OFFCURVE",
"108 690 CURVE",
"192 544 LINE",
"246 543 OFFCURVE",
"306 543 OFFCURVE",
"382 543 CURVE SMOOTH",
"459 543 OFFCURVE",
"466 508 OFFCURVE",
"446 353 CURVE SMOOTH",
"424 180 OFFCURVE",
"386 147 OFFCURVE",
"318 147 CURVE SMOOTH",
"241 147 OFFCURVE",
"159 149 OFFCURVE",
"114 154 CURVE",
"11 0 LINE",
"103 -6 OFFCURVE",
"200 -10 OFFCURVE",
"321 -10 CURVE SMOOTH",
"555 -10 OFFCURVE",
"635 61 OFFCURVE",
"674 337 CURVE SMOOTH",
"714 621 OFFCURVE",
"613 700 OFFCURVE",
"389 700 CURVE SMOOTH"
);
},
{
closed = 1;
nodes = (
"108 690 LINE",
"11 0 LINE",
"228 0 LINE",
"325 690 LINE"
);
}
);
width = 700;
},
{
anchors = (
{
name = bottom;
position = "{284, -12}";
},
{
name = center;
position = "{169, 345}";
},
{
name = top;
position = "{377, 732}";
}
);
background = {
paths = (
{
closed = 1;
nodes = (
"182 703 OFFCURVE",
"101 608 OFFCURVE",
"66 349 CURVE SMOOTH",
"29 76 OFFCURVE",
"113 -13 OFFCURVE",
"303 -13 CURVE SMOOTH",
"502 -13 OFFCURVE",
"586 72 OFFCURVE",
"623 341 CURVE SMOOTH",
"660 609 OFFCURVE",
"581 703 OFFCURVE",
"390 703 CURVE SMOOTH"
);
},
{
closed = 1;
nodes = (
"506 604 OFFCURVE",
"536 552 OFFCURVE",
"507 349 CURVE SMOOTH",
"478 147 OFFCURVE",
"429 86 OFFCURVE",
"306 86 CURVE SMOOTH",
"182 86 OFFCURVE",
"155 147 OFFCURVE",
"182 341 CURVE SMOOTH",
"211 546 OFFCURVE",
"256 604 OFFCURVE",
"384 604 CURVE SMOOTH"
);
}
);
};
layerId = "77EC9CE6-E33A-4866-9665-0506F15B57B2";
paths = (
{
closed = 1;
nodes = (
"308 699 OFFCURVE",
"204 695 OFFCURVE",
"136 690 CURVE",
"176 601 LINE",
"224 601 OFFCURVE",
"324 603 OFFCURVE",
"358 603 CURVE SMOOTH",
"500 603 OFFCURVE",
"531 568 OFFCURVE",
"499 349 CURVE SMOOTH",
"466 121 OFFCURVE",
"419 88 OFFCURVE",
"267 88 CURVE SMOOTH",
"230 88 OFFCURVE",
"148 90 OFFCURVE",
"96 92 CURVE",
"39 0 LINE",
"114 -5 OFFCURVE",
"206 -9 OFFCURVE",
"268 -9 CURVE SMOOTH",
"481 -9 OFFCURVE",
"571 29 OFFCURVE",
"615 341 CURVE SMOOTH",
"653 612 OFFCURVE",
"581 699 OFFCURVE",
"361 699 CURVE SMOOTH"
);
},
{
closed = 1;
nodes = (
"136 690 LINE",
"39 0 LINE",
"150 0 LINE",
"247 690 LINE"
);
}
);
width = 664;
}
);
leftKerningGroup = B;
rightKerningGroup = D;
unicode = 0044;
},
{
glyphname = Eth;
lastChange = "2016-12-09 13:27:44 +0000";
layers = (
{
components = (
{
name = D;
}
);
layerId = "E21536AE-9819-4FE7-8A20-8865FE3C0515";
paths = (
{
closed = 1;
nodes = (
"33 381 LINE",
"30 361 LINE",
"318 361 LINE",
"321 381 LINE"
);
}
);
width = 658;
},
{
components = (
{
name = D;
}
);
layerId = "924B7471-43FB-4CAD-AF7E-45215B64D997";
paths = (
{
closed = 1;
nodes = (
"22 413 LINE",
"8 313 LINE",
"359 313 LINE",
"373 413 LINE"
);
}
);
width = 700;
},
{
components = (
{
name = D;
}
);
layerId = "77EC9CE6-E33A-4866-9665-0506F15B57B2";
paths = (
{
closed = 1;
nodes = (
"34 395 LINE",
"26 335 LINE",
"342 335 LINE",
"350 395 LINE"
);
}
);
width = 664;
}
);
leftKerningGroup = B;
rightKerningGroup = D;
rightMetricsKey = D;
unicode = 00D0;
},
{
glyphname = E;
lastChange = "2016-12-09 13:27:44 +0000";
layers = (
{
anchors = (
{
name = bottom;
position = "{265, 0}";
},
{
name = ogonek;
position = "{453, 4}";
},
{
name = top;
position = "{367, 765}";
}
);
guideLines = (
{
position = "{162, 586}";
}
);
layerId = "E21536AE-9819-4FE7-8A20-8865FE3C0515";
paths = (
{
closed = 1;
nodes = (
"187 690 OFFCURVE",
"146 648 OFFCURVE",
"138 589 CURVE SMOOTH",
"70 103 LINE SMOOTH",
"61 44 OFFCURVE",
"99 0 OFFCURVE",
"159 0 CURVE SMOOTH",
"256 0 OFFCURVE",
"354 0 OFFCURVE",
"453 4 CURVE",
"452 22 LINE",
"164 22 LINE SMOOTH",
"116 22 OFFCURVE",
"88 55 OFFCURVE",
"95 103 CURVE SMOOTH",
"162 585 LINE SMOOTH",
"169 635 OFFCURVE",
"202 668 OFFCURVE",
"257 668 CURVE SMOOTH",
"543 668 LINE",
"547 686 LINE",
"449 690 OFFCURVE",
"351 690 OFFCURVE",
"252 690 CURVE SMOOTH"
);
},
{
closed = 1;
nodes = (
"123 359 LINE",
"459 360 LINE",
"462 380 LINE",
"126 381 LINE"
);
}
);
width = 548;
},
{
anchors = (
{
name = bottom;
position = "{271, 0}";
},
{
name = ogonek;
position = "{525, 8}";
},
{
name = top;
position = "{380, 735}";
}
);
guideLines = (
{
position = "{138, 538}";
}
);
layerId = "924B7471-43FB-4CAD-AF7E-45215B64D997";
paths = (
{
closed = 1;
nodes = (
"157 694 OFFCURVE",
"95 634 OFFCURVE",
"82 541 CURVE SMOOTH",
"32 184 LINE SMOOTH",
"18 75 OFFCURVE",
"73 -4 OFFCURVE",
"187 -4 CURVE SMOOTH",
"295 -4 OFFCURVE",
"429 -5 OFFCURVE",
"525 8 CURVE",
"529 162 LINE",
"289 162 LINE SMOOTH",
"260 162 OFFCURVE",
"248 175 OFFCURVE",
"252 201 CURVE SMOOTH",
"292 488 LINE SMOOTH",
"296 518 OFFCURVE",
"309 528 OFFCURVE",
"343 528 CURVE SMOOTH",
"583 528 LINE",
"607 680 LINE",
"514 693 OFFCURVE",
"380 694 OFFCURVE",
"259 694 CURVE SMOOTH"
);
},
{
closed = 1;
nodes = (
"62 281 LINE",
"514 281 LINE",
"532 425 LINE",
"85 425 LINE"
);
}
);
width = 587;
},
{
anchors = (
{
name = bottom;
position = "{259, 0}";
},
{
name = ogonek;
position = "{478, 6}";
},
{
name = top;
position = "{374, 751}";
}
);
guideLines = (
{
position = "{135, 538}";
}
);
layerId = "77EC9CE6-E33A-4866-9665-0506F15B57B2";
paths = (
{
closed = 1;
nodes = (
"176 692 OFFCURVE",
"123 646 OFFCURVE",
"112 567 CURVE SMOOTH",
"54 149 LINE SMOOTH",
"41 55 OFFCURVE",
"88 -2 OFFCURVE",
"204 -2 CURVE SMOOTH",
"293 -2 OFFCURVE",
"394 -2 OFFCURVE",
"478 6 CURVE",
"481 93 LINE",
"217 93 LINE SMOOTH",
"173 93 OFFCURVE",
"161 107 OFFCURVE",
"167 152 CURVE SMOOTH",
"219 534 LINE SMOOTH",
"225 582 OFFCURVE",
"241 597 OFFCURVE",
"282 597 CURVE SMOOTH",
"552 597 LINE",
"567 684 LINE",
"478 692 OFFCURVE",
"371 692 OFFCURVE",
"269 692 CURVE SMOOTH"
);
},
{
closed = 1;
nodes = (
"95 319 LINE",
"476 319 LINE",
"487 404 LINE",
"108 404 LINE"
);
}
);
width = 562;
}
);
leftKerningGroup = E;
rightKerningGroup = AE;
unicode = 0045;
},
{
glyphname = F;
lastChange = "2016-12-09 13:27:44 +0000";
layers = (
{
background = {
paths = (
{
closed = 1;
nodes = (
"200 690 OFFCURVE",
"159 648 OFFCURVE",
"151 589 CURVE SMOOTH",
"83 103 LINE SMOOTH",
"74 44 OFFCURVE",
"112 0 OFFCURVE",
"172 0 CURVE SMOOTH",
"269 0 OFFCURVE",
"367 0 OFFCURVE",
"466 4 CURVE",
"465 22 LINE",
"177 22 LINE SMOOTH",
"129 22 OFFCURVE",
"101 55 OFFCURVE",
"108 103 CURVE SMOOTH",
"175 585 LINE SMOOTH",
"182 635 OFFCURVE",
"215 668 OFFCURVE",
"270 668 CURVE SMOOTH",
"556 668 LINE",
"560 686 LINE",
"462 690 OFFCURVE",
"364 690 OFFCURVE",
"265 690 CURVE SMOOTH"
);
},
{
closed = 1;
nodes = (
"136 359 LINE",
"472 360 LINE",
"475 380 LINE",
"139 381 LINE"
);
}
);
};
layerId = "E21536AE-9819-4FE7-8A20-8865FE3C0515";
paths = (
{
closed = 1;
nodes = (
"195 690 OFFCURVE",
"151 651 OFFCURVE",
"142 589 CURVE SMOOTH",
"59 0 LINE",
"84 0 LINE",
"166 585 LINE SMOOTH",
"174 639 OFFCURVE",
"211 668 OFFCURVE",
"261 668 CURVE SMOOTH",
"540 668 LINE",
"544 686 LINE",
"448 690 OFFCURVE",
"353 690 OFFCURVE",
"256 690 CURVE SMOOTH"
);
},
{
closed = 1;
nodes = (
"126 355 LINE",
"455 356 LINE",
"458 376 LINE",
"129 377 LINE"
);
}
);
width = 530;
},
{
background = {
paths = (
{
closed = 1;
nodes = (
"161 694 OFFCURVE",
"101 634 OFFCURVE",
"88 541 CURVE SMOOTH",
"38 184 LINE SMOOTH",
"24 75 OFFCURVE",
"77 -4 OFFCURVE",
"186 -4 CURVE SMOOTH",
"291 -4 OFFCURVE",
"422 -5 OFFCURVE",
"515 8 CURVE",
"520 162 LINE",
"293 162 LINE SMOOTH",
"266 162 OFFCURVE",
"255 175 OFFCURVE",
"259 201 CURVE SMOOTH",
"298 488 LINE SMOOTH",
"302 518 OFFCURVE",
"314 528 OFFCURVE",
"346 528 CURVE SMOOTH",
"572 528 LINE",
"597 680 LINE",
"508 693 OFFCURVE",
"377 694 OFFCURVE",
"260 694 CURVE SMOOTH"
);
},
{
closed = 1;
nodes = (
"68 280 LINE",
"506 290 LINE",
"523 416 LINE",
"89 426 LINE"
);
}
);
};
layerId = "924B7471-43FB-4CAD-AF7E-45215B64D997";
paths = (
{
closed = 1;
nodes = (
"167 694 OFFCURVE",
"98 636 OFFCURVE",
"85 541 CURVE SMOOTH",
"9 0 LINE",
"227 0 LINE",
"295 488 LINE SMOOTH",
"299 518 OFFCURVE",
"313 528 OFFCURVE",
"349 528 CURVE SMOOTH",
"579 528 LINE",
"603 679 LINE",
"511 693 OFFCURVE",
"380 694 OFFCURVE",
"261 694 CURVE SMOOTH"
);
},
{
closed = 1;
nodes = (
"64 267 LINE",
"507 267 LINE",
"525 411 LINE",
"85 411 LINE"
);
}
);
width = 567;
},
{
background = {
paths = (
{
closed = 1;
nodes = (
"186 692 OFFCURVE",
"133 646 OFFCURVE",
"122 567 CURVE SMOOTH",
"64 149 LINE SMOOTH",
"51 55 OFFCURVE",
"98 -2 OFFCURVE",
"214 -2 CURVE SMOOTH",
"303 -2 OFFCURVE",
"402 -2 OFFCURVE",
"487 6 CURVE",
"493 93 LINE",
"227 93 LINE SMOOTH",
"183 93 OFFCURVE",
"171 107 OFFCURVE",
"177 152 CURVE SMOOTH",
"229 534 LINE SMOOTH",
"235 582 OFFCURVE",
"251 597 OFFCURVE",
"292 597 CURVE SMOOTH",
"562 597 LINE",
"577 684 LINE",
"488 692 OFFCURVE",
"381 692 OFFCURVE",
"279 692 CURVE SMOOTH"
);
},
{
closed = 1;
nodes = (
"105 317 LINE",
"486 322 LINE",
"497 403 LINE",
"118 408 LINE"
);
}
);
};
layerId = "77EC9CE6-E33A-4866-9665-0506F15B57B2";
paths = (
{
closed = 1;
nodes = (
"182 692 OFFCURVE",
"128 647 OFFCURVE",
"115 561 CURVE SMOOTH",
"37 0 LINE",
"148 0 LINE",
"223 534 LINE SMOOTH",
"230 585 OFFCURVE",
"245 597 OFFCURVE",
"296 597 CURVE SMOOTH",
"545 597 LINE",
"561 683 LINE",
"475 692 OFFCURVE",
"372 692 OFFCURVE",
"273 692 CURVE SMOOTH"
);
},
{
closed = 1;
nodes = (
"96 306 LINE",
"468 306 LINE",
"480 391 LINE",
"109 391 LINE"
);
}
);
width = 540;
}
);
leftKerningGroup = F;
rightKerningGroup = F;
unicode = 0046;
},
{
glyphname = G;
lastChange = "2016-12-09 13:27:44 +0000";
layers = (
{
anchors = (
{
name = bottom;
position = "{275, -12}";
},
{
name = top;
position = "{397, 740}";
}
);
background = {
paths = (
{
closed = 1;
nodes = (
"196 702 OFFCURVE",
"118 609 OFFCURVE",
"81 347 CURVE SMOOTH",
"44 83 OFFCURVE",
"98 -12 OFFCURVE",
"288 -12 CURVE SMOOTH",
"371 -12 OFFCURVE",
"422 -6 OFFCURVE",
"477 6 CURVE",
"472 24 LINE",
"418 15 OFFCURVE",
"368 11 OFFCURVE",
"287 11 CURVE SMOOTH",
"116 11 OFFCURVE",
"72 96 OFFCURVE",
"106 343 CURVE SMOOTH",
"141 592 OFFCURVE",
"207 679 OFFCURVE",
"385 679 CURVE SMOOTH",
"459 679 OFFCURVE",
"495 676 OFFCURVE",
"550 667 CURVE",
"557 685 LINE",
"506 697 OFFCURVE",
"464 702 OFFCURVE",
"384 702 CURVE SMOOTH"
);
},
{
closed = 1;
nodes = (
"191 480 LINE",
"140 120 LINE SMOOTH",
"127 34 OFFCURVE",
"167 -12 OFFCURVE",
"253 -12 CURVE SMOOTH",
"324 -12 OFFCURVE",
"405 32 OFFCURVE",
"497 116 CURVE",
"496 140 LINE",
"398 55 OFFCURVE",
"329 11 OFFCURVE",
"257 11 CURVE SMOOTH",
"184 11 OFFCURVE",
"153 45 OFFCURVE",
"164 121 CURVE SMOOTH",
"215 480 LINE"
);
},
{
closed = 1;
nodes = (
"541 480 LINE",
"493 133 LINE",
"494 117 LINE",
"479 0 LINE",
"497 0 LINE",
"565 480 LINE"
);
}
);
};
layerId = "E21536AE-9819-4FE7-8A20-8865FE3C0515";
paths = (
{
closed = 1;
nodes = (
"198 702 OFFCURVE",
"118 609 OFFCURVE",
"82 347 CURVE SMOOTH",
"49 93 OFFCURVE",
"98 -12 OFFCURVE",
"262 -12 CURVE SMOOTH",
"343 -12 OFFCURVE",
"428 37 OFFCURVE",
"500 116 CURVE",
"496 135 LINE",
"428 73 OFFCURVE",
"354 11 OFFCURVE",
"263 11 CURVE SMOOTH",
"117 11 OFFCURVE",
"77 103 OFFCURVE",
"107 343 CURVE SMOOTH",
"141 594 OFFCURVE",
"210 679 OFFCURVE",
"389 679 CURVE SMOOTH",
"472 679 OFFCURVE",
"514 676 OFFCURVE",
"576 667 CURVE",
"583 685 LINE",
"525 697 OFFCURVE",
"479 702 OFFCURVE",
"388 702 CURVE SMOOTH"
);
},
{
closed = 1;
nodes = (
"531 400 LINE",
"494 132 LINE",
"493 120 LINE",
"481 0 LINE",
"498 0 LINE",
"556 400 LINE"
);
}
);
width = 620;
},
{
anchors = (
{
name = bottom;
position = "{272, -12}";
},
{
name = top;
position = "{413, 735}";
}
);
background = {
paths = (
{
closed = 1;
nodes = (
"164 702 OFFCURVE",
"85 631 OFFCURVE",
"46 353 CURVE SMOOTH",
"8 81 OFFCURVE",
"87 -12 OFFCURVE",
"309 -12 CURVE SMOOTH",
"407 -12 OFFCURVE",
"469 -3 OFFCURVE",
"541 20 CURVE",
"534 179 LINE",
"472 173 OFFCURVE",
"418 171 OFFCURVE",
"321 171 CURVE SMOOTH",
"254 171 OFFCURVE",
"255 201 OFFCURVE",
"273 337 CURVE SMOOTH",
"292 500 OFFCURVE",
"311 519 OFFCURVE",
"374 519 CURVE SMOOTH",
"463 519 OFFCURVE",
"510 518 OFFCURVE",
"581 517 CURVE",
"607 674 LINE",
"542 693 OFFCURVE",
"486 702 OFFCURVE",
"386 702 CURVE SMOOTH"
);
},
{
closed = 1;
nodes = (
"121 500 LINE",
"69 130 LINE SMOOTH",
"56 38 OFFCURVE",
"103 -14 OFFCURVE",
"202 -14 CURVE SMOOTH",
"278 -14 OFFCURVE",
"351 28 OFFCURVE",
"436 126 CURVE",
"399 212 LINE",
"357 174 OFFCURVE",
"334 162 OFFCURVE",
"307 162 CURVE SMOOTH",
"295 162 OFFCURVE",
"285 167 OFFCURVE",
"288 189 CURVE SMOOTH",
"332 500 LINE"
);
},
{
closed = 1;
nodes = (
"424 500 LINE",
"374 146 LINE",
"393 134 LINE",
"399 0 LINE",
"563 0 LINE",
"633 500 LINE"
);
}
);
};
layerId = "924B7471-43FB-4CAD-AF7E-45215B64D997";
paths = (
{
closed = 1;
nodes = (
"185 704 OFFCURVE",
"82 638 OFFCURVE",
"42 353 CURVE SMOOTH",
"3 76 OFFCURVE",
"87 -14 OFFCURVE",
"223 -14 CURVE SMOOTH",
"355 -14 OFFCURVE",
"434 89 OFFCURVE",
"465 126 CURVE",
"429 212 LINE",
"408 201 OFFCURVE",
"385 171 OFFCURVE",
"324 171 CURVE SMOOTH",
"258 171 OFFCURVE",
"247 201 OFFCURVE",
"268 337 CURVE SMOOTH",
"290 478 OFFCURVE",
"317 521 OFFCURVE",
"405 521 CURVE SMOOTH",
"492 521 OFFCURVE",
"552 520 OFFCURVE",
"627 519 CURVE",
"651 674 LINE",
"580 696 OFFCURVE",
"502 704 OFFCURVE",
"420 704 CURVE SMOOTH"
);
},
{
closed = 1;
nodes = (
"441 397 LINE",
"406 144 LINE",
"422 107 LINE",
"433 0 LINE",
"592 0 LINE",
"648 397 LINE"
);
}
);
width = 670;
},
{
associatedMasterId = "E21536AE-9819-4FE7-8A20-8865FE3C0515";
layerId = "42121556-F37F-4E7F-84A6-79BE221BD2A3";
name = "Light May 2 13, 12:48";
paths = (
{
closed = 1;
nodes = (
"503 24 LINE",
"451 15 OFFCURVE",
"401 11 OFFCURVE",
"321 11 CURVE SMOOTH",
"151 11 OFFCURVE",
"92 99 OFFCURVE",
"92 345 CURVE SMOOTH",
"92 591 OFFCURVE",
"151 679 OFFCURVE",
"321 679 CURVE SMOOTH",
"396 679 OFFCURVE",
"433 676 OFFCURVE",
"489 667 CURVE",
"495 685 LINE",
"443 697 OFFCURVE",
"400 702 OFFCURVE",
"321 702 CURVE SMOOTH",
"132 702 OFFCURVE",
"66 608 OFFCURVE",
"66 345 CURVE SMOOTH",
"66 82 OFFCURVE",
"132 -12 OFFCURVE",
"321 -12 CURVE SMOOTH",
"405 -12 OFFCURVE",
"456 -6 OFFCURVE",
"509 6 CURVE"
);
},
{
closed = 1;
nodes = (
"502 0 LINE",
"527 0 LINE",
"527 300 LINE",
"502 300 LINE"
);
}
);
width = 600;
},
{
anchors = (
{
name = bottom;
position = "{268, -12}";
},
{
name = top;
position = "{388, 732}";
}
);
background = {
paths = (
{
closed = 1;
nodes = (
"161 489 LINE",
"110 124 LINE SMOOTH",
"98 41 OFFCURVE",
"137 -13 OFFCURVE",
"228 -13 CURVE SMOOTH",
"308 -13 OFFCURVE",
"378 29 OFFCURVE",
"463 114 CURVE",
"452 188 LINE",
"369 115 OFFCURVE",
"324 79 OFFCURVE",
"266 79 CURVE SMOOTH",
"224 79 OFFCURVE",
"213 98 OFFCURVE",
"221 152 CURVE SMOOTH",
"269 489 LINE"
);
},
{
closed = 1;
nodes = (
"487 489 LINE",
"441 149 LINE",
"449 135 LINE",
"443 0 LINE",
"526 0 LINE",
"594 489 LINE"
);
}
);
};
layerId = "77EC9CE6-E33A-4866-9665-0506F15B57B2";
paths = (
{
closed = 1;
nodes = (
"213 703 OFFCURVE",
"100 646 OFFCURVE",
"63 349 CURVE SMOOTH",
"36 97 OFFCURVE",
"93 -13 OFFCURVE",
"229 -13 CURVE SMOOTH",
"335 -13 OFFCURVE",
"401 34 OFFCURVE",
"460 114 CURVE",
"449 188 LINE",
"380 118 OFFCURVE",
"337 85 OFFCURVE",
"269 85 CURVE SMOOTH",
"180 85 OFFCURVE",
"159 150 OFFCURVE",
"179 341 CURVE SMOOTH",
"208 567 OFFCURVE",
"259 604 OFFCURVE",
"412 604 CURVE SMOOTH",
"448 604 OFFCURVE",
"518 602 OFFCURVE",
"581 597 CURVE",
"597 680 LINE",
"534 697 OFFCURVE",
"458 703 OFFCURVE",
"398 703 CURVE SMOOTH"
);
},
{
closed = 1;
nodes = (
"472 400 LINE",
"434 126 LINE",
"441 103 LINE",
"443 0 LINE",
"523 0 LINE",
"579 400 LINE"
);
}
);
width = 625;
}
);
leftKerningGroup = C;
rightKerningGroup = G;
unicode = 0047;
},
{
glyphname = H;
lastChange = "2016-12-09 13:27:44 +0000";
layers = (
{
anchors = (
{
name = bottom;
position = "{295, 0}";
},
{
name = center;
position = "{337, 345}";
},
{
name = top;
position = "{394, 740}";
}
);
layerId = "E21536AE-9819-4FE7-8A20-8865FE3C0515";
paths = (
{
closed = 1;
nodes = (
"159 690 LINE",
"62 0 LINE",
"87 0 LINE",
"184 690 LINE"
);
},
{
closed = 1;
nodes = (
"133 381 LINE",
"130 359 LINE",
"550 359 LINE",
"553 381 LINE"
);
},
{
closed = 1;
nodes = (
"585 690 LINE",
"488 0 LINE",
"513 0 LINE",
"610 690 LINE"
);
}
);
width = 657;
},
{
anchors = (
{
name = bottom;
position = "{311, 0}";
},
{
name = center;
position = "{359, 345}";
},
{
name = top;
position = "{409, 735}";
}
);
layerId = "924B7471-43FB-4CAD-AF7E-45215B64D997";
paths = (
{
closed = 1;
nodes = (
"109 690 LINE",
"12 0 LINE",
"229 0 LINE",
"326 690 LINE"
);
},
{
closed = 1;
nodes = (
"283 443 LINE",
"262 289 LINE",
"445 289 LINE",
"467 443 LINE"
);
},
{
closed = 1;
nodes = (
"491 690 LINE",
"394 0 LINE",
"611 0 LINE",
"708 690 LINE"
);
}
);
width = 705;
},
{
anchors = (
{
name = bottom;
position = "{293, 0}";
},
{
name = center;
position = "{339, 345}";
},
{
name = top;
position = "{379, 732}";
}
);
layerId = "77EC9CE6-E33A-4866-9665-0506F15B57B2";
paths = (
{
closed = 1;
nodes = (
"136 690 LINE",
"39 0 LINE",
"151 0 LINE",
"248 690 LINE"
);
},
{
closed = 1;
nodes = (
"201 415 LINE",
"188 319 LINE",
"494 319 LINE",
"507 415 LINE"
);
},
{
closed = 1;
nodes = (
"535 690 LINE",
"438 0 LINE",
"549 0 LINE",
"646 690 LINE"
);
}
);
width = 670;
}
);
leftKerningGroup = B;
rightKerningGroup = H;
unicode = 0048;
},
{
glyphname = Hbar;
lastChange = "2016-12-09 13:27:44 +0000";
layers = (
{
components = (
{
name = H;
}
);
layerId = "E21536AE-9819-4FE7-8A20-8865FE3C0515";
paths = (
{
closed = 1;
nodes = (
"59 545 LINE",
"56 525 LINE",
"667 525 LINE",
"670 545 LINE"
);
}
);
width = 657;
},
{
components = (
{
name = H;
}
);
layerId = "924B7471-43FB-4CAD-AF7E-45215B64D997";
paths = (
{
closed = 1;
nodes = (
"45 601 LINE",
"31 509 LINE",
"734 509 LINE",
"748 601 LINE"
);
}
);
width = 705;
},
{
components = (
{
name = H;
}
);
layerId = "77EC9CE6-E33A-4866-9665-0506F15B57B2";
paths = (
{
closed = 1;
nodes = (
"57 574 LINE",
"49 517 LINE",
"693 517 LINE",
"700 574 LINE"
);
}
);
width = 670;
}
);
leftKerningGroup = B;
rightKerningGroup = H;
unicode = 0126;
},
{
glyphname = I;
lastChange = "2016-12-09 13:27:44 +0000";
layers = (
{
anchors = (
{
name = bottom;
position = "{73, 0}";
},
{
name = ogonek;
position = "{87, 0}";
},
{
name = top;
position = "{178, 740}";
}
);
layerId = "E21536AE-9819-4FE7-8A20-8865FE3C0515";
paths = (
{
closed = 1;
nodes = (
"159 690 LINE",
"62 0 LINE",
"87 0 LINE",
"184 690 LINE"
);
}
);
width = 231;
},
{
anchors = (
{
name = bottom;
position = "{119, 0}";
},
{
name = ogonek;
position = "{199, 0}";
},
{
name = top;
position = "{225, 735}";
}
);
layerId = "924B7471-43FB-4CAD-AF7E-45215B64D997";
paths = (
{
closed = 1;
nodes = (
"109 690 LINE",
"12 0 LINE",
"228 0 LINE",
"325 690 LINE"
);
}
);
width = 322;
},
{
anchors = (
{
name = bottom;
position = "{92, 0}";
},
{
name = ogonek;
position = "{137, 0}";
},
{
name = top;
position = "{198, 732}";
}
);
layerId = "77EC9CE6-E33A-4866-9665-0506F15B57B2";
paths = (
{
closed = 1;
nodes = (
"136 690 LINE",
"39 0 LINE",
"151 0 LINE",
"248 690 LINE"
);
}
);
width = 272;
}
);
leftKerningGroup = B;
rightKerningGroup = H;
unicode = 0049;
},
{
glyphname = J;
lastChange = "2016-12-09 13:27:44 +0000";
layers = (
{
anchors = (
{
name = top;
position = "{267, 740}";
}
);
guideLines = (
{
angle = 82;
position = "{235, 377}";
}
);
layerId = "E21536AE-9819-4FE7-8A20-8865FE3C0515";
paths = (
{
closed = 1;
nodes = (
"254 690 LINE",
"174 117 LINE SMOOTH",
"164 50 OFFCURVE",
"126 16 OFFCURVE",
"59 16 CURVE SMOOTH",
"2 16 LINE",
"-3 0 LINE",
"15 -3 OFFCURVE",
"42 -6 OFFCURVE",
"61 -6 CURVE SMOOTH",
"142 -7 OFFCURVE",
"187 34 OFFCURVE",
"198 114 CURVE SMOOTH",
"279 690 LINE"
);
}
);
width = 322;
},
{
anchors = (
{
name = top;
position = "{294, 735}";
}
);
layerId = "924B7471-43FB-4CAD-AF7E-45215B64D997";
paths = (
{
closed = 1;
nodes = (
"184 690 LINE",
"111 187 LINE SMOOTH",
"108 162 OFFCURVE",
"90 148 OFFCURVE",
"47 148 CURVE SMOOTH",
"10 148 LINE",
"-24 14 LINE",
"7 -4 OFFCURVE",
"88 -14 OFFCURVE",
"138 -14 CURVE SMOOTH",
"239 -14 OFFCURVE",
"309 33 OFFCURVE",
"322 123 CURVE SMOOTH",
"400 690 LINE"
);
}
);
width = 395;
},
{
anchors = (
{
name = top;
position = "{268, 732}";
}
);
layerId = "77EC9CE6-E33A-4866-9665-0506F15B57B2";
paths = (
{
closed = 1;
nodes = (
"212 690 LINE",
"137 153 LINE SMOOTH",
"131 110 OFFCURVE",
"102 85 OFFCURVE",
"54 85 CURVE SMOOTH",
"10 85 LINE",
"-11 6 LINE",
"12 -3 OFFCURVE",
"61 -10 OFFCURVE",
"93 -10 CURVE SMOOTH",
"178 -10 OFFCURVE",
"233 46 OFFCURVE",
"248 154 CURVE SMOOTH",
"324 690 LINE"
);
}
);
width = 345;
}
);
leftKerningGroup = J;
rightKerningGroup = IJ;
unicode = 004A;
},
{
glyphname = K;
lastChange = "2016-12-09 13:27:44 +0000";
layers = (
{
anchors = (
{
name = bottom;
position = "{244, 0}";
},
{
name = top;
position = "{354, 740}";
}
);
guideLines = (
{
angle = 270;
position = "{521, 359}";
}
);
layerId = "E21536AE-9819-4FE7-8A20-8865FE3C0515";
paths = (
{
closed = 1;
nodes = (
"537 690 LINE",
"239 361 LINE",
"460 0 LINE",
"488 0 LINE",
"287 331 LINE SMOOTH",
"281 341 OFFCURVE",
"275 350 OFFCURVE",
"268 359 CURVE",
"268 361 LINE",
"280 372 OFFCURVE",
"293 384 OFFCURVE",
"301 393 CURVE SMOOTH",
"568 690 LINE"
);
},
{
closed = 1;
nodes = (
"159 690 LINE",
"62 0 LINE",
"86 0 LINE",
"123 262 LINE",
"128 295 OFFCURVE",
"132 324 OFFCURVE",
"134 359 CURVE",
"141 395 OFFCURVE",
"145 418 OFFCURVE",
"150 453 CURVE SMOOTH",
"183 690 LINE"
);
},
{
closed = 1;
nodes = (
"123 371 LINE",
"120 349 LINE",
"265 349 LINE",
"268 371 LINE"
);
}
);
width = 559;
},
{
anchors = (
{
name = bottom;
position = "{312, 0}";
},
{
name = top;
position = "{398, 735}";
}
);
layerId = "924B7471-43FB-4CAD-AF7E-45215B64D997";
paths = (
{
closed = 1;
nodes = (
"485 690 LINE",
"269 353 LINE",
"400 0 LINE",
"634 0 LINE",
"514 269 LINE SMOOTH",
"502 298 OFFCURVE",
"478 331 OFFCURVE",
"459 339 CURVE",
"460 343 LINE",
"481 351 OFFCURVE",
"511 369 OFFCURVE",
"532 402 CURVE SMOOTH",
"725 690 LINE"
);
},
{
closed = 1;
nodes = (
"109 690 LINE",
"12 0 LINE",
"230 0 LINE",
"261 221 LINE SMOOTH",
"267 261 OFFCURVE",
"263 313 OFFCURVE",
"249 354 CURVE",
"278 400 OFFCURVE",
"294 452 OFFCURVE",
"300 499 CURVE SMOOTH",
"327 690 LINE"
);
},
{
closed = 1;
nodes = (
"227 428 LINE",
"208 288 LINE",
"321 288 LINE",
"340 428 LINE"
);
}
);
width = 668;
},
{
anchors = (
{
name = bottom;
position = "{274, 0}";
},
{
name = top;
position = "{371, 732}";
}
);
layerId = "77EC9CE6-E33A-4866-9665-0506F15B57B2";
paths = (
{
closed = 1;
nodes = (
"501 690 LINE",
"235 362 LINE",
"425 0 LINE",
"551 0 LINE",
"392 297 LINE SMOOTH",
"382 316 OFFCURVE",
"368 339 OFFCURVE",
"354 355 CURVE",
"355 360 LINE",
"377 374 OFFCURVE",
"391 389 OFFCURVE",
"407 408 CURVE SMOOTH",
"636 690 LINE"
);
},
{
closed = 1;
nodes = (
"136 690 LINE",
"39 0 LINE",
"150 0 LINE",
"184 244 LINE SMOOTH",
"189 280 OFFCURVE",
"188 320 OFFCURVE",
"185 357 CURVE",
"202 399 OFFCURVE",
"211 437 OFFCURVE",
"217 480 CURVE SMOOTH",
"247 690 LINE"
);
},
{
closed = 1;
nodes = (
"170 404 LINE",
"158 315 LINE",
"286 315 LINE",
"298 404 LINE"
);
}
);
width = 605;
}
);
leftKerningGroup = B;
rightKerningGroup = K;
unicode = 004B;
},
{
glyphname = L;
lastChange = "2016-12-09 13:27:44 +0000";
layers = (
{
anchors = (
{
name = bottom;
position = "{263, 0}";
},
{
name = top;
position = "{173, 740}";
}
);
layerId = "E21536AE-9819-4FE7-8A20-8865FE3C0515";
paths = (
{
closed = 1;
nodes = (
"156 690 LINE",
"74 103 LINE SMOOTH",
"65 44 OFFCURVE",
"103 0 OFFCURVE",
"163 0 CURVE SMOOTH",
"254 0 OFFCURVE",
"347 0 OFFCURVE",
"440 4 CURVE",
"441 22 LINE",
"168 22 LINE SMOOTH",
"120 22 OFFCURVE",
"92 55 OFFCURVE",
"99 103 CURVE SMOOTH",
"181 690 LINE"
);
}
);
width = 501;
},
{
anchors = (
{
name = bottom;
position = "{279, 0}";
},
{
name = top;
position = "{225, 735}";
}
);
layerId = "924B7471-43FB-4CAD-AF7E-45215B64D997";
paths = (
{
closed = 1;
nodes = (
"105 690 LINE",
"31 157 LINE SMOOTH",
"17 64 OFFCURVE",
"81 -4 OFFCURVE",
"181 -4 CURVE SMOOTH",
"295 -4 OFFCURVE",
"420 -3 OFFCURVE",
"512 9 CURVE",
"516 172 LINE",
"288 172 LINE SMOOTH",
"257 172 OFFCURVE",
"249 182 OFFCURVE",
"252 212 CURVE SMOOTH",
"323 690 LINE"
);
}
);
width = 552;
},
{
anchors = (
{
name = bottom;
position = "{268, 0}";
},
{
name = top;
position = "{198, 732}";
}
);
background = {
paths = (
{
closed = 1;
nodes = (
"187 692 OFFCURVE",
"134 646 OFFCURVE",
"123 567 CURVE SMOOTH",
"65 149 LINE SMOOTH",
"52 55 OFFCURVE",
"99 -2 OFFCURVE",
"215 -2 CURVE SMOOTH",
"304 -2 OFFCURVE",
"403 -2 OFFCURVE",
"488 6 CURVE",
"494 93 LINE",
"228 93 LINE SMOOTH",
"184 93 OFFCURVE",
"172 107 OFFCURVE",
"178 152 CURVE SMOOTH",
"230 534 LINE SMOOTH",
"236 582 OFFCURVE",
"252 597 OFFCURVE",
"293 597 CURVE SMOOTH",
"563 597 LINE",
"578 684 LINE",
"489 692 OFFCURVE",
"382 692 OFFCURVE",
"280 692 CURVE SMOOTH"
);
},
{
closed = 1;
nodes = (
"106 317 LINE",
"487 322 LINE",
"498 403 LINE",
"119 408 LINE"
);
}
);
};
layerId = "77EC9CE6-E33A-4866-9665-0506F15B57B2";
paths = (
{
closed = 1;
nodes = (
"133 690 LINE",
"60 156 LINE SMOOTH",
"45 49 OFFCURVE",
"101 -2 OFFCURVE",
"196 -2 CURVE SMOOTH",
"282 -2 OFFCURVE",
"374 -2 OFFCURVE",
"459 6 CURVE",
"462 93 LINE",
"220 93 LINE SMOOTH",
"174 93 OFFCURVE",
"165 116 OFFCURVE",
"170 152 CURVE SMOOTH",
"245 690 LINE"
);
}
);
width = 512;
}
);
leftKerningGroup = L;
rightKerningGroup = L;
unicode = 004C;
},
{
glyphname = Lslash;
lastChange = "2016-12-09 13:27:44 +0000";
layers = (
{
components = (
{
name = L;
}
);
layerId = "E21536AE-9819-4FE7-8A20-8865FE3C0515";
paths = (
{
closed = 1;
nodes = (
"33 343 LINE",
"31 323 LINE",
"276 425 LINE",
"279 445 LINE"
);
}
);
width = 501;
},
{
components = (
{
name = L;
transform = "{1, 0, 0, 1, 4, 0}";
}
);
layerId = "924B7471-43FB-4CAD-AF7E-45215B64D997";
paths = (
{
closed = 1;
nodes = (
"18 373 LINE",
"4 269 LINE",
"384 409 LINE",
"399 513 LINE"
);
}
);
width = 556;
},
{
components = (
{
name = L;
transform = "{1, 0, 0, 1, -1, 0}";
}
);
layerId = "77EC9CE6-E33A-4866-9665-0506F15B57B2";
paths = (
{
closed = 1;
nodes = (
"25 365 LINE",
"18 299 LINE",
"324 418 LINE",
"331 484 LINE"
);
}
);
width = 511;
}
);
leftKerningGroup = L;
rightKerningGroup = L;
unicode = 0141;
},
{
glyphname = M;
lastChange = "2016-12-09 13:27:44 +0000";
layers = (
{
anchors = (
{
name = bottom;
position = "{393, 0}";
}
);
layerId = "E21536AE-9819-4FE7-8A20-8865FE3C0515";
paths = (
{
closed = 1;
nodes = (
"734 690 LINE SMOOTH",
"728 690 OFFCURVE",
"724 688 OFFCURVE",
"721 682 CURVE",
"460 179 LINE SMOOTH",
"444 147 OFFCURVE",
"427 113 OFFCURVE",
"411 81 CURVE",
"384 81 LINE",
"376 112 OFFCURVE",
"370 144 OFFCURVE",
"362 175 CURVE SMOOTH",
"242 680 LINE",
"241 686 OFFCURVE",
"235 690 OFFCURVE",
"229 690 CURVE SMOOTH",
"188 690 LINE SMOOTH",
"179 690 OFFCURVE",
"174 685 OFFCURVE",
"172 676 CURVE SMOOTH",
"47 0 LINE",
"72 0 LINE",
"196 668 LINE",
"220 668 LINE",
"362 70 LINE SMOOTH",
"363 64 OFFCURVE",
"369 60 OFFCURVE",
"375 60 CURVE SMOOTH",
"417 60 LINE SMOOTH",
"423 60 OFFCURVE",
"427 62 OFFCURVE",
"430 68 CURVE SMOOTH",
"740 668 LINE",
"764 668 LINE",
"700 0 LINE",
"725 0 LINE",
"790 674 LINE SMOOTH",
"791 683 OFFCURVE",
"785 690 OFFCURVE",
"776 690 CURVE SMOOTH"
);
}
);
width = 855;
},
{
anchors = (
{
name = bottom;
position = "{435, 0}";
}
);
guideLines = (
{
position = "{342, 437}";
}
);
layerId = "924B7471-43FB-4CAD-AF7E-45215B64D997";
paths = (
{
closed = 1;
nodes = (
"664 690 LINE SMOOTH",
"618 690 OFFCURVE",
"590 672 OFFCURVE",
"578 627 CURVE SMOOTH",
"494 343 LINE SMOOTH",
"485 310 OFFCURVE",
"477 281 OFFCURVE",
"469 242 CURVE",
"459 242 LINE",
"462 278 OFFCURVE",
"463 311 OFFCURVE",
"461 345 CURVE SMOOTH",
"449 619 LINE SMOOTH",
"448 664 OFFCURVE",
"419 690 OFFCURVE",
"374 690 CURVE SMOOTH",
"190 690 LINE SMOOTH",
"141 690 OFFCURVE",
"120 668 OFFCURVE",
"111 619 CURVE SMOOTH",
"0 0 LINE",
"195 0 LINE",
"286 528 LINE",
"302 528 LINE",
"321 180 LINE SMOOTH",
"323 136 OFFCURVE",
"352 110 OFFCURVE",
"398 110 CURVE SMOOTH",
"508 110 LINE SMOOTH",
"555 110 OFFCURVE",
"582 128 OFFCURVE",
"595 172 CURVE SMOOTH",
"711 528 LINE",
"725 528 LINE",
"671 0 LINE",
"866 0 LINE",
"928 611 LINE SMOOTH",
"933 660 OFFCURVE",
"906 690 OFFCURVE",
"857 690 CURVE SMOOTH"
);
}
);
width = 947;
},
{
associatedMasterId = "E21536AE-9819-4FE7-8A20-8865FE3C0515";
layerId = "C3E98198-7922-4914-BFCF-75057255BF04";
name = "Light May 2 13, 21:35";
paths = (
{
closed = 1;
nodes = (
"658 690 LINE",
"429 82 LINE",
"403 82 LINE",
"174 690 LINE",
"107 690 LINE",
"107 0 LINE",
"132 0 LINE",
"132 668 LINE",
"156 668 LINE",
"385 60 LINE",
"447 60 LINE",
"676 668 LINE",
"700 668 LINE",
"700 0 LINE",
"725 0 LINE",
"725 690 LINE"
);
}
);
width = 832;
},
{
associatedMasterId = "924B7471-43FB-4CAD-AF7E-45215B64D997";
guideLines = (
{
position = "{325, 393}";
}
);
layerId = "36147422-56F6-464E-B299-FFE7F09CDFD6";
name = "Bold May 2 13, 22:06";
paths = (
{
closed = 1;
nodes = (
"580 690 LINE SMOOTH",
"541 690 OFFCURVE",
"510 664 OFFCURVE",
"504 624 CURVE SMOOTH",
"468 395 LINE SMOOTH",
"464 369 OFFCURVE",
"457 308 OFFCURVE",
"453 259 CURVE",
"439 259 LINE",
"433 307 OFFCURVE",
"428 370 OFFCURVE",
"424 395 CURVE SMOOTH",
"388 624 LINE SMOOTH",
"382 664 OFFCURVE",
"351 690 OFFCURVE",
"312 690 CURVE SMOOTH",
"130 690 LINE SMOOTH",
"82 690 OFFCURVE",
"48 656 OFFCURVE",
"48 608 CURVE SMOOTH",
"48 0 LINE",
"246 0 LINE",
"246 395 LINE SMOOTH",
"246 432 OFFCURVE",
"240 474 OFFCURVE",
"236 508 CURVE",
"254 508 LINE",
"313 164 LINE SMOOTH",
"320 125 OFFCURVE",
"350 100 OFFCURVE",
"389 100 CURVE SMOOTH",
"503 100 LINE SMOOTH",
"542 100 OFFCURVE",
"573 125 OFFCURVE",
"580 164 CURVE SMOOTH",
"639 508 LINE",
"657 508 LINE",
"653 474 OFFCURVE",
"647 432 OFFCURVE",
"647 393 CURVE SMOOTH",
"647 0 LINE",
"844 0 LINE",
"844 608 LINE SMOOTH",
"844 656 OFFCURVE",
"810 690 OFFCURVE",
"762 690 CURVE SMOOTH"
);
}
);
width = 892;
},
{
associatedMasterId = "924B7471-43FB-4CAD-AF7E-45215B64D997";
guideLines = (
{
position = "{336, 437}";
}
);
layerId = "F95D8720-C212-4334-9C20-D346B4790BA5";
name = "Bold May 2 13, 22:40";
paths = (
{
closed = 1;
nodes = (
"590 690 LINE SMOOTH",
"544 690 OFFCURVE",
"517 668 OFFCURVE",
"508 623 CURVE SMOOTH",
"455 336 LINE",
"447 336 LINE",
"392 623 LINE SMOOTH",
"383 668 OFFCURVE",
"356 690 OFFCURVE",
"311 690 CURVE SMOOTH",
"128 690 LINE SMOOTH",
"79 690 OFFCURVE",
"53 664 OFFCURVE",
"53 615 CURVE SMOOTH",
"53 0 LINE",
"251 0 LINE",
"251 528 LINE",
"257 528 LINE",
"323 226 LINE SMOOTH",
"333 182 OFFCURVE",
"360 160 OFFCURVE",
"406 160 CURVE SMOOTH",
"495 160 LINE SMOOTH",
"541 160 OFFCURVE",
"568 182 OFFCURVE",
"577 226 CURVE SMOOTH",
"642 528 LINE",
"648 528 LINE",
"652 0 LINE",
"850 0 LINE",
"850 615 LINE SMOOTH",
"850 664 OFFCURVE",
"824 690 OFFCURVE",
"775 690 CURVE SMOOTH"
);
}
);
width = 902;
},
{
anchors = (
{
name = bottom;
position = "{407, 0}";
}
);
guideLines = (
{
position = "{341, 437}";
}
);
layerId = "77EC9CE6-E33A-4866-9665-0506F15B57B2";
paths = (
{
closed = 1;
nodes = (
"678 689 LINE SMOOTH",
"652 689 OFFCURVE",
"637 678 OFFCURVE",
"627 653 CURVE SMOOTH",
"467 258 LINE SMOOTH",
"455 229 OFFCURVE",
"444 201 OFFCURVE",
"432 167 CURVE",
"415 167 LINE",
"413 199 OFFCURVE",
"411 229 OFFCURVE",
"406 261 CURVE SMOOTH",
"349 650 LINE SMOOTH",
"345 675 OFFCURVE",
"333 690 OFFCURVE",
"308 690 CURVE SMOOTH",
"191 690 LINE SMOOTH",
"162 690 OFFCURVE",
"148 676 OFFCURVE",
"143 647 CURVE SMOOTH",
"26 0 LINE",
"137 0 LINE",
"241 598 LINE",
"260 598 LINE",
"327 125 LINE SMOOTH",
"331 100 OFFCURVE",
"346 85 OFFCURVE",
"372 85 CURVE SMOOTH",
"465 85 LINE SMOOTH",
"491 85 OFFCURVE",
"506 96 OFFCURVE",
"516 121 CURVE SMOOTH",
"710 598 LINE",
"728 598 LINE",
"665 0 LINE",
"776 0 LINE",
"838 643 LINE SMOOTH",
"841 672 OFFCURVE",
"826 690 OFFCURVE",
"797 690 CURVE SMOOTH"
);
}
);
width = 884;
}
);
leftKerningGroup = M;
rightKerningGroup = M;
unicode = 004D;
},
{
glyphname = N;
lastChange = "2016-12-09 13:27:44 +0000";
layers = (
{
anchors = (
{
name = bottom;
position = "{303, 0}";
},
{
name = top;
position = "{416, 740}";
}
);
layerId = "E21536AE-9819-4FE7-8A20-8865FE3C0515";
paths = (
{
closed = 1;
nodes = (
"616 690 LINE",
"534 106 LINE",
"530 78 OFFCURVE",
"526 49 OFFCURVE",
"522 21 CURVE",
"494 21 LINE",
"483 48 OFFCURVE",
"473 75 OFFCURVE",
"462 102 CURVE",
"229 678 LINE SMOOTH",
"226 686 OFFCURVE",
"219 690 OFFCURVE",
"211 690 CURVE SMOOTH",
"173 690 LINE SMOOTH",
"163 690 OFFCURVE",
"159 686 OFFCURVE",
"157 676 CURVE SMOOTH",
"62 0 LINE",
"87 0 LINE",
"170 590 LINE",
"174 616 OFFCURVE",
"177 642 OFFCURVE",
"181 668 CURVE",
"206 668 LINE",
"215 645 OFFCURVE",
"225 624 OFFCURVE",
"234 601 CURVE",
"472 12 LINE SMOOTH",
"475 4 OFFCURVE",
"481 0 OFFCURVE",
"489 0 CURVE SMOOTH",
"530 0 LINE SMOOTH",
"540 0 OFFCURVE",
"545 4 OFFCURVE",
"546 14 CURVE SMOOTH",
"641 690 LINE"
);
}
);
width = 688;
},
{
associatedMasterId = "924B7471-43FB-4CAD-AF7E-45215B64D997";
layerId = "DB171904-BAD1-4A31-B3F5-93A52DCF5D7D";
name = "Bold May 2 13, 22:48";
paths = (
{
closed = 1;
nodes = (
"479 690 LINE",
"480 288 LINE",
"474 288 LINE",
"463 326 OFFCURVE",
"440 370 OFFCURVE",
"431 401 CURVE SMOOTH",
"361 627 LINE SMOOTH",
"347 674 OFFCURVE",
"322 690 OFFCURVE",
"277 690 CURVE SMOOTH",
"128 690 LINE SMOOTH",
"79 690 OFFCURVE",
"53 664 OFFCURVE",
"53 615 CURVE SMOOTH",
"53 0 LINE",
"257 0 LINE",
"257 402 LINE",
"263 402 LINE",
"274 361 OFFCURVE",
"291 325 OFFCURVE",
"299 300 CURVE SMOOTH",
"372 63 LINE SMOOTH",
"386 17 OFFCURVE",
"411 0 OFFCURVE",
"456 0 CURVE SMOOTH",
"608 0 LINE SMOOTH",
"657 0 OFFCURVE",
"683 26 OFFCURVE",
"683 75 CURVE SMOOTH",
"683 690 LINE"
);
}
);
width = 736;
},
{
anchors = (
{
name = bottom;
position = "{335, 0}";
},
{
name = top;
position = "{423, 735}";
}
);
layerId = "924B7471-43FB-4CAD-AF7E-45215B64D997";
paths = (
{
closed = 1;
nodes = (
"535 690 LINE",
"493 396 LINE SMOOTH",
"488 357 OFFCURVE",
"487 324 OFFCURVE",
"491 279 CURVE",
"483 279 LINE",
"471 328 OFFCURVE",
"457 365 OFFCURVE",
"441 398 CURVE SMOOTH",
"325 623 LINE SMOOTH",
"306 663 OFFCURVE",
"294 690 OFFCURVE",
"249 690 CURVE SMOOTH",
"177 690 LINE SMOOTH",
"128 690 OFFCURVE",
"105 668 OFFCURVE",
"98 619 CURVE SMOOTH",
"11 0 LINE",
"210 0 LINE",
"253 290 LINE SMOOTH",
"259 334 OFFCURVE",
"260 375 OFFCURVE",
"259 418 CURVE",
"266 418 LINE",
"275 376 OFFCURVE",
"285 336 OFFCURVE",
"301 304 CURVE SMOOTH",
"419 67 LINE SMOOTH",
"438 26 OFFCURVE",
"451 0 OFFCURVE",
"496 0 CURVE SMOOTH",
"568 0 LINE SMOOTH",
"617 0 OFFCURVE",
"640 22 OFFCURVE",
"647 71 CURVE SMOOTH",
"734 690 LINE"
);
}
);
width = 730;
},
{
associatedMasterId = "924B7471-43FB-4CAD-AF7E-45215B64D997";
layerId = "C488EA76-6F66-483C-AA76-D07CAEAF6A60";
name = "Bold May 2 13, 22:48";
paths = (
{
closed = 1;
nodes = (
"479 690 LINE",
"480 288 LINE",
"474 288 LINE",
"463 326 OFFCURVE",
"446 373 OFFCURVE",
"431 401 CURVE SMOOTH",
"311 627 LINE SMOOTH",
"289 669 OFFCURVE",
"272 690 OFFCURVE",
"227 690 CURVE SMOOTH",
"128 690 LINE SMOOTH",
"79 690 OFFCURVE",
"53 664 OFFCURVE",
"53 615 CURVE SMOOTH",
"53 0 LINE",
"257 0 LINE",
"257 402 LINE",
"263 402 LINE",
"274 361 OFFCURVE",
"287 324 OFFCURVE",
"299 300 CURVE SMOOTH",
"422 63 LINE SMOOTH",
"444 21 OFFCURVE",
"461 0 OFFCURVE",
"506 0 CURVE SMOOTH",
"608 0 LINE SMOOTH",
"657 0 OFFCURVE",
"683 26 OFFCURVE",
"683 75 CURVE SMOOTH",
"683 690 LINE"
);
}
);
width = 736;
},
{
anchors = (
{
name = bottom;
position = "{313, 0}";
},
{
name = top;
position = "{423, 732}";
}
);
layerId = "77EC9CE6-E33A-4866-9665-0506F15B57B2";
paths = (
{
closed = 1;
nodes = (
"575 690 LINE",
"511 214 LINE SMOOTH",
"506 178 OFFCURVE",
"503 143 OFFCURVE",
"501 107 CURVE",
"486 107 LINE",
"477 143 OFFCURVE",
"463 185 OFFCURVE",
"454 214 CURVE SMOOTH",
"310 654 LINE SMOOTH",
"302 677 OFFCURVE",
"291 690 OFFCURVE",
"267 690 CURVE SMOOTH",
"175 690 LINE SMOOTH",
"148 690 OFFCURVE",
"134 678 OFFCURVE",
"130 650 CURVE SMOOTH",
"39 0 LINE",
"150 0 LINE",
"216 490 LINE SMOOTH",
"220 522 OFFCURVE",
"223 554 OFFCURVE",
"224 586 CURVE",
"237 586 LINE",
"243 556 OFFCURVE",
"255 515 OFFCURVE",
"264 488 CURVE SMOOTH",
"413 36 LINE SMOOTH",
"421 13 OFFCURVE",
"432 0 OFFCURVE",
"456 0 CURVE SMOOTH",
"550 0 LINE SMOOTH",
"577 0 OFFCURVE",
"589 12 OFFCURVE",
"593 40 CURVE SMOOTH",
"685 690 LINE"
);
}
);
width = 709;
}
);
leftKerningGroup = N;
rightKerningGroup = N;
unicode = 004E;
},
{
glyphname = Eng;
lastChange = "2016-12-09 13:27:44 +0000";
layers = (
{
layerId = "E21536AE-9819-4FE7-8A20-8865FE3C0515";
paths = (
{
closed = 1;
nodes = (
"616 690 LINE",
"534 103 LINE",
"530 76 OFFCURVE",
"526 48 OFFCURVE",
"522 21 CURVE",
"494 21 LINE",
"483 48 OFFCURVE",
"473 75 OFFCURVE",
"462 102 CURVE",
"229 678 LINE SMOOTH",
"226 686 OFFCURVE",
"219 690 OFFCURVE",
"211 690 CURVE SMOOTH",
"173 690 LINE SMOOTH",
"163 690 OFFCURVE",
"159 686 OFFCURVE",
"157 676 CURVE SMOOTH",
"62 0 LINE",
"87 0 LINE",
"172 602 LINE SMOOTH",
"175 624 OFFCURVE",
"178 646 OFFCURVE",
"181 668 CURVE",
"206 668 LINE",
"215 645 OFFCURVE",
"225 624 OFFCURVE",
"234 601 CURVE SMOOTH",
"472 12 LINE SMOOTH",
"475 4 OFFCURVE",
"481 0 OFFCURVE",
"489 0 CURVE SMOOTH",
"519 0 LINE",
"505 -99 LINE SMOOTH",
"496 -166 OFFCURVE",
"457 -200 OFFCURVE",
"390 -200 CURVE SMOOTH",
"333 -200 LINE",
"329 -216 LINE",
"346 -219 OFFCURVE",
"374 -222 OFFCURVE",
"393 -222 CURVE SMOOTH",
"474 -223 OFFCURVE",
"519 -182 OFFCURVE",
"530 -102 CURVE SMOOTH",
"641 690 LINE"
);
}
);
width = 688;
},
{
background = {
paths = (
{
closed = 1;
nodes = (
"544 690 LINE",
"502 396 LINE SMOOTH",
"497 357 OFFCURVE",
"496 324 OFFCURVE",
"500 279 CURVE",
"492 279 LINE",
"480 328 OFFCURVE",
"466 365 OFFCURVE",
"450 398 CURVE SMOOTH",
"334 623 LINE SMOOTH",
"315 663 OFFCURVE",
"303 690 OFFCURVE",
"258 690 CURVE SMOOTH",
"186 690 LINE SMOOTH",
"137 690 OFFCURVE",
"114 668 OFFCURVE",
"107 619 CURVE SMOOTH",
"20 0 LINE",
"219 0 LINE",
"262 290 LINE SMOOTH",
"268 334 OFFCURVE",
"269 375 OFFCURVE",
"268 418 CURVE",
"275 418 LINE",
"284 376 OFFCURVE",
"294 336 OFFCURVE",
"310 304 CURVE SMOOTH",
"428 67 LINE SMOOTH",
"447 26 OFFCURVE",
"460 0 OFFCURVE",
"505 0 CURVE SMOOTH",
"577 0 LINE SMOOTH",
"626 0 OFFCURVE",
"649 22 OFFCURVE",
"656 71 CURVE SMOOTH",
"743 690 LINE"
);
}
);
};
layerId = "924B7471-43FB-4CAD-AF7E-45215B64D997";
paths = (
{
closed = 1;
nodes = (
"539 690 LINE",
"498 408 LINE SMOOTH",
"492 365 OFFCURVE",
"488 332 OFFCURVE",
"490 279 CURVE",
"484 279 LINE",
"472 337 OFFCURVE",
"456 370 OFFCURVE",
"444 397 CURVE SMOOTH",
"334 623 LINE SMOOTH",
"319 664 OFFCURVE",
"304 690 OFFCURVE",
"259 690 CURVE SMOOTH",
"177 690 LINE SMOOTH",
"128 690 OFFCURVE",
"105 668 OFFCURVE",
"98 619 CURVE SMOOTH",
"11 0 LINE",
"211 0 LINE",
"254 293 LINE SMOOTH",
"260 335 OFFCURVE",
"262 373 OFFCURVE",
"262 418 CURVE",
"268 418 LINE",
"277 375 OFFCURVE",
"284 341 OFFCURVE",
"301 303 CURVE SMOOTH",
"420 67 LINE SMOOTH",
"429 48 OFFCURVE",
"440 13 OFFCURVE",
"453 13 CURVE SMOOTH",
"456 13 LINE",
"451 -11 LINE SMOOTH",
"447 -30 OFFCURVE",
"426 -42 OFFCURVE",
"400 -42 CURVE SMOOTH",
"370 -42 LINE",
"333 -176 LINE",
"372 -194 OFFCURVE",
"436 -204 OFFCURVE",
"481 -204 CURVE SMOOTH",
"561 -204 OFFCURVE",
"621 -145 OFFCURVE",
"636 -37 CURVE SMOOTH",
"739 690 LINE"
);
}
);
width = 735;
},
{
background = {
paths = (
{
closed = 1;
nodes = (
"583 690 LINE",
"504 127 LINE",
"489 127 LINE",
"483 163 OFFCURVE",
"473 205 OFFCURVE",
"462 234 CURVE SMOOTH",
"304 654 LINE SMOOTH",
"295 677 OFFCURVE",
"285 690 OFFCURVE",
"261 690 CURVE SMOOTH",
"183 690 LINE SMOOTH",
"156 690 OFFCURVE",
"142 678 OFFCURVE",
"138 650 CURVE SMOOTH",
"47 0 LINE",
"158 0 LINE",
"237 566 LINE",
"250 566 LINE",
"253 536 OFFCURVE",
"262 495 OFFCURVE",
"272 468 CURVE SMOOTH",
"435 36 LINE SMOOTH",
"444 13 OFFCURVE",
"454 0 OFFCURVE",
"478 0 CURVE SMOOTH",
"558 0 LINE SMOOTH",
"585 0 OFFCURVE",
"597 12 OFFCURVE",
"601 40 CURVE SMOOTH",
"693 690 LINE"
);
}
);
};
layerId = "77EC9CE6-E33A-4866-9665-0506F15B57B2";
paths = (
{
closed = 1;
nodes = (
"574 690 LINE",
"510 239 LINE SMOOTH",
"505 202 OFFCURVE",
"501 164 OFFCURVE",
"500 127 CURVE",
"488 127 LINE",
"478 163 OFFCURVE",
"463 207 OFFCURVE",
"453 234 CURVE SMOOTH",
"297 654 LINE SMOOTH",
"288 677 OFFCURVE",
"278 690 OFFCURVE",
"253 690 CURVE SMOOTH",
"175 690 LINE SMOOTH",
"148 690 OFFCURVE",
"134 678 OFFCURVE",
"130 650 CURVE SMOOTH",
"39 0 LINE",
"150 0 LINE",
"215 465 LINE SMOOTH",
"220 499 OFFCURVE",
"224 534 OFFCURVE",
"225 568 CURVE",
"238 568 LINE",
"243 532 OFFCURVE",
"253 493 OFFCURVE",
"263 468 CURVE SMOOTH",
"430 32 LINE SMOOTH",
"436 17 OFFCURVE",
"442 -1 OFFCURVE",
"457 0 CURVE SMOOTH",
"484 1 LINE",
"475 -60 LINE SMOOTH",
"469 -106 OFFCURVE",
"438 -129 OFFCURVE",
"389 -129 CURVE SMOOTH",
"344 -129 LINE",
"325 -198 LINE",
"351 -208 OFFCURVE",
"395 -214 OFFCURVE",
"425 -214 CURVE SMOOTH",
"504 -215 OFFCURVE",
"564 -165 OFFCURVE",
"577 -73 CURVE SMOOTH",
"685 690 LINE"
);
}
);
width = 709;
}
);
leftKerningGroup = N;
rightKerningGroup = N;
unicode = 014A;
},
{
glyphname = O;
lastChange = "2016-12-09 13:27:44 +0000";
layers = (
{
anchors = (
{
name = bottom;
position = "{290, 0}";
},
{
name = ogonek;
position = "{321, 4}";
},
{
name = top;
position = "{389, 740}";
}
);
layerId = "E21536AE-9819-4FE7-8A20-8865FE3C0515";
paths = (
{
closed = 1;
nodes = (
"198 702 OFFCURVE",
"120 609 OFFCURVE",
"83 347 CURVE SMOOTH",
"46 83 OFFCURVE",
"100 -12 OFFCURVE",
"290 -12 CURVE SMOOTH",
"478 -12 OFFCURVE",
"556 81 OFFCURVE",
"592 343 CURVE SMOOTH",
"630 607 OFFCURVE",
"576 702 OFFCURVE",
"386 702 CURVE SMOOTH"
);
},
{
closed = 1;
nodes = (
"559 679 OFFCURVE",
"602 594 OFFCURVE",
"567 347 CURVE SMOOTH",
"532 98 OFFCURVE",
"463 11 OFFCURVE",
"289 11 CURVE SMOOTH",
"121 11 OFFCURVE",
"74 96 OFFCURVE",
"108 343 CURVE SMOOTH",
"143 592 OFFCURVE",
"211 679 OFFCURVE",
"386 679 CURVE SMOOTH"
);
}
);
width = 660;
},
{
anchors = (
{
name = bottom;
position = "{303, -20}";
},
{
name = ogonek;
position = "{338, -2}";
},
{
name = top;
position = "{412, 735}";
}
);
layerId = "924B7471-43FB-4CAD-AF7E-45215B64D997";
paths = (
{
closed = 1;
nodes = (
"174 704 OFFCURVE",
"80 634 OFFCURVE",
"41 353 CURVE SMOOTH",
"2 69 OFFCURVE",
"83 -14 OFFCURVE",
"322 -14 CURVE SMOOTH",
"539 -14 OFFCURVE",
"637 53 OFFCURVE",
"675 337 CURVE SMOOTH",
"713 624 OFFCURVE",
"617 704 OFFCURVE",
"389 704 CURVE SMOOTH"
);
},
{
closed = 1;
nodes = (
"458 543 OFFCURVE",
"471 510 OFFCURVE",
"447 353 CURVE SMOOTH",
"421 182 OFFCURVE",
"402 147 OFFCURVE",
"327 147 CURVE SMOOTH",
"256 147 OFFCURVE",
"243 179 OFFCURVE",
"268 337 CURVE SMOOTH",
"295 508 OFFCURVE",
"314 543 OFFCURVE",
"387 543 CURVE SMOOTH"
);
}
);
width = 700;
},
{
anchors = (
{
name = bottom;
position = "{296, 0}";
},
{
name = ogonek;
position = "{327, 4}";
},
{
name = top;
position = "{391, 732}";
}
);
layerId = "77EC9CE6-E33A-4866-9665-0506F15B57B2";
paths = (
{
closed = 1;
nodes = (
"179 703 OFFCURVE",
"98 608 OFFCURVE",
"63 349 CURVE SMOOTH",
"26 76 OFFCURVE",
"110 -13 OFFCURVE",
"300 -13 CURVE SMOOTH",
"499 -13 OFFCURVE",
"583 72 OFFCURVE",
"620 341 CURVE SMOOTH",
"657 609 OFFCURVE",
"578 703 OFFCURVE",
"387 703 CURVE SMOOTH"
);
},
{
closed = 1;
nodes = (
"503 604 OFFCURVE",
"533 552 OFFCURVE",
"504 349 CURVE SMOOTH",
"475 147 OFFCURVE",
"426 86 OFFCURVE",
"303 86 CURVE SMOOTH",
"179 86 OFFCURVE",
"152 147 OFFCURVE",
"179 341 CURVE SMOOTH",
"208 546 OFFCURVE",
"253 604 OFFCURVE",
"381 604 CURVE SMOOTH"
);
}
);
width = 668;
}
);
leftKerningGroup = C;
rightKerningGroup = O;
unicode = 004F;
},
{
glyphname = Oslash;
lastChange = "2016-12-09 13:27:44 +0000";
layers = (
{
anchors = (
{
name = top;
position = "{389, 740}";
}
);
components = (
{
name = O;
}
);
layerId = "E21536AE-9819-4FE7-8A20-8865FE3C0515";
paths = (
{
closed = 1;
nodes = (
"89 -41 LINE",
"108 -51 LINE",
"585 731 LINE",
"565 741 LINE"
);
}
);
width = 660;
},
{
anchors = (
{
name = top;
position = "{412, 735}";
}
);
components = (
{
name = O;
}
);
layerId = "924B7471-43FB-4CAD-AF7E-45215B64D997";
paths = (
{
closed = 1;
nodes = (
"87 -44 LINE",
"145 -71 LINE",
"629 730 LINE",
"571 757 LINE"
);
}
);
width = 700;
},
{
anchors = (
{
name = top;
position = "{391, 732}";
}
);
components = (
{
name = O;
}
);
layerId = "77EC9CE6-E33A-4866-9665-0506F15B57B2";
paths = (
{
closed = 1;
nodes = (
"79 -33 LINE",
"128 -63 LINE",
"608 728 LINE",
"558 757 LINE"
);
}
);
width = 668;
},
{
anchors = (
{
name = top;
position = "{415, 735}";
}
);
associatedMasterId = "924B7471-43FB-4CAD-AF7E-45215B64D997";
components = (
{
name = O;
}
);
layerId = "245AACB9-6531-4A4F-A071-0D781A5D1542";
name = "Bold Italic [144]";
paths = (
{
closed = 1;
nodes = (
"133 132 LINE",
"31 -34 LINE",
"181 -111 LINE",
"283 56 LINE"
);
},
{
closed = 1;
nodes = (
"605 591 LINE",
"691 735 LINE",
"541 811 LINE",
"455 667 LINE"
);
}
);
width = 700;
},
{
anchors = (
{
name = top;
position = "{395, 732}";
}
);
associatedMasterId = "77EC9CE6-E33A-4866-9665-0506F15B57B2";
components = (
{
name = O;
}
);
layerId = "067FC494-A1E9-4664-BE82-06ACD9650DA9";
name = "Regular Italic [144]";
paths = (
{
closed = 1;
nodes = (
"157 111 LINE",
"55 -55 LINE",
"134 -98 LINE",
"236 69 LINE"
);
},
{
closed = 1;
nodes = (
"553 609 LINE",
"639 753 LINE",
"560 795 LINE",
"474 651 LINE"
);
}
);
width = 668;
}
);
leftKerningGroup = C;
rightKerningGroup = O;
unicode = 00D8;
},
{
glyphname = OE;
lastChange = "2016-12-09 13:27:44 +0000";
layers = (
{
guideLines = (
{
angle = -70;
position = "{312, 278}";
},
{
angle = 70;
position = "{306, 401}";
}
);
layerId = "E21536AE-9819-4FE7-8A20-8865FE3C0515";
paths = (
{
closed = 1;
nodes = (
"194 702 OFFCURVE",
"120 609 OFFCURVE",
"83 347 CURVE SMOOTH",
"46 79 OFFCURVE",
"98 -12 OFFCURVE",
"298 -12 CURVE SMOOTH",
"371 -12 OFFCURVE",
"405 0 OFFCURVE",
"464 27 CURVE",
"457 46 LINE",
"398 22 OFFCURVE",
"366 11 OFFCURVE",
"300 11 CURVE SMOOTH",
"115 11 OFFCURVE",
"73 98 OFFCURVE",
"108 343 CURVE SMOOTH",
"144 596 OFFCURVE",
"212 679 OFFCURVE",
"395 679 CURVE SMOOTH",
"446 679 OFFCURVE",
"493 671 OFFCURVE",
"540 645 CURVE",
"549 666 LINE",
"498 692 OFFCURVE",
"449 702 OFFCURVE",
"396 702 CURVE SMOOTH"
);
},
{
closed = 1;
nodes = (
"481 359 LINE",
"797 360 LINE",
"800 380 LINE",
"484 381 LINE"
);
},
{
closed = 1;
nodes = (
"552 690 OFFCURVE",
"504 648 OFFCURVE",
"496 589 CURVE SMOOTH",
"428 103 LINE SMOOTH",
"419 44 OFFCURVE",
"457 0 OFFCURVE",
"517 0 CURVE SMOOTH",
"608 0 OFFCURVE",
"698 0 OFFCURVE",
"791 4 CURVE",
"792 22 LINE",
"522 22 LINE SMOOTH",
"474 22 OFFCURVE",
"446 55 OFFCURVE",
"453 103 CURVE SMOOTH",
"520 585 LINE SMOOTH",
"527 633 OFFCURVE",
"567 668 OFFCURVE",
"615 668 CURVE SMOOTH",
"883 668 LINE",
"885 686 LINE",
"793 690 OFFCURVE",
"703 690 OFFCURVE",
"610 690 CURVE SMOOTH"
);
}
);
width = 886;
},
{
guideLines = (
{
angle = -70;
position = "{364, 278}";
},
{
angle = 70;
position = "{358, 401}";
}
);
layerId = "924B7471-43FB-4CAD-AF7E-45215B64D997";
paths = (
{
closed = 1;
nodes = (
"168 704 OFFCURVE",
"80 633 OFFCURVE",
"41 353 CURVE SMOOTH",
"1 65 OFFCURVE",
"79 -14 OFFCURVE",
"316 -14 CURVE SMOOTH",
"383 -14 OFFCURVE",
"442 -3 OFFCURVE",
"501 27 CURVE",
"433 166 LINE",
"410 154 OFFCURVE",
"374 147 OFFCURVE",
"314 147 CURVE SMOOTH",
"252 147 OFFCURVE",
"246 181 OFFCURVE",
"268 337 CURVE SMOOTH",
"291 501 OFFCURVE",
"320 543 OFFCURVE",
"394 543 CURVE SMOOTH",
"439 543 OFFCURVE",
"473 541 OFFCURVE",
"495 532 CURVE",
"588 671 LINE",
"533 693 OFFCURVE",
"474 704 OFFCURVE",
"393 704 CURVE SMOOTH"
);
},
{
closed = 1;
nodes = (
"458 286 LINE",
"903 286 LINE",
"920 420 LINE",
"478 420 LINE"
);
},
{
closed = 1;
nodes = (
"557 694 OFFCURVE",
"490 634 OFFCURVE",
"477 541 CURVE SMOOTH",
"423 157 LINE SMOOTH",
"410 64 OFFCURVE",
"471 -4 OFFCURVE",
"569 -4 CURVE SMOOTH",
"679 -4 OFFCURVE",
"815 -5 OFFCURVE",
"913 8 CURVE",
"917 162 LINE",
"673 162 LINE SMOOTH",
"651 162 OFFCURVE",
"642 173 OFFCURVE",
"645 194 CURVE SMOOTH",
"687 488 LINE SMOOTH",
"690 509 OFFCURVE",
"714 528 OFFCURVE",
"737 528 CURVE SMOOTH",
"970 528 LINE",
"995 680 LINE",
"901 693 OFFCURVE",
"764 694 OFFCURVE",
"642 694 CURVE SMOOTH"
);
}
);
width = 975;
},
{
guideLines = (
{
angle = -70;
position = "{367, 278}";
},
{
angle = 70;
position = "{361, 401}";
}
);
layerId = "77EC9CE6-E33A-4866-9665-0506F15B57B2";
paths = (
{
closed = 1;
nodes = (
"182 703 OFFCURVE",
"101 620 OFFCURVE",
"63 349 CURVE SMOOTH",
"24 75 OFFCURVE",
"88 -13 OFFCURVE",
"297 -13 CURVE SMOOTH",
"372 -13 OFFCURVE",
"414 -3 OFFCURVE",
"475 25 CURVE",
"441 106 LINE",
"397 94 OFFCURVE",
"370 86 OFFCURVE",
"299 86 CURVE SMOOTH",
"179 86 OFFCURVE",
"151 146 OFFCURVE",
"179 341 CURVE SMOOTH",
"207 542 OFFCURVE",
"258 604 OFFCURVE",
"384 604 CURVE SMOOTH",
"446 604 OFFCURVE",
"472 596 OFFCURVE",
"512 588 CURVE",
"561 669 LINE",
"505 693 OFFCURVE",
"465 703 OFFCURVE",
"384 703 CURVE SMOOTH"
);
},
{
closed = 1;
nodes = (
"464 318 LINE",
"845 318 LINE",
"856 405 LINE",
"477 405 LINE"
);
},
{
closed = 1;
nodes = (
"545 692 OFFCURVE",
"492 646 OFFCURVE",
"481 567 CURVE SMOOTH",
"423 149 LINE SMOOTH",
"410 55 OFFCURVE",
"457 -2 OFFCURVE",
"573 -2 CURVE SMOOTH",
"662 -2 OFFCURVE",
"763 -2 OFFCURVE",
"847 6 CURVE",
"850 93 LINE",
"586 93 LINE SMOOTH",
"542 93 OFFCURVE",
"530 107 OFFCURVE",
"536 152 CURVE SMOOTH",
"588 534 LINE SMOOTH",
"594 582 OFFCURVE",
"610 597 OFFCURVE",
"651 597 CURVE SMOOTH",
"921 597 LINE",
"936 684 LINE",
"847 692 OFFCURVE",
"740 692 OFFCURVE",
"638 692 CURVE SMOOTH"
);
}
);
width = 931;
}
);
leftKerningGroup = C;
rightKerningGroup = AE;
unicode = 0152;
},
{
glyphname = P;
lastChange = "2016-12-09 13:27:44 +0000";
layers = (
{
layerId = "E21536AE-9819-4FE7-8A20-8865FE3C0515";
paths = (
{
closed = 1;
nodes = (
"277 698 OFFCURVE",
"230 697 OFFCURVE",
"159 690 CURVE",
"172 672 LINE",
"199 674 OFFCURVE",
"278 675 OFFCURVE",
"380 675 CURVE SMOOTH",
"506 675 OFFCURVE",
"546 639 OFFCURVE",
"526 497 CURVE SMOOTH",
"506 353 OFFCURVE",
"454 317 OFFCURVE",
"326 315 CURVE SMOOTH",
"258 315 OFFCURVE",
"184 315 OFFCURVE",
"119 315 CURVE",
"115 297 LINE",
"137 295 OFFCURVE",
"219 292 OFFCURVE",
"326 292 CURVE SMOOTH",
"471 292 OFFCURVE",
"529 335 OFFCURVE",
"552 494 CURVE SMOOTH",
"574 653 OFFCURVE",
"526 698 OFFCURVE",
"379 698 CURVE SMOOTH"
);
},
{
closed = 1;
nodes = (
"159 690 LINE",
"62 0 LINE",
"87 0 LINE",
"184 690 LINE"
);
}
);
width = 580;
},
{
layerId = "924B7471-43FB-4CAD-AF7E-45215B64D997";
paths = (
{
closed = 1;
nodes = (
"258 700 OFFCURVE",
"198 699 OFFCURVE",
"108 690 CURVE",
"110 541 LINE",
"143 545 OFFCURVE",
"244 547 OFFCURVE",
"381 547 CURVE SMOOTH",
"430 547 OFFCURVE",
"439 529 OFFCURVE",
"431 473 CURVE SMOOTH",
"420 392 OFFCURVE",
"404 385 OFFCURVE",
"353 385 CURVE SMOOTH",
"264 385 OFFCURVE",
"162 385 OFFCURVE",
"72 385 CURVE",
"66 289 LINE",
"95 267 OFFCURVE",
"237 232 OFFCURVE",
"372 232 CURVE SMOOTH",
"553 232 OFFCURVE",
"621 279 OFFCURVE",
"645 457 CURVE SMOOTH",
"670 645 OFFCURVE",
"597 700 OFFCURVE",
"386 700 CURVE SMOOTH"
);
},
{
closed = 1;
nodes = (
"108 690 LINE",
"11 0 LINE",
"227 0 LINE",
"324 690 LINE"
);
}
);
width = 638;
},
{
layerId = "77EC9CE6-E33A-4866-9665-0506F15B57B2";
paths = (
{
closed = 1;
nodes = (
"264 699 OFFCURVE",
"213 698 OFFCURVE",
"136 690 CURVE",
"141 600 LINE",
"169 603 OFFCURVE",
"256 604 OFFCURVE",
"371 604 CURVE SMOOTH",
"454 604 OFFCURVE",
"483 582 OFFCURVE",
"468 483 CURVE SMOOTH",
"453 381 OFFCURVE",
"425 353 OFFCURVE",
"323 353 CURVE SMOOTH",
"250 353 OFFCURVE",
"170 353 OFFCURVE",
"98 353 CURVE",
"92 287 LINE",
"116 276 OFFCURVE",
"227 258 OFFCURVE",
"327 258 CURVE SMOOTH",
"489 258 OFFCURVE",
"552 292 OFFCURVE",
"578 475 CURVE SMOOTH",
"601 637 OFFCURVE",
"540 699 OFFCURVE",
"375 699 CURVE SMOOTH"
);
},
{
closed = 1;
nodes = (
"136 690 LINE",
"39 0 LINE",
"150 0 LINE",
"247 690 LINE"
);
}
);
width = 591;
}
);
leftKerningGroup = B;
rightKerningGroup = P;
unicode = 0050;
},
{
glyphname = Thorn;
lastChange = "2016-12-09 13:27:44 +0000";
layers = (
{
layerId = "E21536AE-9819-4FE7-8A20-8865FE3C0515";
paths = (
{
closed = 1;
nodes = (
"258 555 OFFCURVE",
"210 554 OFFCURVE",
"139 547 CURVE",
"153 529 LINE",
"180 531 OFFCURVE",
"259 532 OFFCURVE",
"361 532 CURVE SMOOTH",
"487 532 OFFCURVE",
"526 496 OFFCURVE",
"507 354 CURVE SMOOTH",
"487 208 OFFCURVE",
"435 174 OFFCURVE",
"306 172 CURVE SMOOTH",
"238 172 OFFCURVE",
"164 172 OFFCURVE",
"99 172 CURVE",
"96 154 LINE",
"118 152 OFFCURVE",
"200 149 OFFCURVE",
"307 149 CURVE SMOOTH",
"452 149 OFFCURVE",
"510 191 OFFCURVE",
"532 350 CURVE SMOOTH",
"555 509 OFFCURVE",
"507 555 OFFCURVE",
"360 555 CURVE SMOOTH"
);
},
{
closed = 1;
nodes = (
"160 690 LINE",
"63 0 LINE",
"88 0 LINE",
"185 690 LINE"
);
}
);
width = 582;
},
{
layerId = "924B7471-43FB-4CAD-AF7E-45215B64D997";
paths = (
{
closed = 1;
nodes = (
"241 578 OFFCURVE",
"185 577 OFFCURVE",
"97 568 CURVE",
"94 419 LINE",
"127 423 OFFCURVE",
"228 425 OFFCURVE",
"364 425 CURVE SMOOTH",
"412 425 OFFCURVE",
"419 407 OFFCURVE",
"411 351 CURVE SMOOTH",
"400 270 OFFCURVE",
"385 263 OFFCURVE",
"336 263 CURVE SMOOTH",
"246 263 OFFCURVE",
"146 263 OFFCURVE",
"56 263 CURVE",
"50 167 LINE",
"79 145 OFFCURVE",
"219 110 OFFCURVE",
"355 110 CURVE SMOOTH",
"534 110 OFFCURVE",
"602 157 OFFCURVE",
"626 335 CURVE SMOOTH",
"651 523 OFFCURVE",
"575 578 OFFCURVE",
"367 578 CURVE SMOOTH"
);
},
{
closed = 1;
nodes = (
"109 690 LINE",
"12 0 LINE",
"229 0 LINE",
"326 690 LINE"
);
}
);
width = 636;
},
{
background = {
paths = (
{
closed = 1;
nodes = (
"254 573 OFFCURVE",
"203 572 OFFCURVE",
"126 564 CURVE",
"131 474 LINE",
"159 477 OFFCURVE",
"246 478 OFFCURVE",
"361 478 CURVE SMOOTH",
"444 478 OFFCURVE",
"473 456 OFFCURVE",
"458 357 CURVE SMOOTH",
"443 255 OFFCURVE",
"415 227 OFFCURVE",
"313 227 CURVE SMOOTH",
"240 227 OFFCURVE",
"160 227 OFFCURVE",
"88 227 CURVE",
"82 161 LINE",
"106 150 OFFCURVE",
"217 132 OFFCURVE",
"317 132 CURVE SMOOTH",
"479 132 OFFCURVE",
"542 166 OFFCURVE",
"568 349 CURVE SMOOTH",
"591 511 OFFCURVE",
"530 573 OFFCURVE",
"365 573 CURVE SMOOTH"
);
},
{
closed = 1;
nodes = (
"126 564 LINE",
"29 -126 LINE",
"140 -126 LINE",
"237 564 LINE"
);
}
);
};
layerId = "77EC9CE6-E33A-4866-9665-0506F15B57B2";
paths = (
{
closed = 1;
nodes = (
"245 572 OFFCURVE",
"197 571 OFFCURVE",
"119 563 CURVE",
"123 473 LINE",
"152 476 OFFCURVE",
"238 477 OFFCURVE",
"353 477 CURVE SMOOTH",
"443 477 OFFCURVE",
"463 454 OFFCURVE",
"449 352 CURVE SMOOTH",
"434 247 OFFCURVE",
"399 221 OFFCURVE",
"305 220 CURVE SMOOTH",
"232 220 OFFCURVE",
"152 220 OFFCURVE",
"80 220 CURVE",
"73 153 LINE",
"98 142 OFFCURVE",
"202 125 OFFCURVE",
"319 125 CURVE SMOOTH",
"468 125 OFFCURVE",
"535 169 OFFCURVE",
"560 344 CURVE SMOOTH",
"585 522 OFFCURVE",
"511 572 OFFCURVE",
"357 572 CURVE SMOOTH"
);
},
{
closed = 1;
nodes = (
"136 690 LINE",
"39 0 LINE",
"150 0 LINE",
"247 690 LINE"
);
}
);
width = 592;
}
);
leftKerningGroup = B;
rightKerningGroup = Thorn;
unicode = 00DE;
},
{
glyphname = Q;
lastChange = "2016-12-09 13:27:44 +0000";
layers = (
{
background = {
paths = (
{
closed = 1;
nodes = (
"196 702 OFFCURVE",
"118 609 OFFCURVE",
"81 347 CURVE SMOOTH",
"44 83 OFFCURVE",
"98 -12 OFFCURVE",
"288 -12 CURVE SMOOTH",
"476 -12 OFFCURVE",
"554 81 OFFCURVE",
"590 343 CURVE SMOOTH",
"628 607 OFFCURVE",
"574 702 OFFCURVE",
"384 702 CURVE SMOOTH"
);
},
{
closed = 1;
nodes = (
"554 679 OFFCURVE",
"600 594 OFFCURVE",
"565 347 CURVE SMOOTH",
"530 98 OFFCURVE",
"458 11 OFFCURVE",
"287 11 CURVE SMOOTH",
"118 11 OFFCURVE",
"72 96 OFFCURVE",
"106 343 CURVE SMOOTH",
"141 592 OFFCURVE",
"214 679 OFFCURVE",
"385 679 CURVE SMOOTH"
);
}
);
};
layerId = "E21536AE-9819-4FE7-8A20-8865FE3C0515";
paths = (
{
closed = 1;
nodes = (
"198 702 OFFCURVE",
"120 609 OFFCURVE",
"83 347 CURVE SMOOTH",
"46 83 OFFCURVE",
"100 -12 OFFCURVE",
"290 -12 CURVE SMOOTH",
"478 -12 OFFCURVE",
"556 81 OFFCURVE",
"592 343 CURVE SMOOTH",
"630 607 OFFCURVE",
"576 702 OFFCURVE",
"386 702 CURVE SMOOTH"
);
},
{
closed = 1;
nodes = (
"236 -65 LINE",
"288 -114 OFFCURVE",
"365 -149 OFFCURVE",
"452 -161 CURVE",
"460 -136 LINE",
"369 -121 OFFCURVE",
"304 -95 OFFCURVE",
"248 -51 CURVE"
);
},
{
closed = 1;
nodes = (
"559 679 OFFCURVE",
"602 594 OFFCURVE",
"567 347 CURVE SMOOTH",
"532 98 OFFCURVE",
"463 11 OFFCURVE",
"289 11 CURVE SMOOTH",
"121 11 OFFCURVE",
"74 96 OFFCURVE",
"108 343 CURVE SMOOTH",
"143 592 OFFCURVE",
"211 679 OFFCURVE",
"386 679 CURVE SMOOTH"
);
}
);
width = 660;
},
{
layerId = "924B7471-43FB-4CAD-AF7E-45215B64D997";
paths = (
{
closed = 1;
nodes = (
"174 704 OFFCURVE",
"80 634 OFFCURVE",
"41 353 CURVE SMOOTH",
"2 69 OFFCURVE",
"83 -14 OFFCURVE",
"322 -14 CURVE SMOOTH",
"539 -14 OFFCURVE",
"637 53 OFFCURVE",
"675 337 CURVE SMOOTH",
"713 624 OFFCURVE",
"617 704 OFFCURVE",
"389 704 CURVE SMOOTH"
);
},
{
closed = 1;
nodes = (
"181 -130 LINE",
"251 -186 OFFCURVE",
"351 -237 OFFCURVE",
"482 -276 CURVE",
"560 -101 LINE",
"435 -82 OFFCURVE",
"336 -64 OFFCURVE",
"241 -27 CURVE"
);
},
{
closed = 1;
nodes = (
"458 543 OFFCURVE",
"471 510 OFFCURVE",
"447 353 CURVE SMOOTH",
"421 182 OFFCURVE",
"402 147 OFFCURVE",
"327 147 CURVE SMOOTH",
"256 147 OFFCURVE",
"243 179 OFFCURVE",
"268 337 CURVE SMOOTH",
"295 508 OFFCURVE",
"314 543 OFFCURVE",
"387 543 CURVE SMOOTH"
);
}
);
width = 700;
},
{
layerId = "77EC9CE6-E33A-4866-9665-0506F15B57B2";
paths = (
{
closed = 1;
nodes = (
"179 703 OFFCURVE",
"98 608 OFFCURVE",
"63 349 CURVE SMOOTH",
"26 76 OFFCURVE",
"110 -13 OFFCURVE",
"300 -13 CURVE SMOOTH",
"499 -13 OFFCURVE",
"583 72 OFFCURVE",
"620 341 CURVE SMOOTH",
"657 609 OFFCURVE",
"578 703 OFFCURVE",
"387 703 CURVE SMOOTH"
);
},
{
closed = 1;
nodes = (
"198 -107 LINE",
"272 -155 OFFCURVE",
"358 -198 OFFCURVE",
"469 -227 CURVE",
"514 -116 LINE",
"413 -100 OFFCURVE",
"321 -76 OFFCURVE",
"240 -41 CURVE"
);
},
{
closed = 1;
nodes = (
"503 604 OFFCURVE",
"533 552 OFFCURVE",
"504 349 CURVE SMOOTH",
"475 147 OFFCURVE",
"426 86 OFFCURVE",
"303 86 CURVE SMOOTH",
"179 86 OFFCURVE",
"152 147 OFFCURVE",
"179 341 CURVE SMOOTH",
"208 546 OFFCURVE",
"253 604 OFFCURVE",
"381 604 CURVE SMOOTH"
);
}
);
width = 668;
}
);
leftKerningGroup = C;
rightKerningGroup = O;
unicode = 0051;
},
{
glyphname = R;
lastChange = "2016-12-09 13:27:44 +0000";
layers = (
{
anchors = (
{
name = bottom;
position = "{274, 0}";
},
{
name = top;
position = "{373, 740}";
}
);
layerId = "E21536AE-9819-4FE7-8A20-8865FE3C0515";
paths = (
{
closed = 1;
nodes = (
"277 698 OFFCURVE",
"230 697 OFFCURVE",
"159 690 CURVE",
"172 672 LINE",
"199 674 OFFCURVE",
"278 675 OFFCURVE",
"380 675 CURVE SMOOTH",
"507 675 OFFCURVE",
"546 641 OFFCURVE",
"527 506 CURVE SMOOTH",
"508 371 OFFCURVE",
"456 335 OFFCURVE",
"329 333 CURVE SMOOTH",
"122 333 LINE",
"118 315 LINE",
"152 313 OFFCURVE",
"222 312 OFFCURVE",
"338 310 CURVE SMOOTH",
"390 309 OFFCURVE",
"424 286 OFFCURVE",
"437 219 CURVE SMOOTH",
"481 0 LINE",
"508 0 LINE",
"463 220 LINE SMOOTH",
"454 266 OFFCURVE",
"433 305 OFFCURVE",
"399 316 CURVE",
"399 320 LINE",
"490 333 OFFCURVE",
"535 378 OFFCURVE",
"553 502 CURVE SMOOTH",
"574 656 OFFCURVE",
"526 698 OFFCURVE",
"379 698 CURVE SMOOTH"
);
},
{
closed = 1;
nodes = (
"159 690 LINE",
"62 0 LINE",
"87 0 LINE",
"184 690 LINE"
);
}
);
width = 606;
},
{
anchors = (
{
name = bottom;
position = "{307, 0}";
},
{
name = top;
position = "{393, 735}";
}
);
layerId = "924B7471-43FB-4CAD-AF7E-45215B64D997";
paths = (
{
closed = 1;
nodes = (
"260 700 OFFCURVE",
"198 699 OFFCURVE",
"108 690 CURVE",
"110 541 LINE",
"143 545 OFFCURVE",
"242 547 OFFCURVE",
"385 547 CURVE SMOOTH",
"434 547 OFFCURVE",
"447 532 OFFCURVE",
"440 484 CURVE SMOOTH",
"430 419 OFFCURVE",
"414 405 OFFCURVE",
"355 405 CURVE SMOOTH",
"81 405 LINE",
"65 257 LINE",
"127 253 OFFCURVE",
"180 253 OFFCURVE",
"334 252 CURVE SMOOTH",
"364 252 OFFCURVE",
"373 247 OFFCURVE",
"374 209 CURVE SMOOTH",
"392 0 LINE",
"616 0 LINE",
"590 208 LINE SMOOTH",
"582 292 OFFCURVE",
"533 314 OFFCURVE",
"499 319 CURVE",
"500 326 LINE",
"612 337 OFFCURVE",
"645 403 OFFCURVE",
"656 482 CURVE SMOOTH",
"678 647 OFFCURVE",
"579 700 OFFCURVE",
"387 700 CURVE SMOOTH"
);
},
{
closed = 1;
nodes = (
"108 690 LINE",
"11 0 LINE",
"223 0 LINE",
"320 690 LINE"
);
}
);
width = 669;
},
{
associatedMasterId = "E21536AE-9819-4FE7-8A20-8865FE3C0515";
layerId = "7086147B-0083-4503-B15D-D4FDC38FA77F";
name = "Light May 2 13, 16:37";
paths = (
{
closed = 1;
nodes = (
"107 690 LINE",
"107 0 LINE",
"132 0 LINE",
"132 690 LINE"
);
},
{
closed = 1;
nodes = (
"121 672 LINE",
"149 674 OFFCURVE",
"232 675 OFFCURVE",
"338 675 CURVE SMOOTH",
"465 675 OFFCURVE",
"511 640 OFFCURVE",
"511 504 CURVE SMOOTH",
"511 370 OFFCURVE",
"465 335 OFFCURVE",
"338 333 CURVE SMOOTH",
"266 333 OFFCURVE",
"188 333 OFFCURVE",
"120 333 CURVE",
"117 315 LINE",
"140 313 OFFCURVE",
"227 310 OFFCURVE",
"338 310 CURVE SMOOTH",
"484 310 OFFCURVE",
"537 356 OFFCURVE",
"537 504 CURVE SMOOTH",
"537 657 OFFCURVE",
"484 698 OFFCURVE",
"338 698 CURVE SMOOTH",
"230 698 OFFCURVE",
"180 697 OFFCURVE",
"107 690 CURVE"
);
},
{
closed = 1;
nodes = (
"486 221 LINE SMOOTH",
"456 307 OFFCURVE",
"404 333 OFFCURVE",
"338 333 CURVE",
"347 310 LINE",
"400 310 OFFCURVE",
"437 285 OFFCURVE",
"460 218 CURVE SMOOTH",
"534 0 LINE",
"562 0 LINE"
);
}
);
width = 616;
},
{
anchors = (
{
name = bottom;
position = "{281, 0}";
},
{
name = top;
position = "{376, 732}";
}
);
background = {
paths = (
{
closed = 1;
nodes = (
"270 699 OFFCURVE",
"219 698 OFFCURVE",
"142 690 CURVE",
"147 600 LINE",
"175 603 OFFCURVE",
"262 604 OFFCURVE",
"377 604 CURVE SMOOTH",
"465 604 OFFCURVE",
"494 582 OFFCURVE",
"479 483 CURVE SMOOTH",
"464 381 OFFCURVE",
"436 353 OFFCURVE",
"329 353 CURVE SMOOTH",
"256 353 OFFCURVE",
"176 353 OFFCURVE",
"104 353 CURVE",
"98 287 LINE",
"122 276 OFFCURVE",
"233 258 OFFCURVE",
"333 258 CURVE SMOOTH",
"500 258 OFFCURVE",
"563 292 OFFCURVE",
"589 475 CURVE SMOOTH",
"612 637 OFFCURVE",
"551 699 OFFCURVE",
"381 699 CURVE SMOOTH"
);
},
{
closed = 1;
nodes = (
"142 690 LINE",
"45 0 LINE",
"156 0 LINE",
"253 690 LINE"
);
}
);
};
layerId = "77EC9CE6-E33A-4866-9665-0506F15B57B2";
paths = (
{
closed = 1;
nodes = (
"275 699 OFFCURVE",
"213 698 OFFCURVE",
"136 690 CURVE",
"141 602 LINE",
"169 602 OFFCURVE",
"255 604 OFFCURVE",
"372 604 CURVE SMOOTH",
"461 604 OFFCURVE",
"484 578 OFFCURVE",
"472 496 CURVE SMOOTH",
"459 404 OFFCURVE",
"422 376 OFFCURVE",
"330 375 CURVE SMOOTH",
"104 375 LINE",
"91 282 LINE",
"132 281 OFFCURVE",
"196 280 OFFCURVE",
"325 280 CURVE SMOOTH",
"367 280 OFFCURVE",
"387 264 OFFCURVE",
"396 217 CURVE SMOOTH",
"436 0 LINE",
"549 0 LINE",
"506 215 LINE SMOOTH",
"494 277 OFFCURVE",
"469 306 OFFCURVE",
"429 317 CURVE",
"430 323 LINE",
"529 335 OFFCURVE",
"571 396 OFFCURVE",
"584 494 CURVE SMOOTH",
"605 652 OFFCURVE",
"517 699 OFFCURVE",
"375 699 CURVE SMOOTH"
);
},
{
closed = 1;
nodes = (
"136 690 LINE",
"39 0 LINE",
"148 0 LINE",
"245 690 LINE"
);
}
);
width = 623;
}
);
leftKerningGroup = B;
rightKerningGroup = R;
unicode = 0052;
},
{
glyphname = S;
lastChange = "2016-12-09 13:27:44 +0000";
layers = (
{
anchors = (
{
name = bottom;
position = "{238, 0}";
},
{
name = top;
position = "{337, 740}";
}
);
layerId = "E21536AE-9819-4FE7-8A20-8865FE3C0515";
paths = (
{
closed = 1;
nodes = (
"207 703 OFFCURVE",
"117 695 OFFCURVE",
"97 546 CURVE SMOOTH",
"86 454 OFFCURVE",
"111 409 OFFCURVE",
"208 367 CURVE SMOOTH",
"358 304 LINE SMOOTH",
"442 267 OFFCURVE",
"461 236 OFFCURVE",
"449 151 CURVE SMOOTH",
"429 29 OFFCURVE",
"365 14 OFFCURVE",
"241 12 CURVE SMOOTH",
"170 11 OFFCURVE",
"114 13 OFFCURVE",
"41 19 CURVE",
"37 0 LINE",
"121 -10 OFFCURVE",
"189 -11 OFFCURVE",
"227 -11 CURVE SMOOTH",
"367 -11 OFFCURVE",
"453 1 OFFCURVE",
"475 147 CURVE SMOOTH",
"488 246 OFFCURVE",
"463 285 OFFCURVE",
"359 330 CURVE SMOOTH",
"209 393 LINE SMOOTH",
"129 429 OFFCURVE",
"115 469 OFFCURVE",
"123 542 CURVE SMOOTH",
"140 675 OFFCURVE",
"219 678 OFFCURVE",
"311 678 CURVE SMOOTH",
"387 678 OFFCURVE",
"422 676 OFFCURVE",
"511 670 CURVE",
"515 689 LINE",
"456 696 OFFCURVE",
"394 700 OFFCURVE",
"329 701 CURVE SMOOTH"
);
}
);
width = 553;
},
{
anchors = (
{
name = bottom;
position = "{254, -20}";
},
{
name = top;
position = "{363, 735}";
}
);
layerId = "924B7471-43FB-4CAD-AF7E-45215B64D997";
paths = (
{
closed = 1;
nodes = (
"169 704 OFFCURVE",
"79 661 OFFCURVE",
"61 509 CURVE SMOOTH",
"51 424 OFFCURVE",
"72 354 OFFCURVE",
"188 297 CURVE SMOOTH",
"314 235 LINE SMOOTH",
"342 221 OFFCURVE",
"351 213 OFFCURVE",
"347 196 CURVE SMOOTH",
"342 175 OFFCURVE",
"323 167 OFFCURVE",
"262 167 CURVE SMOOTH",
"236 167 OFFCURVE",
"140 169 OFFCURVE",
"24 172 CURVE",
"4 21 LINE",
"109 -6 OFFCURVE",
"215 -14 OFFCURVE",
"273 -14 CURVE SMOOTH",
"472 -14 OFFCURVE",
"543 30 OFFCURVE",
"561 189 CURVE SMOOTH",
"572 291 OFFCURVE",
"549 350 OFFCURVE",
"435 404 CURVE SMOOTH",
"319 459 LINE SMOOTH",
"279 478 OFFCURVE",
"272 489 OFFCURVE",
"275 504 CURVE SMOOTH",
"280 526 OFFCURVE",
"297 532 OFFCURVE",
"343 532 CURVE SMOOTH",
"428 532 OFFCURVE",
"524 531 OFFCURVE",
"585 530 CURVE",
"604 668 LINE",
"527 694 OFFCURVE",
"434 704 OFFCURVE",
"357 704 CURVE SMOOTH"
);
}
);
width = 602;
},
{
anchors = (
{
name = bottom;
position = "{241, 0}";
},
{
name = top;
position = "{336, 732}";
}
);
layerId = "77EC9CE6-E33A-4866-9665-0506F15B57B2";
paths = (
{
closed = 1;
nodes = (
"188 702 OFFCURVE",
"105 680 OFFCURVE",
"83 523 CURVE SMOOTH",
"69 424 OFFCURVE",
"98 360 OFFCURVE",
"195 326 CURVE SMOOTH",
"328 280 LINE SMOOTH",
"381 262 OFFCURVE",
"397 251 OFFCURVE",
"389 185 CURVE SMOOTH",
"378 99 OFFCURVE",
"346 87 OFFCURVE",
"235 87 CURVE SMOOTH",
"203 87 OFFCURVE",
"169 88 OFFCURVE",
"36 91 CURVE",
"22 9 LINE",
"117 -10 OFFCURVE",
"197 -12 OFFCURVE",
"239 -12 CURVE SMOOTH",
"411 -12 OFFCURVE",
"479 21 OFFCURVE",
"500 175 CURVE SMOOTH",
"514 278 OFFCURVE",
"491 337 OFFCURVE",
"386 373 CURVE SMOOTH",
"257 417 LINE SMOOTH",
"201 436 OFFCURVE",
"185 445 OFFCURVE",
"194 512 CURVE SMOOTH",
"207 605 OFFCURVE",
"245 604 OFFCURVE",
"335 603 CURVE SMOOTH",
"401 603 OFFCURVE",
"472 601 OFFCURVE",
"531 599 CURVE",
"543 679 LINE",
"474 697 OFFCURVE",
"400 702 OFFCURVE",
"332 702 CURVE SMOOTH"
);
}
);
width = 563;
}
);
leftKerningGroup = S;
rightKerningGroup = S;
unicode = 0053;
},
{
glyphname = Germandbls;
lastChange = "2016-12-09 13:27:44 +0000";
layers = (
{
layerId = "E21536AE-9819-4FE7-8A20-8865FE3C0515";
paths = (
{
closed = 1;
nodes = (
"195 690 OFFCURVE",
"151 651 OFFCURVE",
"142 589 CURVE SMOOTH",
"59 0 LINE",
"84 0 LINE",
"166 585 LINE SMOOTH",
"174 639 OFFCURVE",
"211 668 OFFCURVE",
"261 668 CURVE SMOOTH",
"565 668 LINE",
"569 686 LINE",
"473 690 OFFCURVE",
"353 690 OFFCURVE",
"256 690 CURVE SMOOTH"
);
},
{
closed = 1;
nodes = (
"211 -9 OFFCURVE",
"282 -15 OFFCURVE",
"336 -12 CURVE SMOOTH",
"485 -3 OFFCURVE",
"543 90 OFFCURVE",
"558 190 CURVE SMOOTH",
"580 337 OFFCURVE",
"488 378 OFFCURVE",
"379 376 CURVE",
"314.806 373.884 LINE",
"315 377 LINE",
"321 381 OFFCURVE",
"331 390 OFFCURVE",
"341 401 CURVE",
"565 668 LINE",
"535 668 LINE",
"288 373 LINE",
"285 356 LINE",
"386 355 LINE SMOOTH",
"529 354 OFFCURVE",
"546 270 OFFCURVE",
"534 194 CURVE SMOOTH",
"516 80 OFFCURVE",
"446 19 OFFCURVE",
"331 11 CURVE SMOOTH",
"282 8 OFFCURVE",
"210 12 OFFCURVE",
"159 23 CURVE",
"152 5 LINE"
);
}
);
width = 585;
},
{
layerId = "77EC9CE6-E33A-4866-9665-0506F15B57B2";
paths = (
{
closed = 1;
nodes = (
"182 692 OFFCURVE",
"128 647 OFFCURVE",
"115 561 CURVE SMOOTH",
"37 0 LINE",
"148 0 LINE",
"223 534 LINE SMOOTH",
"230 585 OFFCURVE",
"245 597 OFFCURVE",
"296 597 CURVE SMOOTH",
"620 597 LINE",
"636 683 LINE",
"520 692 OFFCURVE",
"372 692 OFFCURVE",
"273 692 CURVE SMOOTH"
);
},
{
closed = 1;
nodes = (
"262 -11 OFFCURVE",
"320 -15 OFFCURVE",
"376 -13 CURVE SMOOTH",
"557 -7 OFFCURVE",
"614 86 OFFCURVE",
"634 188 CURVE SMOOTH",
"658 310 OFFCURVE",
"610 394 OFFCURVE",
"486 392 CURVE",
"450 389.494 LINE",
"450 392 LINE",
"470 405 OFFCURVE",
"486 420 OFFCURVE",
"501 439 CURVE SMOOTH",
"620 597 LINE",
"492 597 LINE",
"328 381 LINE",
"317 310 LINE",
"439 307 LINE SMOOTH",
"513 305 OFFCURVE",
"535 273 OFFCURVE",
"524 209 CURVE SMOOTH",
"512 140 OFFCURVE",
"469 93 OFFCURVE",
"370 86 CURVE SMOOTH",
"311 82 OFFCURVE",
"267 85 OFFCURVE",
"205 92 CURVE",
"192 5 LINE"
);
}
);
width = 654;
},
{
layerId = "924B7471-43FB-4CAD-AF7E-45215B64D997";
paths = (
{
closed = 1;
nodes = (
"167 694 OFFCURVE",
"98 636 OFFCURVE",
"85 541 CURVE SMOOTH",
"9 0 LINE",
"227 0 LINE",
"295 488 LINE SMOOTH",
"299 518 OFFCURVE",
"313 528 OFFCURVE",
"349 528 CURVE SMOOTH",
"669 528 LINE",
"693 679 LINE",
"571 693 OFFCURVE",
"380 694 OFFCURVE",
"261 694 CURVE SMOOTH"
);
},
{
closed = 1;
nodes = (
"327 -5 OFFCURVE",
"387 -14 OFFCURVE",
"447 -14 CURVE SMOOTH",
"590 -14 OFFCURVE",
"693 45 OFFCURVE",
"711 204 CURVE SMOOTH",
"725 331 OFFCURVE",
"665 400 OFFCURVE",
"577 398 CURVE SMOOTH",
"545.039 397.116 LINE",
"546 400 LINE",
"565 409 OFFCURVE",
"584 424 OFFCURVE",
"598 441 CURVE SMOOTH",
"669 528 LINE",
"462 528 LINE",
"360 392 LINE",
"343 263 LINE",
"452 263 LINE SMOOTH",
"502 263 OFFCURVE",
"505 238 OFFCURVE",
"500 212 CURVE SMOOTH",
"487 146 OFFCURVE",
"444 150 OFFCURVE",
"377 151 CURVE SMOOTH",
"348 151 OFFCURVE",
"314 154 OFFCURVE",
"276 157 CURVE",
"262 6 LINE"
);
}
);
width = 734;
}
);
leftKerningGroup = F;
rightKerningGroup = B;
unicode = 1E9E;
},
{
glyphname = Schwa;
lastChange = "2016-12-09 13:27:44 +0000";
layers = (
{
layerId = "E21536AE-9819-4FE7-8A20-8865FE3C0515";
paths = (
{
closed = 1;
nodes = (
"444 -12 OFFCURVE",
"521 81 OFFCURVE",
"557 339 CURVE SMOOTH",
"594 607 OFFCURVE",
"542 702 OFFCURVE",
"352 702 CURVE SMOOTH",
"276 702 OFFCURVE",
"180 691 OFFCURVE",
"128 677 CURVE",
"132 659 LINE",
"192 668 OFFCURVE",
"270 679 OFFCURVE",
"352 679 CURVE SMOOTH",
"525 679 OFFCURVE",
"569 594 OFFCURVE",
"533 343 CURVE SMOOTH",
"498 98 OFFCURVE",
"429 11 OFFCURVE",
"255 11 CURVE SMOOTH",
"147 11 OFFCURVE",
"50 42 OFFCURVE",
"86 195 CURVE SMOOTH",
"108 287 OFFCURVE",
"161 318 OFFCURVE",
"284 335 CURVE SMOOTH",
"545 372 LINE",
"549 394 LINE",
"285 357 LINE SMOOTH",
"155 339 OFFCURVE",
"89 307 OFFCURVE",
"62 197 CURVE SMOOTH",
"25 44 OFFCURVE",
"112 -12 OFFCURVE",
"256 -12 CURVE SMOOTH"
);
}
);
width = 625;
},
{
layerId = "77EC9CE6-E33A-4866-9665-0506F15B57B2";
paths = (
{
closed = 1;
nodes = (
"477 -13 OFFCURVE",
"561 72 OFFCURVE",
"598 341 CURVE SMOOTH",
"635 609 OFFCURVE",
"556 703 OFFCURVE",
"366 703 CURVE SMOOTH",
"294 703 OFFCURVE",
"212 693 OFFCURVE",
"132 660 CURVE",
"143 588 LINE",
"224 598 OFFCURVE",
"284 604 OFFCURVE",
"359 604 CURVE SMOOTH",
"481 604 OFFCURVE",
"511 552 OFFCURVE",
"482 349 CURVE SMOOTH",
"453 147 OFFCURVE",
"404 86 OFFCURVE",
"281 86 CURVE SMOOTH",
"211 86 OFFCURVE",
"157 112 OFFCURVE",
"166 197 CURVE SMOOTH",
"174 273 OFFCURVE",
"212 304 OFFCURVE",
"291 313 CURVE SMOOTH",
"547 341 LINE",
"564 437 LINE",
"300 411 LINE SMOOTH",
"150 396 OFFCURVE",
"72 351 OFFCURVE",
"52 215 CURVE SMOOTH",
"33 85 OFFCURVE",
"88 -13 OFFCURVE",
"278 -13 CURVE SMOOTH"
);
}
);
width = 646;
},
{
layerId = "924B7471-43FB-4CAD-AF7E-45215B64D997";
paths = (
{
closed = 1;
nodes = (
"528 -14 OFFCURVE",
"626 53 OFFCURVE",
"664 337 CURVE SMOOTH",
"702 624 OFFCURVE",
"606 704 OFFCURVE",
"378 704 CURVE SMOOTH",
"281 704 OFFCURVE",
"188 689 OFFCURVE",
"93 644 CURVE",
"112 528 LINE",
"192 537 OFFCURVE",
"288 543 OFFCURVE",
"342 543 CURVE SMOOTH",
"452 543 OFFCURVE",
"462 510 OFFCURVE",
"437 353 CURVE SMOOTH",
"410 182 OFFCURVE",
"391 147 OFFCURVE",
"304 147 CURVE SMOOTH",
"249 147 OFFCURVE",
"225 169 OFFCURVE",
"229 212 CURVE SMOOTH",
"234 263 OFFCURVE",
"255 283 OFFCURVE",
"306 288 CURVE SMOOTH",
"576 315 LINE",
"594 439 LINE",
"243 411 LINE SMOOTH",
"129 402 OFFCURVE",
"50 364 OFFCURVE",
"31 242 CURVE SMOOTH",
"7 90 OFFCURVE",
"72 -14 OFFCURVE",
"305 -14 CURVE SMOOTH"
);
}
);
width = 689;
}
);
leftKerningGroup = Schwa;
rightKerningGroup = Schwa;
unicode = 018F;
},
{
glyphname = T;
lastChange = "2016-12-09 13:27:44 +0000";
layers = (
{
anchors = (
{
name = bottom;
position = "{238, 0}";
},
{
name = center;
position = "{287, 345}";
},
{
name = top;
position = "{343, 740}";
}
);
layerId = "E21536AE-9819-4FE7-8A20-8865FE3C0515";
paths = (
{
closed = 1;
nodes = (
"322 690 LINE",
"225 0 LINE",
"250 0 LINE",
"347 690 LINE"
);
},
{
closed = 1;
nodes = (
"80 690 LINE",
"77 668 LINE",
"587 668 LINE",
"590 690 LINE"
);
}
);
width = 558;
},
{
anchors = (
{
name = bottom;
position = "{263, -10}";
},
{
name = center;
position = "{317, 345}";
},
{
name = top;
position = "{368, 735}";
}
);
layerId = "924B7471-43FB-4CAD-AF7E-45215B64D997";
paths = (
{
closed = 1;
nodes = (
"256 690 LINE",
"159 0 LINE",
"376 0 LINE",
"473 690 LINE"
);
},
{
closed = 1;
nodes = (
"66 690 LINE",
"43 528 LINE",
"641 528 LINE",
"664 690 LINE"
);
}
);
width = 618;
},
{
anchors = (
{
name = bottom;
position = "{244, 0}";
},
{
name = center;
position = "{297, 345}";
},
{
name = top;
position = "{351, 732}";
}
);
layerId = "77EC9CE6-E33A-4866-9665-0506F15B57B2";
paths = (
{
closed = 1;
nodes = (
"289 690 LINE",
"192 0 LINE",
"303 0 LINE",
"400 690 LINE"
);
},
{
closed = 1;
nodes = (
"75 690 LINE",
"61 591 LINE",
"602 591 LINE",
"615 690 LINE"
);
}
);
width = 579;
}
);
leftKerningGroup = T;
rightKerningGroup = T;
unicode = 0054;
},
{
glyphname = Tbar;
lastChange = "2016-12-09 13:27:44 +0000";
layers = (
{
components = (
{
name = T;
}
);
layerId = "E21536AE-9819-4FE7-8A20-8865FE3C0515";
paths = (
{
closed = 1;
nodes = (
"131 405 LINE",
"128 385 LINE",
"457 385 LINE",
"460 405 LINE"
);
}
);
width = 558;
},
{
components = (
{
name = T;
}
);
layerId = "924B7471-43FB-4CAD-AF7E-45215B64D997";
paths = (
{
closed = 1;
nodes = (
"100 381 LINE",
"87 287 LINE",
"537 287 LINE",
"550 381 LINE"
);
}
);
width = 618;
},
{
components = (
{
name = T;
}
);
layerId = "77EC9CE6-E33A-4866-9665-0506F15B57B2";
paths = (
{
closed = 1;
nodes = (
"117 394 LINE",
"109 334 LINE",
"492 334 LINE",
"500 394 LINE"
);
}
);
width = 579;
}
);
leftKerningGroup = T;
rightKerningGroup = T;
unicode = 0166;
},
{
glyphname = U;
lastChange = "2016-12-09 13:27:44 +0000";
layers = (
{
anchors = (
{
name = bottom;
position = "{290, 0}";
},
{
name = ogonek;
position = "{332, -9}";
},
{
name = top;
position = "{389, 740}";
}
);
layerId = "E21536AE-9819-4FE7-8A20-8865FE3C0515";
paths = (
{
closed = 1;
nodes = (
"600 690 LINE",
"539 256 LINE SMOOTH",
"514 77 OFFCURVE",
"447 11 OFFCURVE",
"293 11 CURVE SMOOTH",
"140 11 OFFCURVE",
"93 75 OFFCURVE",
"118 254 CURVE SMOOTH",
"179 690 LINE",
"154 690 LINE",
"93 256 LINE SMOOTH",
"66 64 OFFCURVE",
"120 -12 OFFCURVE",
"294 -12 CURVE SMOOTH",
"465 -12 OFFCURVE",
"537 62 OFFCURVE",
"564 254 CURVE SMOOTH",
"625 690 LINE"
);
}
);
width = 667;
},
{
anchors = (
{
name = bottom;
position = "{303, -20}";
},
{
name = ogonek;
position = "{354, -9}";
},
{
name = top;
position = "{412, 735}";
}
);
layerId = "924B7471-43FB-4CAD-AF7E-45215B64D997";
paths = (
{
closed = 1;
nodes = (
"493 690 LINE",
"436 289 LINE SMOOTH",
"418 178 OFFCURVE",
"403 147 OFFCURVE",
"327 147 CURVE SMOOTH",
"254 147 OFFCURVE",
"245 176 OFFCURVE",
"261 281 CURVE SMOOTH",
"319 690 LINE",
"103 690 LINE",
"45 289 LINE SMOOTH",
"16 69 OFFCURVE",
"112 -14 OFFCURVE",
"322 -14 CURVE SMOOTH",
"542 -14 OFFCURVE",
"620 61 OFFCURVE",
"651 281 CURVE SMOOTH",
"710 690 LINE"
);
}
);
width = 700;
},
{
anchors = (
{
name = bottom;
position = "{296, 0}";
},
{
name = ogonek;
position = "{330, -9}";
},
{
name = top;
position = "{391, 732}";
}
);
layerId = "77EC9CE6-E33A-4866-9665-0506F15B57B2";
paths = (
{
closed = 1;
nodes = (
"532 690 LINE",
"474 271 LINE SMOOTH",
"454 133 OFFCURVE",
"407 86 OFFCURVE",
"297 86 CURVE SMOOTH",
"191 86 OFFCURVE",
"163 129 OFFCURVE",
"182 266 CURVE SMOOTH",
"242 690 LINE",
"130 690 LINE",
"72 271 LINE SMOOTH",
"43 66 OFFCURVE",
"122 -13 OFFCURVE",
"300 -13 CURVE SMOOTH",
"474 -13 OFFCURVE",
"555 62 OFFCURVE",
"584 266 CURVE SMOOTH",
"644 690 LINE"
);
}
);
width = 663;
}
);
leftKerningGroup = U;
rightKerningGroup = U;
unicode = 0055;
},
{
glyphname = V;
lastChange = "2016-12-09 13:27:44 +0000";
layers = (
{
layerId = "E21536AE-9819-4FE7-8A20-8865FE3C0515";
paths = (
{
closed = 1;
nodes = (
"591 690 LINE",
"303 98 LINE SMOOTH",
"291 73 OFFCURVE",
"278 46 OFFCURVE",
"267 21 CURVE",
"240 21 LINE",
"236 46 OFFCURVE",
"231 70 OFFCURVE",
"226 95 CURVE SMOOTH",
"104 690 LINE",
"78 690 LINE",
"219 10 LINE SMOOTH",
"220 5 OFFCURVE",
"225 0 OFFCURVE",
"231 0 CURVE SMOOTH",
"273 0 LINE SMOOTH",
"279 0 OFFCURVE",
"284 3 OFFCURVE",
"286 8 CURVE SMOOTH",
"618 690 LINE"
);
}
);
width = 587;
},
{
layerId = "924B7471-43FB-4CAD-AF7E-45215B64D997";
paths = (
{
closed = 1;
nodes = (
"495 690 LINE",
"345 245 LINE SMOOTH",
"335 217 OFFCURVE",
"327 189 OFFCURVE",
"322 159 CURVE",
"296 159 LINE",
"297 188 OFFCURVE",
"298 219 OFFCURVE",
"296 249 CURVE SMOOTH",
"272 690 LINE",
"54 690 LINE",
"132 62 LINE SMOOTH",
"136 27 OFFCURVE",
"164 0 OFFCURVE",
"201 0 CURVE SMOOTH",
"390 0 LINE SMOOTH",
"427 0 OFFCURVE",
"453 20 OFFCURVE",
"466 54 CURVE SMOOTH",
"723 690 LINE"
);
}
);
width = 665;
},
{
background = {
paths = (
{
closed = 1;
nodes = (
"326 0 LINE SMOOTH",
"345 0 OFFCURVE",
"360 10 OFFCURVE",
"368 28 CURVE SMOOTH",
"663 690 LINE",
"546 690 LINE",
"317 153 LINE SMOOTH",
"309 135 OFFCURVE",
"299 111 OFFCURVE",
"291 93 CURVE",
"270 93 LINE",
"268 113 OFFCURVE",
"266 134 OFFCURVE",
"263 154 CURVE SMOOTH",
"188 690 LINE",
"77 690 LINE",
"188 32 LINE SMOOTH",
"191 14 OFFCURVE",
"205 0 OFFCURVE",
"224 0 CURVE SMOOTH"
);
},
{
closed = 1;
nodes = (
"499 395 LINE",
"512 485 LINE",
"162 485 LINE",
"149 395 LINE"
);
}
);
};
layerId = "77EC9CE6-E33A-4866-9665-0506F15B57B2";
paths = (
{
closed = 1;
nodes = (
"537 690 LINE",
"316 163 LINE SMOOTH",
"305 138 OFFCURVE",
"294 108 OFFCURVE",
"286 83 CURVE",
"261 83 LINE",
"259 108 OFFCURVE",
"255 134 OFFCURVE",
"252 159 CURVE SMOOTH",
"178 690 LINE",
"65 690 LINE",
"176 33 LINE SMOOTH",
"179 15 OFFCURVE",
"193 0 OFFCURVE",
"213 0 CURVE SMOOTH",
"318 0 LINE SMOOTH",
"338 0 OFFCURVE",
"352 10 OFFCURVE",
"360 29 CURVE SMOOTH",
"655 690 LINE"
);
}
);
width = 612;
}
);
leftKerningGroup = V;
rightKerningGroup = V;
unicode = 0056;
},
{
glyphname = W;
lastChange = "2016-12-09 13:27:44 +0000";
layers = (
{
anchors = (
{
name = top;
position = "{525, 740}";
}
);
background = {
paths = (
{
closed = 1;
nodes = (
"597 661 LINE",
"264 93 LINE SMOOTH",
"250 69 OFFCURVE",
"235 43 OFFCURVE",
"222 18 CURVE",
"193 20 LINE",
"191 46 OFFCURVE",
"188 70 OFFCURVE",
"185 95 CURVE SMOOTH",
"110 697 LINE",
"84 701 LINE",
"173 12 LINE SMOOTH",
"173 7 OFFCURVE",
"178 1 OFFCURVE",
"184 0 CURVE SMOOTH",
"226 -3 LINE SMOOTH",
"232 -3 OFFCURVE",
"237 -1 OFFCURVE",
"239 4 CURVE SMOOTH",
"623 659 LINE"
);
}
);
};
guideLines = (
{
position = "{456, 587}";
}
);
layerId = "E21536AE-9819-4FE7-8A20-8865FE3C0515";
paths = (
{
closed = 1;
nodes = (
"923 690 LINE",
"679 91 LINE SMOOTH",
"670 68 OFFCURVE",
"661 44 OFFCURVE",
"652 21 CURVE",
"623 21 LINE",
"620 44 OFFCURVE",
"619 67 OFFCURVE",
"616 90 CURVE SMOOTH",
"549 678 LINE SMOOTH",
"548 685 OFFCURVE",
"542 690 OFFCURVE",
"535 690 CURVE SMOOTH",
"496 690 LINE SMOOTH",
"489 690 OFFCURVE",
"485 687 OFFCURVE",
"482 680 CURVE SMOOTH",
"250 91 LINE SMOOTH",
"241 68 OFFCURVE",
"233 44 OFFCURVE",
"224 21 CURVE",
"195 21 LINE",
"192 44 OFFCURVE",
"190 67 OFFCURVE",
"187 90 CURVE SMOOTH",
"111 690 LINE",
"86 690 LINE",
"173 11 LINE SMOOTH",
"174 5 OFFCURVE",
"179 0 OFFCURVE",
"186 0 CURVE SMOOTH",
"229 0 LINE SMOOTH",
"236 0 OFFCURVE",
"241 3 OFFCURVE",
"244 10 CURVE SMOOTH",
"471 590 LINE SMOOTH",
"481 616 OFFCURVE",
"491 641 OFFCURVE",
"502 667 CURVE",
"527 667 LINE",
"531 641 OFFCURVE",
"533 618 OFFCURVE",
"536 592 CURVE SMOOTH",
"601 12 LINE SMOOTH",
"602 5 OFFCURVE",
"607 0 OFFCURVE",
"614 0 CURVE SMOOTH",
"656 0 LINE SMOOTH",
"663 0 OFFCURVE",
"668 3 OFFCURVE",
"671 9 CURVE SMOOTH",
"949 690 LINE"
);
}
);
width = 926;
},
{
anchors = (
{
name = top;
position = "{554, 735}";
}
);
guideLines = (
{
position = "{433, 447}";
}
);
layerId = "924B7471-43FB-4CAD-AF7E-45215B64D997";
paths = (
{
closed = 1;
nodes = (
"817 690 LINE",
"725 269 LINE SMOOTH",
"717 235 OFFCURVE",
"708 185 OFFCURVE",
"704 148 CURVE",
"686 148 LINE",
"687 184 OFFCURVE",
"688 226 OFFCURVE",
"688 262 CURVE SMOOTH",
"688 622 LINE SMOOTH",
"688 660 OFFCURVE",
"660 690 OFFCURVE",
"621 690 CURVE SMOOTH",
"470 690 LINE SMOOTH",
"431 690 OFFCURVE",
"403 668 OFFCURVE",
"393 630 CURVE SMOOTH",
"297 272 LINE SMOOTH",
"287 236 OFFCURVE",
"277 191 OFFCURVE",
"269 148 CURVE",
"252 148 LINE",
"255 192 OFFCURVE",
"258 229 OFFCURVE",
"260 263 CURVE SMOOTH",
"287 690 LINE",
"74 690 LINE",
"72 62 LINE SMOOTH",
"71 27 OFFCURVE",
"104 0 OFFCURVE",
"141 0 CURVE SMOOTH",
"328 0 LINE SMOOTH",
"365 0 OFFCURVE",
"395 19 OFFCURVE",
"404 54 CURVE SMOOTH",
"503 434 LINE SMOOTH",
"511 467 OFFCURVE",
"518 502 OFFCURVE",
"523 536 CURVE",
"541 536 LINE",
"539 499 OFFCURVE",
"537 469 OFFCURVE",
"536 431 CURVE SMOOTH",
"529 62 LINE SMOOTH",
"528 27 OFFCURVE",
"561 0 OFFCURVE",
"598 0 CURVE SMOOTH",
"780 0 LINE SMOOTH",
"818 0 OFFCURVE",
"847 19 OFFCURVE",
"856 54 CURVE SMOOTH",
"1030 690 LINE"
);
}
);
width = 995;
},
{
anchors = (
{
name = top;
position = "{535, 731}";
}
);
guideLines = (
{
position = "{436, 447}";
}
);
layerId = "77EC9CE6-E33A-4866-9665-0506F15B57B2";
paths = (
{
closed = 1;
nodes = (
"860 690 LINE",
"702 175 LINE SMOOTH",
"693 145 OFFCURVE",
"683 111 OFFCURVE",
"675 82 CURVE",
"652 82 LINE",
"653 111 OFFCURVE",
"651 142 OFFCURVE",
"649 172 CURVE SMOOTH",
"618 652 LINE SMOOTH",
"617 673 OFFCURVE",
"602 690 OFFCURVE",
"581 690 CURVE SMOOTH",
"466 690 LINE SMOOTH",
"443 690 OFFCURVE",
"428 677 OFFCURVE",
"421 656 CURVE SMOOTH",
"265 177 LINE SMOOTH",
"256 148 OFFCURVE",
"245 115 OFFCURVE",
"235 82 CURVE",
"213 82 LINE",
"213 115 OFFCURVE",
"213 145 OFFCURVE",
"212 173 CURVE SMOOTH",
"196 690 LINE",
"82 690 LINE",
"118 34 LINE SMOOTH",
"119 15 OFFCURVE",
"137 0 OFFCURVE",
"158 0 CURVE SMOOTH",
"276 0 LINE SMOOTH",
"297 0 OFFCURVE",
"313 11 OFFCURVE",
"320 31 CURVE SMOOTH",
"481 527 LINE SMOOTH",
"489 552 OFFCURVE",
"498 582 OFFCURVE",
"506 608 CURVE",
"526 608 LINE",
"526 582 OFFCURVE",
"529 557 OFFCURVE",
"530 531 CURVE SMOOTH",
"556 35 LINE SMOOTH",
"557 15 OFFCURVE",
"574 0 OFFCURVE",
"595 0 CURVE SMOOTH",
"714 0 LINE SMOOTH",
"735 0 OFFCURVE",
"751 10 OFFCURVE",
"758 30 CURVE SMOOTH",
"977 690 LINE"
);
}
);
width = 949;
}
);
leftKerningGroup = W;
rightKerningGroup = W;
unicode = 0057;
},
{
glyphname = X;
lastChange = "2016-12-09 13:27:44 +0000";
layers = (
{
layerId = "E21536AE-9819-4FE7-8A20-8865FE3C0515";
paths = (
{
closed = 1;
nodes = (
"106 690 LINE",
"266 361 LINE",
"-4 0 LINE",
"26 0 LINE",
"294 358 LINE",
"133 690 LINE"
);
},
{
closed = 1;
nodes = (
"286 372 LINE",
"282 350 LINE",
"334 350 LINE",
"338 372 LINE"
);
},
{
closed = 1;
nodes = (
"568 690 LINE",
"317 363 LINE",
"486 0 LINE",
"513 0 LINE",
"345 360 LINE",
"597 690 LINE"
);
}
);
width = 590;
},
{
layerId = "924B7471-43FB-4CAD-AF7E-45215B64D997";
paths = (
{
closed = 1;
nodes = (
"68 690 LINE",
"172 352 LINE",
"-46 0 LINE",
"184 0 LINE",
"372 332 LINE",
"277 690 LINE"
);
},
{
closed = 1;
nodes = (
"241 414 LINE",
"224 294 LINE",
"431 294 LINE",
"448 414 LINE"
);
},
{
closed = 1;
nodes = (
"499 690 LINE",
"321 374 LINE",
"420 0 LINE",
"633 0 LINE",
"516 352 LINE",
"720 690 LINE"
);
}
);
width = 672;
},
{
layerId = "77EC9CE6-E33A-4866-9665-0506F15B57B2";
paths = (
{
closed = 1;
nodes = (
"90 690 LINE",
"214 356 LINE",
"-23 0 LINE",
"105 0 LINE",
"325 345 LINE",
"203 690 LINE"
);
},
{
closed = 1;
nodes = (
"258 400 LINE",
"246 315 LINE",
"373 315 LINE",
"385 400 LINE"
);
},
{
closed = 1;
nodes = (
"520 690 LINE",
"309 369 LINE",
"443 0 LINE",
"557 0 LINE",
"421 356 LINE",
"642 690 LINE"
);
}
);
width = 616;
}
);
leftKerningGroup = X;
rightKerningGroup = X;
unicode = 0058;
},
{
glyphname = Y;
lastChange = "2016-12-09 13:27:44 +0000";
layers = (
{
anchors = (
{
name = bottom;
position = "{224, 0}";
},
{
name = top;
position = "{323, 740}";
}
);
guideLines = (
{
angle = 90;
position = "{259, 289}";
}
);
layerId = "E21536AE-9819-4FE7-8A20-8865FE3C0515";
paths = (
{
closed = 1;
nodes = (
"541 690 LINE",
"314 357 LINE SMOOTH",
"300 336 OFFCURVE",
"282 309 OFFCURVE",
"267 287 CURVE",
"261 287 LINE",
"252 309 OFFCURVE",
"242 334 OFFCURVE",
"233 356 CURVE SMOOTH",
"99 690 LINE",
"73 690 LINE",
"251 251 LINE",
"269 250 LINE",
"569 690 LINE"
);
},
{
closed = 1;
nodes = (
"252 281 LINE",
"212 0 LINE",
"237 0 LINE",
"277 281 LINE"
);
}
);
width = 535;
},
{
anchors = (
{
name = bottom;
position = "{278, -11}";
},
{
name = top;
position = "{383, 735}";
}
);
layerId = "924B7471-43FB-4CAD-AF7E-45215B64D997";
paths = (
{
closed = 1;
nodes = (
"484 690 LINE",
"367 467 LINE SMOOTH",
"351 434 OFFCURVE",
"340 396 OFFCURVE",
"337 368 CURVE",
"322 368 LINE",
"323 399 OFFCURVE",
"324 429 OFFCURVE",
"315 469 CURVE SMOOTH",
"262 690 LINE",
"46 690 LINE",
"209 206 LINE",
"417 205 LINE",
"715 690 LINE"
);
},
{
closed = 1;
nodes = (
"219 328 LINE",
"173 0 LINE",
"391 0 LINE",
"436 328 LINE"
);
}
);
width = 649;
},
{
anchors = (
{
name = bottom;
position = "{241, 0}";
},
{
name = top;
position = "{336, 732}";
}
);
layerId = "77EC9CE6-E33A-4866-9665-0506F15B57B2";
paths = (
{
closed = 1;
nodes = (
"503 690 LINE",
"332 416 LINE SMOOTH",
"317 392 OFFCURVE",
"300 357 OFFCURVE",
"293 331 CURVE",
"284 331 LINE",
"282 358 OFFCURVE",
"275 387 OFFCURVE",
"267 412 CURVE SMOOTH",
"174 690 LINE",
"61 690 LINE",
"227 228 LINE",
"328 228 LINE",
"624 690 LINE"
);
},
{
closed = 1;
nodes = (
"231 302 LINE",
"188 0 LINE",
"300 0 LINE",
"342 302 LINE"
);
}
);
width = 576;
}
);
leftKerningGroup = Y;
rightKerningGroup = Y;
unicode = 0059;
},
{
glyphname = Z;
lastChange = "2016-12-09 13:27:44 +0000";
layers = (
{
anchors = (
{
name = bottom;
position = "{256, 0}";
},
{
name = top;
position = "{335, 740}";
}
);
layerId = "E21536AE-9819-4FE7-8A20-8865FE3C0515";
paths = (
{
closed = 1;
nodes = (
"12 23 LINE",
"41 22 LINE",
"552 667 LINE",
"522 668 LINE"
);
},
{
closed = 1;
nodes = (
"12 23 LINE",
"8 0 LINE",
"463 0 LINE",
"467 23 LINE"
);
},
{
closed = 1;
nodes = (
"108 690 LINE",
"105 667 LINE",
"552 667 LINE",
"555 690 LINE"
);
}
);
width = 553;
},
{
anchors = (
{
name = bottom;
position = "{268, -11}";
},
{
name = top;
position = "{355, 735}";
}
);
layerId = "924B7471-43FB-4CAD-AF7E-45215B64D997";
paths = (
{
closed = 1;
nodes = (
"9 152 LINE",
"260 151 LINE",
"594 538 LINE",
"344 539 LINE"
);
},
{
closed = 1;
nodes = (
"9 152 LINE",
"-11 0 LINE",
"528 0 LINE",
"549 152 LINE"
);
},
{
closed = 1;
nodes = (
"96 690 LINE",
"75 538 LINE",
"594 538 LINE",
"615 690 LINE"
);
}
);
width = 598;
},
{
anchors = (
{
name = bottom;
position = "{253, 0}";
},
{
name = top;
position = "{336, 732}";
}
);
layerId = "77EC9CE6-E33A-4866-9665-0506F15B57B2";
paths = (
{
closed = 1;
nodes = (
"18 94 LINE",
"139 93 LINE",
"557 596 LINE",
"436 597 LINE"
);
},
{
closed = 1;
nodes = (
"18 94 LINE",
"5 0 LINE",
"481 0 LINE",
"494 94 LINE"
);
},
{
closed = 1;
nodes = (
"108 690 LINE",
"94 596 LINE",
"557 596 LINE",
"571 690 LINE"
);
}
);
width = 566;
}
);
leftKerningGroup = Z;
rightKerningGroup = Z;
unicode = 005A;
},
{
glyphname = a;
lastChange = "2016-12-09 13:27:44 +0000";
layers = (
{
anchors = (
{
name = bottom;
position = "{243, -12}";
},
{
name = ogonek;
position = "{430, 0}";
},
{
name = top;
position = "{327, 558}";
}
);
layerId = "E21536AE-9819-4FE7-8A20-8865FE3C0515";
paths = (
{
closed = 1;
nodes = (
"146 492 OFFCURVE",
"102 442 OFFCURVE",
"70 242 CURVE SMOOTH",
"42 68 OFFCURVE",
"60 -12 OFFCURVE",
"182 -12 CURVE SMOOTH",
"244 -12 OFFCURVE",
"347 31 OFFCURVE",
"432 128 CURVE",
"432 155 LINE",
"349 62 OFFCURVE",
"247 11 OFFCURVE",
"182 11 CURVE SMOOTH",
"81 11 OFFCURVE",
"69 79 OFFCURVE",
"94 238 CURVE SMOOTH",
"124 429 OFFCURVE",
"160 470 OFFCURVE",
"322 470 CURVE SMOOTH",
"374 470 OFFCURVE",
"416 466 OFFCURVE",
"488 462 CURVE",
"498 480 LINE",
"435 487 OFFCURVE",
"377 492 OFFCURVE",
"319 492 CURVE SMOOTH"
);
},
{
closed = 1;
nodes = (
"425 126 LINE",
"427 122 LINE",
"412 0 LINE",
"430 0 LINE",
"498 480 LINE",
"473 480 LINE"
);
}
);
width = 564;
},
{
anchors = (
{
name = bottom;
position = "{258, -12}";
},
{
name = ogonek;
position = "{529, 0}";
},
{
name = top;
position = "{355, 547}";
}
);
layerId = "924B7471-43FB-4CAD-AF7E-45215B64D997";
paths = (
{
closed = 1;
nodes = (
"174 514 OFFCURVE",
"62 500 OFFCURVE",
"25 264 CURVE SMOOTH",
"-2 90 OFFCURVE",
"26 -22 OFFCURVE",
"170 -12 CURVE SMOOTH",
"298 -3 OFFCURVE",
"383 75 OFFCURVE",
"414 221 CURVE",
"380 277 LINE",
"354 213 OFFCURVE",
"297 152 OFFCURVE",
"260 149 CURVE SMOOTH",
"222 146 OFFCURVE",
"224 168 OFFCURVE",
"239 270 CURVE SMOOTH",
"253 366 OFFCURVE",
"286 377 OFFCURVE",
"328 377 CURVE SMOOTH",
"375 377 OFFCURVE",
"400 377 OFFCURVE",
"434 376 CURVE",
"597 482 LINE",
"559 496 OFFCURVE",
"424 514 OFFCURVE",
"354 514 CURVE SMOOTH"
);
},
{
closed = 1;
nodes = (
"338 125 LINE",
"365 109 LINE",
"367 0 LINE",
"529 0 LINE",
"597 482 LINE",
"392 500 LINE"
);
}
);
width = 613;
},
{
associatedMasterId = "924B7471-43FB-4CAD-AF7E-45215B64D997";
layerId = "1D374528-B093-42C8-A3C7-EE07CD041260";
name = "(null) Apr 26 13, 12:09";
paths = (
{
closed = 1;
nodes = (
"216 181 LINE SMOOTH",
"216 197 OFFCURVE",
"214 223 OFFCURVE",
"246 226 CURVE SMOOTH",
"298 231 LINE",
"298 171 LINE",
"298 171 OFFCURVE",
"299 138 OFFCURVE",
"258 138 CURVE SMOOTH",
"239 138 OFFCURVE",
"216 134 OFFCURVE",
"216 175 CURVE SMOOTH"
);
},
{
closed = 1;
nodes = (
"22 143 LINE SMOOTH",
"22 87 OFFCURVE",
"60 -1 OFFCURVE",
"186 -6 CURVE SMOOTH",
"259 -9 OFFCURVE",
"289 33 OFFCURVE",
"298 54 CURVE",
"336 0 LINE",
"492 0 LINE",
"492 357 LINE",
"492 506 OFFCURVE",
"408 541 OFFCURVE",
"268 541 CURVE SMOOTH",
"169 541 OFFCURVE",
"109 534 OFFCURVE",
"40 501 CURVE",
"40 388 LINE",
"40 388 OFFCURVE",
"211 399 OFFCURVE",
"236 399 CURVE SMOOTH",
"276 399 OFFCURVE",
"298 400 OFFCURVE",
"298 347 CURVE",
"299 346 OFFCURVE",
"298 340 OFFCURVE",
"298 340 CURVE",
"298 339 OFFCURVE",
"196 340 OFFCURVE",
"196 340 CURVE SMOOTH",
"57 340 OFFCURVE",
"22 259 OFFCURVE",
"22 184 CURVE SMOOTH"
);
}
);
width = 600;
},
{
anchors = (
{
name = bottom;
position = "{239, -13}";
},
{
name = ogonek;
position = "{465, 0}";
},
{
name = top;
position = "{322, 553}";
}
);
background = {
paths = (
{
closed = 1;
nodes = (
"162 492 OFFCURVE",
"118 442 OFFCURVE",
"86 242 CURVE SMOOTH",
"58 68 OFFCURVE",
"76 -12 OFFCURVE",
"198 -12 CURVE SMOOTH",
"260 -12 OFFCURVE",
"363 31 OFFCURVE",
"448 128 CURVE",
"448 155 LINE",
"365 62 OFFCURVE",
"263 11 OFFCURVE",
"198 11 CURVE SMOOTH",
"97 11 OFFCURVE",
"85 79 OFFCURVE",
"110 238 CURVE SMOOTH",
"140 429 OFFCURVE",
"176 470 OFFCURVE",
"338 470 CURVE SMOOTH",
"390 470 OFFCURVE",
"432 466 OFFCURVE",
"504 462 CURVE",
"514 480 LINE",
"451 487 OFFCURVE",
"393 492 OFFCURVE",
"335 492 CURVE SMOOTH"
);
},
{
closed = 1;
nodes = (
"489 480 LINE",
"441 126 LINE",
"443 122 LINE",
"428 0 LINE",
"446 0 LINE",
"514 480 LINE"
);
}
);
};
layerId = "77EC9CE6-E33A-4866-9665-0506F15B57B2";
paths = (
{
closed = 1;
nodes = (
"159 502 OFFCURVE",
"75 477 OFFCURVE",
"44 251 CURVE SMOOTH",
"16 49 OFFCURVE",
"63 -12 OFFCURVE",
"177 -12 CURVE SMOOTH",
"306 -12 OFFCURVE",
"399 79 OFFCURVE",
"437 167 CURVE",
"414 212 LINE",
"331 128 OFFCURVE",
"275 81 OFFCURVE",
"200 81 CURVE SMOOTH",
"145 81 OFFCURVE",
"132 101 OFFCURVE",
"152 244 CURVE SMOOTH",
"173 395 OFFCURVE",
"195 412 OFFCURVE",
"319 412 CURVE SMOOTH",
"342 412 OFFCURVE",
"410 411 OFFCURVE",
"484 409 CURVE",
"532 474 LINE",
"462 490 OFFCURVE",
"359 502 OFFCURVE",
"285 502 CURVE SMOOTH"
);
},
{
closed = 1;
nodes = (
"373 122 LINE",
"384 113 LINE",
"380 0 LINE",
"465 0 LINE",
"532 474 LINE",
"424 474 LINE"
);
}
);
width = 576;
}
);
leftKerningGroup = a;
rightKerningGroup = a;
unicode = 0061;
},
{
glyphname = aringacute;
lastChange = "2016-12-09 13:27:44 +0000";
layers = (
{
components = (
{
name = a;
},
{
name = ring;
transform = "{1, 0, 0, 1, 135, -6}";
}
);
layerId = "E21536AE-9819-4FE7-8A20-8865FE3C0515";
paths = (
{
closed = 1;
nodes = (
"281 775 LINE",
"292 759 LINE",
"466 848 LINE",
"453 870 LINE"
);
}
);
width = 564;
},
{
components = (
{
name = a;
},
{
name = ring;
transform = "{1, 0, 0, 1, 128, 6}";
}
);
layerId = "77EC9CE6-E33A-4866-9665-0506F15B57B2";
paths = (
{
closed = 1;
nodes = (
"251 825 LINE",
"277 774 LINE",
"485 847 LINE",
"443 934 LINE"
);
}
);
width = 576;
},
{
components = (
{
name = a;
},
{
name = ring;
transform = "{1, 0, 0, 1, 154, -5}";
}
);
layerId = "924B7471-43FB-4CAD-AF7E-45215B64D997";
paths = (
{
closed = 1;
nodes = (
"237 855 LINE",
"284 769 LINE",
"550 865 LINE",
"484 1011 LINE"
);
}
);
width = 613;
}
);
leftKerningGroup = a;
rightKerningGroup = a;
unicode = 01FB;
},
{
glyphname = ae;
lastChange = "2016-12-09 13:27:44 +0000";
layers = (
{
anchors = (
{
name = top;
position = "{514, 558}";
}
);
layerId = "E21536AE-9819-4FE7-8A20-8865FE3C0515";
paths = (
{
closed = 1;
nodes = (
"147 492 OFFCURVE",
"98 443 OFFCURVE",
"67 242 CURVE SMOOTH",
"43 86 OFFCURVE",
"51 -12 OFFCURVE",
"170 -12 CURVE SMOOTH",
"247 -12 OFFCURVE",
"336 36 OFFCURVE",
"412 129 CURVE",
"412 156 LINE",
"331 59 OFFCURVE",
"241 11 OFFCURVE",
"171 11 CURVE SMOOTH",
"77 11 OFFCURVE",
"68 86 OFFCURVE",
"91 238 CURVE SMOOTH",
"119 421 OFFCURVE",
"154 470 OFFCURVE",
"314 470 CURVE SMOOTH",
"383 470 OFFCURVE",
"423 461 OFFCURVE",
"505 452 CURVE",
"525 470 LINE",
"451 483 OFFCURVE",
"385 492 OFFCURVE",
"312 492 CURVE SMOOTH"
);
},
{
closed = 1;
nodes = (
"510 492 OFFCURVE",
"437 451 OFFCURVE",
"406 244 CURVE SMOOTH",
"378 58 OFFCURVE",
"420 -12 OFFCURVE",
"578 -12 CURVE SMOOTH",
"632 -12 OFFCURVE",
"730 -4 OFFCURVE",
"767 6 CURVE",
"764 24 LINE",
"722 18 OFFCURVE",
"646 10 OFFCURVE",
"588 10 CURVE SMOOTH",
"443 10 OFFCURVE",
"401 57 OFFCURVE",
"430 241 CURVE SMOOTH",
"461 441 OFFCURVE",
"519 470 OFFCURVE",
"661 470 CURVE SMOOTH",
"751 470 OFFCURVE",
"820 455 OFFCURVE",
"791 346 CURVE SMOOTH",
"774 281 OFFCURVE",
"744 264 OFFCURVE",
"657 253 CURVE SMOOTH",
"416 226 LINE",
"413 205 LINE",
"656 231 LINE SMOOTH",
"755 242 OFFCURVE",
"796 265 OFFCURVE",
"815 344 CURVE SMOOTH",
"844 465 OFFCURVE",
"770 492 OFFCURVE",
"654 492 CURVE SMOOTH"
);
}
);
width = 872;
},
{
anchors = (
{
name = top;
position = "{525, 547}";
}
);
layerId = "924B7471-43FB-4CAD-AF7E-45215B64D997";
paths = (
{
closed = 1;
nodes = (
"151 513 OFFCURVE",
"59 500 OFFCURVE",
"25 264 CURVE SMOOTH",
"0 90 OFFCURVE",
"26 -22 OFFCURVE",
"169 -12 CURVE SMOOTH",
"296 -3 OFFCURVE",
"379 75 OFFCURVE",
"410 221 CURVE",
"376 277 LINE",
"353 213 OFFCURVE",
"295 152 OFFCURVE",
"260 149 CURVE SMOOTH",
"222 146 OFFCURVE",
"224 168 OFFCURVE",
"239 270 CURVE SMOOTH",
"253 366 OFFCURVE",
"277 377 OFFCURVE",
"326 377 CURVE SMOOTH",
"373 377 OFFCURVE",
"397 377 OFFCURVE",
"430 376 CURVE",
"594 482 LINE",
"550 497 OFFCURVE",
"436 515 OFFCURVE",
"305 514 CURVE SMOOTH"
);
},
{
closed = 1;
nodes = (
"481 514 OFFCURVE",
"376 468 OFFCURVE",
"354 254 CURVE SMOOTH",
"337 83 OFFCURVE",
"393 -12 OFFCURVE",
"618 -12 CURVE SMOOTH",
"697 -12 OFFCURVE",
"781 -1 OFFCURVE",
"851 32 CURVE",
"838 160 LINE",
"778 153 OFFCURVE",
"675 149 OFFCURVE",
"637 149 CURVE SMOOTH",
"562 149 OFFCURVE",
"552 162 OFFCURVE",
"568 261 CURVE SMOOTH",
"584 357 OFFCURVE",
"595 378 OFFCURVE",
"657 379 CURVE SMOOTH",
"695 380 OFFCURVE",
"702 371 OFFCURVE",
"700 349 CURVE SMOOTH",
"697 311 OFFCURVE",
"674 307 OFFCURVE",
"634 303 CURVE SMOOTH",
"442 283 LINE",
"429 184 LINE",
"690 204 LINE SMOOTH",
"822 214 OFFCURVE",
"887 238 OFFCURVE",
"900 328 CURVE SMOOTH",
"918 449 OFFCURVE",
"859 514 OFFCURVE",
"655 514 CURVE SMOOTH"
);
}
);
width = 916;
},
{
anchors = (
{
name = top;
position = "{510, 553}";
}
);
layerId = "77EC9CE6-E33A-4866-9665-0506F15B57B2";
paths = (
{
closed = 1;
nodes = (
"159 502 OFFCURVE",
"75 477 OFFCURVE",
"44 251 CURVE SMOOTH",
"16 49 OFFCURVE",
"63 -12 OFFCURVE",
"177 -12 CURVE SMOOTH",
"306 -12 OFFCURVE",
"399 79 OFFCURVE",
"437 167 CURVE",
"414 212 LINE",
"331 128 OFFCURVE",
"275 81 OFFCURVE",
"200 81 CURVE SMOOTH",
"148 81 OFFCURVE",
"135 101 OFFCURVE",
"155 244 CURVE SMOOTH",
"176 395 OFFCURVE",
"198 412 OFFCURVE",
"319 412 CURVE SMOOTH",
"342 412 OFFCURVE",
"410 411 OFFCURVE",
"484 409 CURVE",
"532 474 LINE",
"462 490 OFFCURVE",
"359 502 OFFCURVE",
"285 502 CURVE SMOOTH"
);
},
{
closed = 1;
nodes = (
"468 502 OFFCURVE",
"402 446 OFFCURVE",
"377 259 CURVE SMOOTH",
"353 77 OFFCURVE",
"413 -12 OFFCURVE",
"584 -12 CURVE SMOOTH",
"640 -12 OFFCURVE",
"729 -5 OFFCURVE",
"782 18 CURVE",
"775 90 LINE",
"720 83 OFFCURVE",
"650 78 OFFCURVE",
"600 78 CURVE SMOOTH",
"514 78 OFFCURVE",
"466 104 OFFCURVE",
"489 259 CURVE SMOOTH",
"508 385 OFFCURVE",
"538 412 OFFCURVE",
"632 412 CURVE SMOOTH",
"708 412 OFFCURVE",
"737 413 OFFCURVE",
"731 352 CURVE SMOOTH",
"724 297 OFFCURVE",
"698 280 OFFCURVE",
"642 277 CURVE SMOOTH",
"420 257 LINE",
"408 178 LINE",
"643 198 LINE SMOOTH",
"764 206 OFFCURVE",
"823 243 OFFCURVE",
"838 343 CURVE SMOOTH",
"850 437 OFFCURVE",
"816 502 OFFCURVE",
"650 502 CURVE SMOOTH"
);
}
);
width = 874;
}
);
leftKerningGroup = a;
rightKerningGroup = ae;
unicode = 00E6;
},
{
glyphname = b;
lastChange = "2016-12-09 13:27:44 +0000";
layers = (
{
background = {
paths = (
{
closed = 1;
nodes = (
"303 492 OFFCURVE",
"220 441 OFFCURVE",
"126 362 CURVE",
"125 339 LINE",
"230 424 OFFCURVE",
"303 469 OFFCURVE",
"374 469 CURVE SMOOTH",
"447 469 OFFCURVE",
"478 437 OFFCURVE",
"467 359 CURVE SMOOTH",
"416 0 LINE",
"440 0 LINE",
"491 360 LINE SMOOTH",
"503 446 OFFCURVE",
"464 492 OFFCURVE",
"378 492 CURVE SMOOTH"
);
},
{
closed = 1;
nodes = (
"124 480 LINE",
"56 0 LINE",
"80 0 LINE",
"128 342 LINE",
"127 360 LINE",
"142 480 LINE"
);
}
);
};
layerId = "E21536AE-9819-4FE7-8A20-8865FE3C0515";
paths = (
{
closed = 1;
nodes = (
"290 492 OFFCURVE",
"216 450 OFFCURVE",
"118 363 CURVE",
"120 342 LINE",
"223 426 OFFCURVE",
"289 469 OFFCURVE",
"354 469 CURVE SMOOTH",
"459 469 OFFCURVE",
"478 410 OFFCURVE",
"455 242 CURVE SMOOTH",
"430 60 OFFCURVE",
"396 11 OFFCURVE",
"248 11 CURVE SMOOTH",
"195 11 OFFCURVE",
"142 17 OFFCURVE",
"74 37 CURVE",
"53 19 LINE",
"122 0 OFFCURVE",
"174 -12 OFFCURVE",
"252 -12 CURVE SMOOTH",
"400 -12 OFFCURVE",
"451 30 OFFCURVE",
"480 238 CURVE SMOOTH",
"507 429 OFFCURVE",
"469 492 OFFCURVE",
"358 492 CURVE SMOOTH"
);
},
{
closed = 1;
nodes = (
"148 700 LINE",
"52 19 LINE",
"76 19 LINE",
"122 349 LINE",
"119 362 LINE",
"128 408 OFFCURVE",
"134 443 OFFCURVE",
"142 499 CURVE SMOOTH",
"172 700 LINE"
);
}
);
width = 561;
},
{
background = {
paths = (
{
closed = 1;
nodes = (
"320 512 OFFCURVE",
"232 407 OFFCURVE",
"208 367 CURVE",
"245 287 LINE",
"263 321 OFFCURVE",
"304 351 OFFCURVE",
"334 351 CURVE SMOOTH",
"361 351 OFFCURVE",
"365 327 OFFCURVE",
"352 230 CURVE SMOOTH",
"339 134 OFFCURVE",
"332 113 OFFCURVE",
"274 113 CURVE SMOOTH",
"207 113 OFFCURVE",
"179 113 OFFCURVE",
"137 113 CURVE",
"119 35 LINE",
"162 -2 OFFCURVE",
"283 -14 OFFCURVE",
"343 -14 CURVE SMOOTH",
"457 -14 OFFCURVE",
"541 29 OFFCURVE",
"567 236 CURVE SMOOTH",
"590 417 OFFCURVE",
"543 512 OFFCURVE",
"434 512 CURVE SMOOTH"
);
}
);
};
layerId = "924B7471-43FB-4CAD-AF7E-45215B64D997";
paths = (
{
closed = 1;
nodes = (
"333 514 OFFCURVE",
"252 449 OFFCURVE",
"202 367 CURVE",
"229 300 LINE",
"268 327 OFFCURVE",
"300 351 OFFCURVE",
"345 351 CURVE SMOOTH",
"377 351 OFFCURVE",
"381 334 OFFCURVE",
"370 263 CURVE SMOOTH",
"354 158 OFFCURVE",
"332 132 OFFCURVE",
"280 129 CURVE SMOOTH",
"251 127 OFFCURVE",
"198 133 OFFCURVE",
"180 141 CURVE",
"6 30 LINE",
"63 1 OFFCURVE",
"214 -12 OFFCURVE",
"290 -12 CURVE SMOOTH",
"509 -12 OFFCURVE",
"563 117 OFFCURVE",
"583 248 CURVE SMOOTH",
"610 427 OFFCURVE",
"562 514 OFFCURVE",
"439 514 CURVE SMOOTH"
);
},
{
closed = 1;
nodes = (
"100 700 LINE",
"6 30 LINE",
"216 20 LINE",
"275 422 LINE",
"257 430 LINE",
"280 482 OFFCURVE",
"290 528 OFFCURVE",
"295 577 CURVE SMOOTH",
"311 700 LINE"
);
}
);
width = 616;
},
{
background = {
components = (
{
name = n;
}
);
};
layerId = "77EC9CE6-E33A-4866-9665-0506F15B57B2";
paths = (
{
closed = 1;
nodes = (
"289 501 OFFCURVE",
"163 390 OFFCURVE",
"125 322 CURVE",
"148 277 LINE",
"231 361 OFFCURVE",
"317 408 OFFCURVE",
"362 408 CURVE SMOOTH",
"415 408 OFFCURVE",
"429 388 OFFCURVE",
"409 245 CURVE SMOOTH",
"388 92 OFFCURVE",
"366 75 OFFCURVE",
"243 75 CURVE SMOOTH",
"220 75 OFFCURVE",
"152 76 OFFCURVE",
"78 78 CURVE",
"31 24 LINE",
"100 3 OFFCURVE",
"210 -13 OFFCURVE",
"284 -13 CURVE SMOOTH",
"403 -13 OFFCURVE",
"487 12 OFFCURVE",
"518 238 CURVE SMOOTH",
"547 449 OFFCURVE",
"499 501 OFFCURVE",
"388 501 CURVE SMOOTH"
);
},
{
closed = 1;
nodes = (
"126 700 LINE",
"31 24 LINE",
"138 19 LINE",
"187 371 LINE",
"178 383 LINE",
"193 420 OFFCURVE",
"200 455 OFFCURVE",
"206 498 CURVE SMOOTH",
"233 700 LINE"
);
}
);
width = 577;
}
);
leftKerningGroup = b;
rightKerningGroup = b;
unicode = 0062;
},
{
glyphname = c;
lastChange = "2016-12-09 13:27:44 +0000";
layers = (
{
anchors = (
{
name = bottom;
position = "{243, -12}";
},
{
name = top;
position = "{301, 558}";
}
);
guideLines = (
{
angle = -70;
position = "{306, 195}";
},
{
angle = 70;
position = "{300, 271}";
},
{
angle = 90;
position = "{376, 224}";
}
);
layerId = "E21536AE-9819-4FE7-8A20-8865FE3C0515";
paths = (
{
closed = 1;
nodes = (
"155 492 OFFCURVE",
"87 426 OFFCURVE",
"61 242 CURVE SMOOTH",
"35 56 OFFCURVE",
"87 -12 OFFCURVE",
"248 -12 CURVE SMOOTH",
"295 -12 OFFCURVE",
"349 -5 OFFCURVE",
"394 5 CURVE",
"391 23 LINE",
"345 14 OFFCURVE",
"279 11 OFFCURVE",
"250 11 CURVE SMOOTH",
"106 11 OFFCURVE",
"61 62 OFFCURVE",
"86 239 CURVE SMOOTH",
"111 416 OFFCURVE",
"172 469 OFFCURVE",
"318 469 CURVE SMOOTH",
"349 469 OFFCURVE",
"407 466 OFFCURVE",
"440 457 CURVE",
"447 475 LINE",
"407 488 OFFCURVE",
"350 492 OFFCURVE",
"313 492 CURVE SMOOTH"
);
}
);
width = 475;
},
{
anchors = (
{
name = bottom;
position = "{237, -12}";
},
{
name = top;
position = "{325, 547}";
}
);
layerId = "924B7471-43FB-4CAD-AF7E-45215B64D997";
paths = (
{
closed = 1;
nodes = (
"115 514 OFFCURVE",
"46 438 OFFCURVE",
"21 259 CURVE SMOOTH",
"-6 64 OFFCURVE",
"89 -12 OFFCURVE",
"265 -12 CURVE SMOOTH",
"337 -12 OFFCURVE",
"420 -3 OFFCURVE",
"485 28 CURVE",
"470 161 LINE",
"407 154 OFFCURVE",
"342 154 OFFCURVE",
"302 154 CURVE SMOOTH",
"242 154 OFFCURVE",
"228 170 OFFCURVE",
"240 253 CURVE SMOOTH",
"250 323 OFFCURVE",
"268 347 OFFCURVE",
"328 347 CURVE SMOOTH",
"370 347 OFFCURVE",
"429 347 OFFCURVE",
"504 347 CURVE",
"532 475 LINE",
"469 502 OFFCURVE",
"380 514 OFFCURVE",
"303 514 CURVE SMOOTH"
);
}
);
width = 536;
},
{
anchors = (
{
name = bottom;
position = "{230, -12}";
},
{
name = top;
position = "{300, 553}";
}
);
background = {
paths = (
{
closed = 1;
nodes = (
"143 502 OFFCURVE",
"71 432 OFFCURVE",
"46 248 CURVE SMOOTH",
"20 59 OFFCURVE",
"88 -13 OFFCURVE",
"253 -13 CURVE SMOOTH",
"419 -13 OFFCURVE",
"492 55 OFFCURVE",
"518 240 CURVE SMOOTH",
"545 429 OFFCURVE",
"480 502 OFFCURVE",
"313 502 CURVE SMOOTH"
);
},
{
closed = 1;
nodes = (
"405 412 OFFCURVE",
"426 377 OFFCURVE",
"407 248 CURVE SMOOTH",
"389 116 OFFCURVE",
"351 77 OFFCURVE",
"253 77 CURVE SMOOTH",
"160 77 OFFCURVE",
"140 112 OFFCURVE",
"158 240 CURVE SMOOTH",
"178 379 OFFCURVE",
"217 412 OFFCURVE",
"313 412 CURVE SMOOTH"
);
}
);
};
layerId = "77EC9CE6-E33A-4866-9665-0506F15B57B2";
paths = (
{
closed = 1;
nodes = (
"137 502 OFFCURVE",
"68 436 OFFCURVE",
"41 249 CURVE SMOOTH",
"14 63 OFFCURVE",
"70 -12 OFFCURVE",
"245 -12 CURVE SMOOTH",
"302 -12 OFFCURVE",
"367 -4 OFFCURVE",
"420 15 CURVE",
"413 88 LINE",
"361 80 OFFCURVE",
"298 78 OFFCURVE",
"265 78 CURVE SMOOTH",
"163 78 OFFCURVE",
"136 100 OFFCURVE",
"153 241 CURVE SMOOTH",
"170 385 OFFCURVE",
"215 412 OFFCURVE",
"323 412 CURVE SMOOTH",
"355 412 OFFCURVE",
"407 411 OFFCURVE",
"454 409 CURVE",
"470 475 LINE",
"424 495 OFFCURVE",
"355 502 OFFCURVE",
"306 502 CURVE SMOOTH"
);
}
);
width = 488;
}
);
leftKerningGroup = c;
rightKerningGroup = c;
unicode = 0063;
},
{
glyphname = d;
lastChange = "2016-12-09 13:27:44 +0000";
layers = (
{
anchors = (
{
name = bottom;
position = "{258, -12}";
},
{
name = top;
position = "{611, 554}";
}
);
background = {
paths = (
{
closed = 1;
nodes = (
"122 480 LINE",
"71 120 LINE SMOOTH",
"58 34 OFFCURVE",
"98 -12 OFFCURVE",
"184 -12 CURVE SMOOTH",
"255 -12 OFFCURVE",
"337 37 OFFCURVE",
"429 130 CURVE",
"428 154 LINE",
"330 60 OFFCURVE",
"260 11 OFFCURVE",
"188 11 CURVE SMOOTH",
"115 11 OFFCURVE",
"84 45 OFFCURVE",
"95 121 CURVE SMOOTH",
"146 480 LINE"
);
},
{
closed = 1;
nodes = (
"472 480 LINE",
"425 147 LINE",
"426 131 LINE",
"410 0 LINE",
"428 0 LINE",
"496 480 LINE"
);
}
);
};
layerId = "E21536AE-9819-4FE7-8A20-8865FE3C0515";
paths = (
{
closed = 1;
nodes = (
"146 492 OFFCURVE",
"97 443 OFFCURVE",
"68 242 CURVE SMOOTH",
"44 78 OFFCURVE",
"57 -12 OFFCURVE",
"171 -12 CURVE SMOOTH",
"254 -12 OFFCURVE",
"348 36 OFFCURVE",
"430 128 CURVE",
"430 155 LINE",
"346 62 OFFCURVE",
"250 11 OFFCURVE",
"173 11 CURVE SMOOTH",
"79 11 OFFCURVE",
"70 87 OFFCURVE",
"92 238 CURVE SMOOTH",
"120 429 OFFCURVE",
"158 470 OFFCURVE",
"321 470 CURVE SMOOTH",
"372 470 OFFCURVE",
"414 466 OFFCURVE",
"486 462 CURVE",
"496 480 LINE",
"433 487 OFFCURVE",
"374 492 OFFCURVE",
"319 492 CURVE SMOOTH"
);
},
{
closed = 1;
nodes = (
"503 700 LINE",
"485 574 LINE SMOOTH",
"480 539 OFFCURVE",
"477 516 OFFCURVE",
"475 481 CURVE",
"469 464 LINE",
"424 137 LINE",
"425 133 LINE",
"410 0 LINE",
"428 0 LINE",
"527 700 LINE"
);
}
);
width = 562;
},
{
anchors = (
{
name = bottom;
position = "{297, -12}";
},
{
name = top;
position = "{743, 508}";
}
);
background = {
paths = (
{
closed = 1;
nodes = (
"75 500 LINE",
"23 130 LINE SMOOTH",
"10 38 OFFCURVE",
"57 -14 OFFCURVE",
"156 -14 CURVE SMOOTH",
"232 -14 OFFCURVE",
"305 28 OFFCURVE",
"390 126 CURVE",
"353 212 LINE",
"311 174 OFFCURVE",
"288 162 OFFCURVE",
"261 162 CURVE SMOOTH",
"249 162 OFFCURVE",
"239 167 OFFCURVE",
"242 189 CURVE SMOOTH",
"286 500 LINE"
);
},
{
closed = 1;
nodes = (
"378 500 LINE",
"328 146 LINE",
"347 134 LINE",
"353 0 LINE",
"517 0 LINE",
"587 500 LINE"
);
}
);
};
layerId = "924B7471-43FB-4CAD-AF7E-45215B64D997";
paths = (
{
closed = 1;
nodes = (
"132 514 OFFCURVE",
"50 465 OFFCURVE",
"24 264 CURVE SMOOTH",
"1 80 OFFCURVE",
"51 -12 OFFCURVE",
"175 -12 CURVE SMOOTH",
"283 -12 OFFCURVE",
"373 89 OFFCURVE",
"406 126 CURVE",
"368 212 LINE",
"340 190 OFFCURVE",
"306 165 OFFCURVE",
"264 162 CURVE SMOOTH",
"223 159 OFFCURVE",
"229 198 OFFCURVE",
"238 270 CURVE SMOOTH",
"251 371 OFFCURVE",
"268 387 OFFCURVE",
"327 387 CURVE SMOOTH",
"393 387 OFFCURVE",
"426 387 OFFCURVE",
"473 387 CURVE",
"492 465 LINE",
"444 500 OFFCURVE",
"345 514 OFFCURVE",
"236 514 CURVE SMOOTH"
);
},
{
closed = 1;
nodes = (
"421 700 LINE",
"403 605 LINE SMOOTH",
"397 567 OFFCURVE",
"396 533 OFFCURVE",
"396 500 CURVE",
"387 484 LINE",
"341 145 LINE",
"360 134 LINE",
"366 0 LINE",
"532 0 LINE",
"631 700 LINE"
);
}
);
width = 617;
},
{
anchors = (
{
name = bottom;
position = "{261, -13}";
},
{
name = top;
position = "{647, 523}";
}
);
background = {
paths = (
{
closed = 1;
nodes = (
"101 489 LINE",
"50 124 LINE SMOOTH",
"38 41 OFFCURVE",
"77 -13 OFFCURVE",
"168 -13 CURVE SMOOTH",
"248 -13 OFFCURVE",
"318 29 OFFCURVE",
"403 114 CURVE",
"392 188 LINE",
"309 115 OFFCURVE",
"264 79 OFFCURVE",
"206 79 CURVE SMOOTH",
"164 79 OFFCURVE",
"153 98 OFFCURVE",
"161 152 CURVE SMOOTH",
"209 489 LINE"
);
},
{
closed = 1;
nodes = (
"427 489 LINE",
"381 149 LINE",
"389 135 LINE",
"383 0 LINE",
"466 0 LINE",
"534 489 LINE"
);
}
);
};
layerId = "77EC9CE6-E33A-4866-9665-0506F15B57B2";
paths = (
{
closed = 1;
nodes = (
"158 502 OFFCURVE",
"76 476 OFFCURVE",
"44 251 CURVE SMOOTH",
"15 45 OFFCURVE",
"74 -12 OFFCURVE",
"167 -12 CURVE SMOOTH",
"300 -12 OFFCURVE",
"401 106 OFFCURVE",
"437 167 CURVE",
"414 212 LINE",
"319 122 OFFCURVE",
"268 81 OFFCURVE",
"199 81 CURVE SMOOTH",
"144 81 OFFCURVE",
"134 107 OFFCURVE",
"153 244 CURVE SMOOTH",
"174 397 OFFCURVE",
"197 414 OFFCURVE",
"315 414 CURVE SMOOTH",
"344 414 OFFCURVE",
"410 413 OFFCURVE",
"484 411 CURVE",
"512 474 LINE",
"448 490 OFFCURVE",
"349 502 OFFCURVE",
"272 502 CURVE SMOOTH"
);
},
{
closed = 1;
nodes = (
"455 700 LINE",
"438 582 LINE SMOOTH",
"433 544 OFFCURVE",
"431 512 OFFCURVE",
"431 477 CURVE",
"421 461 LINE",
"373 110 LINE",
"384 101 LINE",
"380 0 LINE",
"465 0 LINE",
"563 700 LINE"
);
}
);
width = 576;
}
);
leftKerningGroup = d;
rightKerningGroup = H;
unicode = 0064;
},
{
glyphname = eth;
lastChange = "2016-12-09 13:27:44 +0000";
layers = (
{
layerId = "E21536AE-9819-4FE7-8A20-8865FE3C0515";
paths = (
{
closed = 1;
nodes = (
"170 680 LINE",
"272 680 OFFCURVE",
"492 653 OFFCURVE",
"441 288 CURVE SMOOTH",
"418 123 OFFCURVE",
"380 10 OFFCURVE",
"227 10 CURVE SMOOTH",
"111 10 OFFCURVE",
"62 66 OFFCURVE",
"83 218 CURVE SMOOTH",
"99 336 OFFCURVE",
"149 424 OFFCURVE",
"279 424 CURVE SMOOTH",
"341 424 OFFCURVE",
"414 411 OFFCURVE",
"459 323 CURVE",
"466 338 LINE",
"421 432 OFFCURVE",
"341 446 OFFCURVE",
"283 446 CURVE SMOOTH",
"141 446 OFFCURVE",
"78 359 OFFCURVE",
"59 223 CURVE SMOOTH",
"35 58 OFFCURVE",
"91 -12 OFFCURVE",
"228 -12 CURVE SMOOTH",
"409 -12 OFFCURVE",
"442 129 OFFCURVE",
"463 277 CURVE SMOOTH",
"516 654 OFFCURVE",
"302 700 OFFCURVE",
"176 698 CURVE"
);
},
{
closed = 1;
nodes = (
"260 566 LINE",
"268 549 LINE",
"478 681 LINE",
"469 698 LINE"
);
}
);
width = 545;
},
{
layerId = "924B7471-43FB-4CAD-AF7E-45215B64D997";
paths = (
{
closed = 1;
nodes = (
"175 568 LINE",
"380 583 OFFCURVE",
"384 505 OFFCURVE",
"355 298 CURVE SMOOTH",
"337 170 OFFCURVE",
"327 130 OFFCURVE",
"276 130 CURVE SMOOTH",
"229 130 OFFCURVE",
"227 150 OFFCURVE",
"238 220 CURVE SMOOTH",
"249 290 OFFCURVE",
"263 321 OFFCURVE",
"315 321 CURVE SMOOTH",
"363 321 OFFCURVE",
"404 291 OFFCURVE",
"428 244 CURVE",
"438 322 LINE",
"413 439 OFFCURVE",
"320 453 OFFCURVE",
"257 453 CURVE SMOOTH",
"121 453 OFFCURVE",
"40 388 OFFCURVE",
"18 222 CURVE SMOOTH",
"-4 58 OFFCURVE",
"95 -14 OFFCURVE",
"261 -14 CURVE SMOOTH",
"448 -14 OFFCURVE",
"545 58 OFFCURVE",
"573 283 CURVE SMOOTH",
"610 584 OFFCURVE",
"498 717 OFFCURVE",
"198 698 CURVE"
);
},
{
closed = 1;
nodes = (
"224 524 LINE",
"272 463 LINE",
"536 673 LINE",
"488 734 LINE"
);
}
);
width = 604;
},
{
layerId = "77EC9CE6-E33A-4866-9665-0506F15B57B2";
paths = (
{
closed = 1;
nodes = (
"167 620 LINE",
"325 624 OFFCURVE",
"427 578 OFFCURVE",
"392 292 CURVE SMOOTH",
"373 136 OFFCURVE",
"334 77 OFFCURVE",
"237 77 CURVE SMOOTH",
"161 77 OFFCURVE",
"135 113 OFFCURVE",
"150 215 CURVE SMOOTH",
"164 311 OFFCURVE",
"199 359 OFFCURVE",
"290 359 CURVE SMOOTH",
"342 359 OFFCURVE",
"388 343 OFFCURVE",
"434 302 CURVE",
"442 345 LINE",
"394 434 OFFCURVE",
"324 449 OFFCURVE",
"264 449 CURVE SMOOTH",
"121 449 OFFCURVE",
"56 363 OFFCURVE",
"38 222 CURVE SMOOTH",
"18 65 OFFCURVE",
"75 -13 OFFCURVE",
"231 -13 CURVE SMOOTH",
"411 -13 OFFCURVE",
"478 90 OFFCURVE",
"502 280 CURVE SMOOTH",
"542 604 OFFCURVE",
"393 706 OFFCURVE",
"183 698 CURVE"
);
},
{
closed = 1;
nodes = (
"238 547 LINE",
"267 506 LINE",
"498 672 LINE",
"468 714 LINE"
);
}
);
width = 559;
},
{
associatedMasterId = "924B7471-43FB-4CAD-AF7E-45215B64D997";
layerId = "EEFE7781-5EB2-4FF4-8C07-D4BE204CA877";
name = "Bold Italic [144]";
paths = (
{
closed = 1;
nodes = (
"175 568 LINE",
"380 583 OFFCURVE",
"384 505 OFFCURVE",
"355 298 CURVE SMOOTH",
"337 170 OFFCURVE",
"327 130 OFFCURVE",
"276 130 CURVE SMOOTH",
"229 130 OFFCURVE",
"227 150 OFFCURVE",
"238 220 CURVE SMOOTH",
"249 290 OFFCURVE",
"263 321 OFFCURVE",
"315 321 CURVE SMOOTH",
"363 321 OFFCURVE",
"404 291 OFFCURVE",
"428 244 CURVE",
"438 322 LINE",
"413 439 OFFCURVE",
"320 453 OFFCURVE",
"257 453 CURVE SMOOTH",
"121 453 OFFCURVE",
"40 388 OFFCURVE",
"18 222 CURVE SMOOTH",
"-4 58 OFFCURVE",
"95 -14 OFFCURVE",
"261 -14 CURVE SMOOTH",
"448 -14 OFFCURVE",
"545 58 OFFCURVE",
"573 283 CURVE SMOOTH",
"610 584 OFFCURVE",
"498 717 OFFCURVE",
"198 698 CURVE"
);
},
{
closed = 1;
nodes = (
"340 588 LINE",
"443 477 LINE",
"622 633 LINE",
"519 746 LINE"
);
}
);
width = 603;
},
{
associatedMasterId = "77EC9CE6-E33A-4866-9665-0506F15B57B2";
layerId = "ABE8CABF-050F-4477-AB08-61B5F8B7C187";
name = "Regular Italic [144]";
paths = (
{
closed = 1;
nodes = (
"167 620 LINE",
"325 624 OFFCURVE",
"427 578 OFFCURVE",
"392 292 CURVE SMOOTH",
"373 136 OFFCURVE",
"334 77 OFFCURVE",
"237 77 CURVE SMOOTH",
"161 77 OFFCURVE",
"135 113 OFFCURVE",
"150 215 CURVE SMOOTH",
"164 311 OFFCURVE",
"199 359 OFFCURVE",
"290 359 CURVE SMOOTH",
"342 359 OFFCURVE",
"388 343 OFFCURVE",
"434 302 CURVE",
"442 345 LINE",
"394 434 OFFCURVE",
"324 449 OFFCURVE",
"264 449 CURVE SMOOTH",
"121 449 OFFCURVE",
"56 363 OFFCURVE",
"38 222 CURVE SMOOTH",
"18 65 OFFCURVE",
"75 -13 OFFCURVE",
"231 -13 CURVE SMOOTH",
"411 -13 OFFCURVE",
"478 90 OFFCURVE",
"502 280 CURVE SMOOTH",
"542 604 OFFCURVE",
"393 706 OFFCURVE",
"183 698 CURVE"
);
},
{
closed = 1;
nodes = (
"325 614 LINE",
"374 550 LINE",
"527 677 LINE",
"477 742 LINE"
);
}
);
width = 559;
}
);
leftKerningGroup = eth;
rightKerningGroup = eth;
unicode = 00F0;
},
{
glyphname = dcaron;
lastChange = "2016-12-09 13:27:44 +0000";
layers = (
{
components = (
{
name = d;
},
{
name = caron.alt;
transform = "{1, 0, 0, 1, 468, 0}";
}
);
layerId = "E21536AE-9819-4FE7-8A20-8865FE3C0515";
width = 562;
},
{
background = {
paths = (
{
closed = 1;
nodes = (
"734.537 698.935 LINE SMOOTH",
"689.087 698.935 OFFCURVE",
"666.362 686.919 OFFCURVE",
"659.09 645.614 CURVE SMOOTH",
"652.727 611.068 LINE SMOOTH",
"648.182 578.024 OFFCURVE",
"659.999 562.253 OFFCURVE",
"699.995 563.004 CURVE",
"689.087 529.209 OFFCURVE",
"679.088 493.912 OFFCURVE",
"660.908 460.117 CURVE",
"738.173 436.085 LINE",
"777.26 474.386 OFFCURVE",
"810.893 541.225 OFFCURVE",
"819.983 593.795 CURVE SMOOTH",
"828.164 641.859 LINE SMOOTH",
"834.527 683.164 OFFCURVE",
"815.438 698.935 OFFCURVE",
"767.261 698.935 CURVE SMOOTH"
);
}
);
};
components = (
{
name = d;
},
{
name = caron.alt;
transform = "{1, 0, 0, 1, 509, -18}";
}
);
layerId = "924B7471-43FB-4CAD-AF7E-45215B64D997";
width = 617;
},
{
components = (
{
name = d;
},
{
name = caron.alt;
transform = "{1, 0, 0, 1, 460, -17}";
}
);
layerId = "77EC9CE6-E33A-4866-9665-0506F15B57B2";
width = 576;
}
);
leftKerningGroup = d;
leftMetricsKey = d;
rightKerningGroup = M;
unicode = 010F;
},
{
glyphname = dcroat;
lastChange = "2016-12-09 13:27:44 +0000";
layers = (
{
components = (
{
name = d;
}
);
layerId = "E21536AE-9819-4FE7-8A20-8865FE3C0515";
paths = (
{
closed = 1;
nodes = (
"317 610 LINE",
"314 590 LINE",
"589 590 LINE",
"592 610 LINE"
);
}
);
width = 562;
},
{
components = (
{
name = d;
}
);
layerId = "924B7471-43FB-4CAD-AF7E-45215B64D997";
paths = (
{
closed = 1;
nodes = (
"314 631 LINE",
"302 547 LINE",
"673 547 LINE",
"685 631 LINE"
);
}
);
width = 622;
},
{
components = (
{
name = d;
}
);
layerId = "77EC9CE6-E33A-4866-9665-0506F15B57B2";
paths = (
{
closed = 1;
nodes = (
"306 629 LINE",
"298 571 LINE",
"616 571 LINE",
"624 629 LINE"
);
}
);
width = 576;
}
);
leftKerningGroup = d;
rightKerningGroup = H;
unicode = 0111;
},
{
glyphname = e;
lastChange = "2016-12-09 13:27:44 +0000";
layers = (
{
anchors = (
{
name = bottom;
position = "{243, -12}";
},
{
name = ogonek;
position = "{419, 8}";
},
{
name = top;
position = "{315, 558}";
}
);
layerId = "E21536AE-9819-4FE7-8A20-8865FE3C0515";
paths = (
{
closed = 1;
nodes = (
"166 492 OFFCURVE",
"93 451 OFFCURVE",
"62 244 CURVE SMOOTH",
"34 58 OFFCURVE",
"76 -12 OFFCURVE",
"234 -12 CURVE SMOOTH",
"288 -12 OFFCURVE",
"386 -4 OFFCURVE",
"423 6 CURVE",
"420 24 LINE",
"378 18 OFFCURVE",
"302 10 OFFCURVE",
"244 10 CURVE SMOOTH",
"99 10 OFFCURVE",
"57 57 OFFCURVE",
"86 241 CURVE SMOOTH",
"117 441 OFFCURVE",
"175 470 OFFCURVE",
"317 470 CURVE SMOOTH",
"407 470 OFFCURVE",
"476 455 OFFCURVE",
"447 346 CURVE SMOOTH",
"430 281 OFFCURVE",
"400 264 OFFCURVE",
"313 253 CURVE SMOOTH",
"72 226 LINE",
"69 205 LINE",
"312 231 LINE SMOOTH",
"411 242 OFFCURVE",
"452 265 OFFCURVE",
"471 344 CURVE SMOOTH",
"500 465 OFFCURVE",
"426 492 OFFCURVE",
"310 492 CURVE SMOOTH"
);
}
);
width = 526;
},
{
anchors = (
{
name = bottom;
position = "{278, -12}";
},
{
name = ogonek;
position = "{525, 33}";
},
{
name = top;
position = "{346, 547}";
}
);
layerId = "924B7471-43FB-4CAD-AF7E-45215B64D997";
paths = (
{
closed = 1;
nodes = (
"148 514 OFFCURVE",
"43 468 OFFCURVE",
"21 254 CURVE SMOOTH",
"4 83 OFFCURVE",
"61 -12 OFFCURVE",
"289 -12 CURVE SMOOTH",
"368 -12 OFFCURVE",
"455 -1 OFFCURVE",
"526 32 CURVE",
"512 160 LINE",
"451 153 OFFCURVE",
"348 149 OFFCURVE",
"307 149 CURVE SMOOTH",
"238 149 OFFCURVE",
"226 162 OFFCURVE",
"242 261 CURVE SMOOTH",
"258 357 OFFCURVE",
"271 378 OFFCURVE",
"328 379 CURVE SMOOTH",
"369 380 OFFCURVE",
"376 371 OFFCURVE",
"374 349 CURVE SMOOTH",
"370 311 OFFCURVE",
"347 307 OFFCURVE",
"306 303 CURVE SMOOTH",
"108 283 LINE",
"95 184 LINE",
"361 204 LINE SMOOTH",
"496 214 OFFCURVE",
"561 238 OFFCURVE",
"574 328 CURVE SMOOTH",
"592 449 OFFCURVE",
"533 514 OFFCURVE",
"326 514 CURVE SMOOTH"
);
}
);
width = 590;
},
{
associatedMasterId = "E21536AE-9819-4FE7-8A20-8865FE3C0515";
layerId = "8B237152-285D-40A8-B4E2-1E52B22AB10C";
name = "Light Apr 26 13, 16:54";
paths = (
{
closed = 1;
nodes = (
"169 11 OFFCURVE",
"88 37 OFFCURVE",
"88 243 CURVE SMOOTH",
"88 410 OFFCURVE",
"141 469 OFFCURVE",
"268 469 CURVE SMOOTH",
"384 469 OFFCURVE",
"436 419 OFFCURVE",
"438 287 CURVE SMOOTH",
"438 269 OFFCURVE",
"430 262 OFFCURVE",
"415 262 CURVE SMOOTH",
"77 262 LINE",
"77 240 LINE",
"415 240 LINE SMOOTH",
"447 240 OFFCURVE",
"463 256 OFFCURVE",
"463 287 CURVE SMOOTH",
"462 437 OFFCURVE",
"395 492 OFFCURVE",
"268 492 CURVE SMOOTH",
"120 492 OFFCURVE",
"63 420 OFFCURVE",
"63 242 CURVE SMOOTH",
"63 58 OFFCURVE",
"125 -12 OFFCURVE",
"277 -12 CURVE SMOOTH",
"329 -12 OFFCURVE",
"415 -4 OFFCURVE",
"448 6 CURVE",
"444 24 LINE",
"407 18 OFFCURVE",
"360 11 OFFCURVE",
"295 11 CURVE SMOOTH"
);
}
);
width = 546;
},
{
anchors = (
{
name = bottom;
position = "{247, -13}";
},
{
name = ogonek;
position = "{450, 19}";
},
{
name = top;
position = "{319, 553}";
}
);
background = {
paths = (
{
closed = 1;
nodes = (
"143 502 OFFCURVE",
"74 436 OFFCURVE",
"47 249 CURVE SMOOTH",
"20 63 OFFCURVE",
"76 -12 OFFCURVE",
"251 -12 CURVE SMOOTH",
"308 -12 OFFCURVE",
"373 -4 OFFCURVE",
"426 15 CURVE",
"419 88 LINE",
"367 80 OFFCURVE",
"304 78 OFFCURVE",
"271 78 CURVE SMOOTH",
"169 78 OFFCURVE",
"142 100 OFFCURVE",
"159 241 CURVE SMOOTH",
"176 385 OFFCURVE",
"221 412 OFFCURVE",
"329 412 CURVE SMOOTH",
"361 412 OFFCURVE",
"413 411 OFFCURVE",
"460 409 CURVE",
"476 475 LINE",
"430 495 OFFCURVE",
"361 502 OFFCURVE",
"312 502 CURVE SMOOTH"
);
}
);
};
layerId = "77EC9CE6-E33A-4866-9665-0506F15B57B2";
paths = (
{
closed = 1;
nodes = (
"134 502 OFFCURVE",
"68 446 OFFCURVE",
"43 259 CURVE SMOOTH",
"19 77 OFFCURVE",
"79 -12 OFFCURVE",
"250 -12 CURVE SMOOTH",
"309 -12 OFFCURVE",
"397 -5 OFFCURVE",
"453 18 CURVE",
"446 90 LINE",
"388 83 OFFCURVE",
"319 78 OFFCURVE",
"266 78 CURVE SMOOTH",
"180 78 OFFCURVE",
"132 104 OFFCURVE",
"155 259 CURVE SMOOTH",
"174 385 OFFCURVE",
"204 412 OFFCURVE",
"298 412 CURVE SMOOTH",
"374 412 OFFCURVE",
"403 413 OFFCURVE",
"397 352 CURVE SMOOTH",
"390 297 OFFCURVE",
"364 280 OFFCURVE",
"308 277 CURVE SMOOTH",
"86 257 LINE",
"74 178 LINE",
"309 198 LINE SMOOTH",
"430 206 OFFCURVE",
"489 243 OFFCURVE",
"504 343 CURVE SMOOTH",
"516 437 OFFCURVE",
"482 502 OFFCURVE",
"316 502 CURVE SMOOTH"
);
}
);
width = 541;
}
);
leftKerningGroup = c;
rightKerningGroup = ae;
unicode = 0065;
},
{
glyphname = eogonek;
lastChange = "2016-12-09 16:58:09 +0000";
layers = (
{
anchors = (
{
name = _ogonek;
position = "{419, 8}";
}
);
components = (
{
name = e;
}
);
layerId = "E21536AE-9819-4FE7-8A20-8865FE3C0515";
paths = (
{
closed = 1;
nodes = (
"354 -197 OFFCURVE",
"384 -190 OFFCURVE",
"403 -181 CURVE",
"402 -167 LINE",
"380 -174 OFFCURVE",
"356 -177 OFFCURVE",
"342 -177 CURVE SMOOTH",
"317 -177 OFFCURVE",
"306 -168 OFFCURVE",
"310 -141 CURVE SMOOTH",
"316 -101 OFFCURVE",
"368 -45 OFFCURVE",
"423 6 CURVE",
"406 12 LINE",
"338 -45 OFFCURVE",
"291 -103 OFFCURVE",
"285 -143 CURVE SMOOTH",
"279 -185 OFFCURVE",
"303 -197 OFFCURVE",
"332 -197 CURVE SMOOTH"
);
}
);
width = 526;
},
{
anchors = (
{
name = _ogonek;
position = "{525, 33}";
}
);
components = (
{
name = e;
}
);
layerId = "924B7471-43FB-4CAD-AF7E-45215B64D997";
paths = (
{
closed = 1;
nodes = (
"435 -214 OFFCURVE",
"474 -208 OFFCURVE",
"519 -192 CURVE",
"517 -120 LINE",
"508 -122 OFFCURVE",
"498 -123 OFFCURVE",
"479 -123 CURVE SMOOTH",
"459 -123 OFFCURVE",
"445 -118 OFFCURVE",
"448 -99 CURVE SMOOTH",
"453 -67 OFFCURVE",
"475 -26 OFFCURVE",
"527 34 CURVE",
"442 24 LINE",
"376 -12 OFFCURVE",
"317 -83 OFFCURVE",
"310 -133 CURVE SMOOTH",
"303 -184 OFFCURVE",
"341 -214 OFFCURVE",
"397 -214 CURVE SMOOTH"
);
}
);
width = 590;
},
{
anchors = (
{
name = _ogonek;
position = "{450, 19}";
}
);
components = (
{
name = e;
}
);
layerId = "77EC9CE6-E33A-4866-9665-0506F15B57B2";
paths = (
{
closed = 1;
nodes = (
"376 -203 OFFCURVE",
"400 -200 OFFCURVE",
"440 -184 CURVE",
"438 -138 LINE",
"420 -143 OFFCURVE",
"405 -146 OFFCURVE",
"393 -146 CURVE SMOOTH",
"366 -146 OFFCURVE",
"355 -138 OFFCURVE",
"358 -116 CURVE SMOOTH",
"362 -87 OFFCURVE",
"416 -14 OFFCURVE",
"453 18 CURVE",
"401 26 LINE",
"349 -17 OFFCURVE",
"289 -81 OFFCURVE",
"281 -138 CURVE SMOOTH",
"276 -175 OFFCURVE",
"297 -203 OFFCURVE",
"353 -203 CURVE SMOOTH"
);
}
);
width = 541;
}
);
leftKerningGroup = c;
rightKerningGroup = ae;
unicode = 0119;
},
{
glyphname = schwa;
lastChange = "2016-12-09 13:27:44 +0000";
layers = (
{
layerId = "E21536AE-9819-4FE7-8A20-8865FE3C0515";
paths = (
{
closed = 1;
nodes = (
"360 -12 OFFCURVE",
"433 29 OFFCURVE",
"464 236 CURVE SMOOTH",
"492 422 OFFCURVE",
"450 492 OFFCURVE",
"292 492 CURVE SMOOTH",
"238 492 OFFCURVE",
"140 484 OFFCURVE",
"103 474 CURVE",
"106 456 LINE",
"148 462 OFFCURVE",
"224 470 OFFCURVE",
"282 470 CURVE SMOOTH",
"427 470 OFFCURVE",
"469 423 OFFCURVE",
"440 239 CURVE SMOOTH",
"409 39 OFFCURVE",
"351 10 OFFCURVE",
"209 10 CURVE SMOOTH",
"119 10 OFFCURVE",
"50 25 OFFCURVE",
"79 134 CURVE SMOOTH",
"96 199 OFFCURVE",
"126 216 OFFCURVE",
"213 227 CURVE SMOOTH",
"454 254 LINE",
"457 275 LINE",
"214 249 LINE SMOOTH",
"115 238 OFFCURVE",
"74 215 OFFCURVE",
"55 136 CURVE SMOOTH",
"26 15 OFFCURVE",
"100 -12 OFFCURVE",
"216 -12 CURVE SMOOTH"
);
}
);
width = 526;
},
{
layerId = "77EC9CE6-E33A-4866-9665-0506F15B57B2";
paths = (
{
closed = 1;
nodes = (
"407 -12 OFFCURVE",
"473 44 OFFCURVE",
"498 231 CURVE SMOOTH",
"522 413 OFFCURVE",
"462 502 OFFCURVE",
"291 502 CURVE SMOOTH",
"232 502 OFFCURVE",
"144 495 OFFCURVE",
"88 472 CURVE",
"95 400 LINE",
"153 407 OFFCURVE",
"222 412 OFFCURVE",
"275 412 CURVE SMOOTH",
"361 412 OFFCURVE",
"409 386 OFFCURVE",
"386 231 CURVE SMOOTH",
"367 105 OFFCURVE",
"337 78 OFFCURVE",
"243 78 CURVE SMOOTH",
"167 78 OFFCURVE",
"138 77 OFFCURVE",
"144 138 CURVE SMOOTH",
"151 193 OFFCURVE",
"177 210 OFFCURVE",
"233 213 CURVE SMOOTH",
"455 233 LINE",
"467 312 LINE",
"232 292 LINE SMOOTH",
"111 284 OFFCURVE",
"52 247 OFFCURVE",
"37 147 CURVE SMOOTH",
"25 53 OFFCURVE",
"59 -12 OFFCURVE",
"225 -12 CURVE SMOOTH"
);
}
);
width = 541;
},
{
layerId = "924B7471-43FB-4CAD-AF7E-45215B64D997";
paths = (
{
closed = 1;
nodes = (
"442 -12 OFFCURVE",
"547 34 OFFCURVE",
"569 248 CURVE SMOOTH",
"586 419 OFFCURVE",
"529 514 OFFCURVE",
"301 514 CURVE SMOOTH",
"222 514 OFFCURVE",
"135 503 OFFCURVE",
"64 470 CURVE",
"78 342 LINE",
"139 349 OFFCURVE",
"242 353 OFFCURVE",
"283 353 CURVE SMOOTH",
"352 353 OFFCURVE",
"364 340 OFFCURVE",
"348 241 CURVE SMOOTH",
"332 145 OFFCURVE",
"319 124 OFFCURVE",
"262 123 CURVE SMOOTH",
"221 122 OFFCURVE",
"214 131 OFFCURVE",
"216 153 CURVE SMOOTH",
"220 191 OFFCURVE",
"243 195 OFFCURVE",
"284 199 CURVE SMOOTH",
"482 219 LINE",
"495 318 LINE",
"229 298 LINE SMOOTH",
"94 288 OFFCURVE",
"29 264 OFFCURVE",
"16 174 CURVE SMOOTH",
"-2 53 OFFCURVE",
"57 -12 OFFCURVE",
"264 -12 CURVE SMOOTH"
);
}
);
width = 590;
}
);
leftKerningGroup = schwa;
rightKerningGroup = schwa;
unicode = 0259;
},
{
glyphname = f;
lastChange = "2016-12-09 13:27:44 +0000";
layers = (
{
layerId = "E21536AE-9819-4FE7-8A20-8865FE3C0515";
paths = (
{
closed = 1;
nodes = (
"212 714 OFFCURVE",
"173 670 OFFCURVE",
"161 582 CURVE SMOOTH",
"68 -76 LINE SMOOTH",
"57 -158 OFFCURVE",
"26 -188 OFFCURVE",
"-48 -188 CURVE SMOOTH",
"-127 -188 LINE",
"-128 -206 LINE",
"-103 -209 OFFCURVE",
"-62 -210 OFFCURVE",
"-40 -210 CURVE SMOOTH",
"45 -210 OFFCURVE",
"80 -167 OFFCURVE",
"92 -78 CURVE SMOOTH",
"185 580 LINE SMOOTH",
"196 662 OFFCURVE",
"231 692 OFFCURVE",
"311 692 CURVE SMOOTH",
"420 692 LINE",
"421 710 LINE",
"387 713 OFFCURVE",
"332 714 OFFCURVE",
"303 714 CURVE SMOOTH"
);
},
{
closed = 1;
nodes = (
"153 480 LINE",
"59 475 LINE",
"56 458 LINE",
"345 458 LINE",
"349 480 LINE"
);
}
);
width = 351;
},
{
layerId = "924B7471-43FB-4CAD-AF7E-45215B64D997";
paths = (
{
closed = 1;
nodes = (
"195 724 OFFCURVE",
"145 659 OFFCURVE",
"131 565 CURVE SMOOTH",
"50 5 LINE SMOOTH",
"43 -37 OFFCURVE",
"28 -51 OFFCURVE",
"-14 -51 CURVE SMOOTH",
"-63 -51 LINE",
"-95 -176 LINE",
"-25 -186 OFFCURVE",
"21 -191 OFFCURVE",
"60 -191 CURVE SMOOTH",
"186 -191 OFFCURVE",
"236 -126 OFFCURVE",
"250 -32 CURVE SMOOTH",
"333 528 LINE SMOOTH",
"339 570 OFFCURVE",
"354 584 OFFCURVE",
"394 584 CURVE SMOOTH",
"474 584 LINE",
"506 709 LINE",
"457 719 OFFCURVE",
"366 724 OFFCURVE",
"321 724 CURVE SMOOTH"
);
},
{
closed = 1;
nodes = (
"123 500 LINE",
"37 495 LINE",
"22 374 LINE",
"429 374 LINE",
"446 500 LINE"
);
}
);
width = 423;
},
{
layerId = "77EC9CE6-E33A-4866-9665-0506F15B57B2";
paths = (
{
closed = 1;
nodes = (
"219 718 OFFCURVE",
"165 665 OFFCURVE",
"152 574 CURVE SMOOTH",
"66 -36 LINE SMOOTH",
"57 -97 OFFCURVE",
"33 -109 OFFCURVE",
"-25 -109 CURVE SMOOTH",
"-99 -109 LINE",
"-117 -189 LINE",
"-63 -195 OFFCURVE",
"-23 -197 OFFCURVE",
"9 -197 CURVE SMOOTH",
"105 -197 OFFCURVE",
"159 -144 OFFCURVE",
"172 -53 CURVE SMOOTH",
"258 557 LINE SMOOTH",
"267 618 OFFCURVE",
"291 630 OFFCURVE",
"349 630 CURVE SMOOTH",
"443 630 LINE",
"461 710 LINE",
"421 716 OFFCURVE",
"351 718 OFFCURVE",
"315 718 CURVE SMOOTH"
);
},
{
closed = 1;
nodes = (
"143 489 LINE",
"51 484 LINE",
"41 406 LINE",
"384 406 LINE",
"395 489 LINE"
);
}
);
width = 387;
}
);
leftKerningGroup = f;
rightKerningGroup = f;
unicode = 0066;
},
{
glyphname = g;
lastChange = "2016-12-09 13:27:44 +0000";
layers = (
{
anchors = (
{
name = top;
position = "{365, 553}";
}
);
layerId = "924B7471-43FB-4CAD-AF7E-45215B64D997";
paths = (
{
closed = 1;
nodes = (
"343 125 LINE",
"376 113 LINE",
"358 79 OFFCURVE",
"359 43 OFFCURVE",
"336 8 CURVE SMOOTH",
"304 -42 OFFCURVE",
"236 -56 OFFCURVE",
"141 -56 CURVE SMOOTH",
"66 -56 OFFCURVE",
"45 -56 OFFCURVE",
"15 -56 CURVE",
"5 -169 LINE",
"74 -201 OFFCURVE",
"188 -204 OFFCURVE",
"228 -204 CURVE SMOOTH",
"369 -204 OFFCURVE",
"513 -172 OFFCURVE",
"547 90 CURVE SMOOTH",
"602 482 LINE",
"397 500 LINE"
);
},
{
closed = 1;
nodes = (
"154 514 OFFCURVE",
"63 501 OFFCURVE",
"26 264 CURVE SMOOTH",
"0 99 OFFCURVE",
"28 -9 OFFCURVE",
"173 -2 CURVE SMOOTH",
"296 4 OFFCURVE",
"388 80 OFFCURVE",
"419 221 CURVE",
"385 277 LINE",
"356 210 OFFCURVE",
"305 157 OFFCURVE",
"263 149 CURVE SMOOTH",
"228 142 OFFCURVE",
"222 168 OFFCURVE",
"240 270 CURVE SMOOTH",
"254 352 OFFCURVE",
"265 377 OFFCURVE",
"331 377 CURVE SMOOTH",
"378 377 OFFCURVE",
"405 377 OFFCURVE",
"440 376 CURVE",
"602 482 LINE",
"555 496 OFFCURVE",
"433 514 OFFCURVE",
"299 514 CURVE SMOOTH"
);
}
);
width = 618;
},
{
associatedMasterId = "E21536AE-9819-4FE7-8A20-8865FE3C0515";
layerId = "2A665385-4A7A-4A0C-9574-639623185B9D";
name = "Light Apr 26 13, 18:43";
paths = (
{
closed = 1;
nodes = (
"147 492 OFFCURVE",
"93 422 OFFCURVE",
"93 240 CURVE SMOOTH",
"93 58 OFFCURVE",
"141 -12 OFFCURVE",
"267 -12 CURVE SMOOTH",
"333 -12 OFFCURVE",
"397 7 OFFCURVE",
"468 38 CURVE",
"468 61 LINE",
"386 28 OFFCURVE",
"331 11 OFFCURVE",
"267 11 CURVE SMOOTH",
"160 11 OFFCURVE",
"118 72 OFFCURVE",
"118 240 CURVE SMOOTH",
"118 408 OFFCURVE",
"166 469 OFFCURVE",
"287 469 CURVE SMOOTH",
"345 469 OFFCURVE",
"398 462 OFFCURVE",
"468 443 CURVE",
"489 461 LINE",
"418 480 OFFCURVE",
"354 492 OFFCURVE",
"287 492 CURVE SMOOTH"
);
},
{
closed = 1;
nodes = (
"465 54 LINE",
"468 38 LINE",
"464 7 OFFCURVE",
"463 -16 OFFCURVE",
"463 -55 CURVE SMOOTH",
"463 -176 OFFCURVE",
"357 -199 OFFCURVE",
"289 -199 CURVE SMOOTH",
"231 -199 OFFCURVE",
"168 -187 OFFCURVE",
"118 -175 CURVE",
"115 -193 LINE",
"165 -209 OFFCURVE",
"239 -222 OFFCURVE",
"289 -222 CURVE SMOOTH",
"356 -222 OFFCURVE",
"489 -208 OFFCURVE",
"489 -53 CURVE SMOOTH",
"489 461 LINE",
"465 461 LINE"
);
}
);
width = 600;
},
{
associatedMasterId = "E21536AE-9819-4FE7-8A20-8865FE3C0515";
layerId = "2113CBC0-42E0-4E6B-8667-CDA962280002";
name = "Light Apr 26 13, 19:05";
paths = (
{
closed = 1;
nodes = (
"435 186 OFFCURVE",
"490 237 OFFCURVE",
"490 339 CURVE SMOOTH",
"490 441 OFFCURVE",
"435 492 OFFCURVE",
"294 492 CURVE SMOOTH",
"153 492 OFFCURVE",
"98 441 OFFCURVE",
"98 339 CURVE SMOOTH",
"98 237 OFFCURVE",
"153 186 OFFCURVE",
"294 186 CURVE SMOOTH"
);
},
{
closed = 1;
nodes = (
"168 208 OFFCURVE",
"122 251 OFFCURVE",
"122 339 CURVE SMOOTH",
"122 427 OFFCURVE",
"168 470 OFFCURVE",
"294 470 CURVE SMOOTH",
"420 470 OFFCURVE",
"466 427 OFFCURVE",
"466 339 CURVE SMOOTH",
"466 251 OFFCURVE",
"420 208 OFFCURVE",
"294 208 CURVE SMOOTH"
);
},
{
closed = 1;
nodes = (
"178 70 OFFCURVE",
"77 36 OFFCURVE",
"77 -66 CURVE SMOOTH",
"77 -173 OFFCURVE",
"136 -212 OFFCURVE",
"300 -212 CURVE SMOOTH",
"466 -212 OFFCURVE",
"524 -172 OFFCURVE",
"524 -69 CURVE SMOOTH",
"524 15 OFFCURVE",
"486 45 OFFCURVE",
"402 62 CURVE SMOOTH",
"209 106 LINE SMOOTH",
"149 120 OFFCURVE",
"144 176 OFFCURVE",
"185 220 CURVE",
"167 222 LINE",
"118 181 OFFCURVE",
"128 103 OFFCURVE",
"196 87 CURVE SMOOTH",
"392 42 LINE SMOOTH",
"462 28 OFFCURVE",
"500 9 OFFCURVE",
"500 -69 CURVE SMOOTH",
"500 -159 OFFCURVE",
"449 -189 OFFCURVE",
"304 -189 CURVE SMOOTH",
"154 -189 OFFCURVE",
"101 -157 OFFCURVE",
"101 -64 CURVE SMOOTH",
"101 20 OFFCURVE",
"190 50 OFFCURVE",
"251 81 CURVE",
"246 91 LINE"
);
},
{
closed = 1;
nodes = (
"416 458 LINE",
"527 462 LINE",
"527 480 LINE",
"381 480 LINE"
);
}
);
width = 600;
},
{
associatedMasterId = "E21536AE-9819-4FE7-8A20-8865FE3C0515";
layerId = "FBEF36C0-DDCB-4C88-92D9-8F0A8764F787";
name = "Light Apr 26 13, 19:23";
paths = (
{
closed = 1;
nodes = (
"418 196 OFFCURVE",
"471 244 OFFCURVE",
"471 343 CURVE SMOOTH",
"471 441 OFFCURVE",
"419 492 OFFCURVE",
"281 492 CURVE SMOOTH",
"143 492 OFFCURVE",
"89 441 OFFCURVE",
"89 343 CURVE SMOOTH",
"89 244 OFFCURVE",
"144 196 OFFCURVE",
"281 196 CURVE SMOOTH"
);
},
{
closed = 1;
nodes = (
"159 218 OFFCURVE",
"113 258 OFFCURVE",
"113 343 CURVE SMOOTH",
"113 427 OFFCURVE",
"158 470 OFFCURVE",
"281 470 CURVE SMOOTH",
"404 470 OFFCURVE",
"447 427 OFFCURVE",
"447 343 CURVE SMOOTH",
"447 258 OFFCURVE",
"403 218 OFFCURVE",
"281 218 CURVE SMOOTH"
);
},
{
closed = 1;
nodes = (
"154 62 LINE SMOOTH",
"103 26 OFFCURVE",
"69 -5 OFFCURVE",
"69 -74 CURVE SMOOTH",
"69 -176 OFFCURVE",
"127 -212 OFFCURVE",
"286 -212 CURVE SMOOTH",
"438 -212 OFFCURVE",
"497 -176 OFFCURVE",
"497 -74 CURVE SMOOTH",
"497 14 OFFCURVE",
"474 42 OFFCURVE",
"383 63 CURVE SMOOTH",
"190 107 LINE SMOOTH",
"125 122 OFFCURVE",
"131 183 OFFCURVE",
"168 227 CURVE",
"150 229 LINE",
"104 191 OFFCURVE",
"104 104 OFFCURVE",
"177 87 CURVE SMOOTH",
"373 42 LINE SMOOTH",
"453 25 OFFCURVE",
"473 2 OFFCURVE",
"473 -74 CURVE SMOOTH",
"473 -159 OFFCURVE",
"421 -189 OFFCURVE",
"286 -189 CURVE SMOOTH",
"145 -189 OFFCURVE",
"93 -159 OFFCURVE",
"93 -74 CURVE SMOOTH",
"93 -11 OFFCURVE",
"122 19 OFFCURVE",
"170 47 CURVE SMOOTH",
"235 87 LINE",
"210 94 LINE"
);
},
{
closed = 1;
nodes = (
"407 458 LINE",
"518 462 LINE",
"518 480 LINE",
"372 480 LINE"
);
}
);
width = 565;
},
{
anchors = (
{
name = top;
position = "{339, 558}";
}
);
layerId = "E21536AE-9819-4FE7-8A20-8865FE3C0515";
paths = (
{
closed = 1;
nodes = (
"429 146 LINE",
"435 138 LINE",
"427 116 OFFCURVE",
"418 70 OFFCURVE",
"406 -4 CURVE SMOOTH",
"386 -127 OFFCURVE",
"322 -186 OFFCURVE",
"204 -198 CURVE SMOOTH",
"146 -204 OFFCURVE",
"83 -203 OFFCURVE",
"25 -200 CURVE",
"22 -218 LINE",
"77 -224 OFFCURVE",
"169 -224 OFFCURVE",
"212 -220 CURVE SMOOTH",
"339 -208 OFFCURVE",
"410 -132 OFFCURVE",
"430 -6 CURVE SMOOTH",
"506 480 LINE",
"481 480 LINE"
);
},
{
closed = 1;
nodes = (
"146 492 OFFCURVE",
"102 442 OFFCURVE",
"70 242 CURVE SMOOTH",
"42 68 OFFCURVE",
"60 -12 OFFCURVE",
"182 -12 CURVE SMOOTH",
"245 -12 OFFCURVE",
"350 33 OFFCURVE",
"437 133 CURVE",
"432 155 LINE",
"349 62 OFFCURVE",
"247 11 OFFCURVE",
"182 11 CURVE SMOOTH",
"81 11 OFFCURVE",
"69 79 OFFCURVE",
"94 238 CURVE SMOOTH",
"124 429 OFFCURVE",
"160 470 OFFCURVE",
"322 470 CURVE SMOOTH",
"374 470 OFFCURVE",
"416 466 OFFCURVE",
"488 462 CURVE",
"498 480 LINE",
"435 487 OFFCURVE",
"377 492 OFFCURVE",
"319 492 CURVE SMOOTH"
);
}
);
width = 569;
},
{
anchors = (
{
name = top;
position = "{332, 553}";
}
);
layerId = "77EC9CE6-E33A-4866-9665-0506F15B57B2";
paths = (
{
closed = 1;
nodes = (
"374 122 LINE",
"404 110 LINE",
"375 70 OFFCURVE",
"368 28 OFFCURVE",
"360 -9 CURVE SMOOTH",
"342 -94 OFFCURVE",
"260 -117 OFFCURVE",
"174 -117 CURVE SMOOTH",
"93 -117 OFFCURVE",
"60 -116 OFFCURVE",
"23 -115 CURVE",
"12 -186 LINE",
"65 -205 OFFCURVE",
"150 -207 OFFCURVE",
"170 -207 CURVE SMOOTH",
"368 -207 OFFCURVE",
"454 -119 OFFCURVE",
"469 15 CURVE SMOOTH",
"533 474 LINE",
"425 474 LINE"
);
},
{
closed = 1;
nodes = (
"162 502 OFFCURVE",
"77 479 OFFCURVE",
"45 251 CURVE SMOOTH",
"15 40 OFFCURVE",
"76 -12 OFFCURVE",
"174 -12 CURVE SMOOTH",
"306 -12 OFFCURVE",
"401 81 OFFCURVE",
"438 167 CURVE",
"415 212 LINE",
"331 127 OFFCURVE",
"276 81 OFFCURVE",
"201 81 CURVE SMOOTH",
"147 81 OFFCURVE",
"134 103 OFFCURVE",
"154 244 CURVE SMOOTH",
"175 395 OFFCURVE",
"198 412 OFFCURVE",
"317 412 CURVE SMOOTH",
"345 412 OFFCURVE",
"411 411 OFFCURVE",
"485 409 CURVE",
"533 474 LINE",
"463 490 OFFCURVE",
"355 502 OFFCURVE",
"274 502 CURVE SMOOTH"
);
}
);
width = 577;
}
);
leftKerningGroup = a;
rightKerningGroup = g;
unicode = 0067;
},
{
glyphname = h;
lastChange = "2016-12-09 13:27:44 +0000";
layers = (
{
anchors = (
{
name = bottom;
position = "{241, 0}";
},
{
name = center;
position = "{276, 240}";
},
{
name = top;
position = "{165, 720}";
}
);
background = {
paths = (
{
closed = 1;
nodes = (
"287 492 OFFCURVE",
"226 461 OFFCURVE",
"128 374 CURVE",
"130 353 LINE",
"233 437 OFFCURVE",
"286 469 OFFCURVE",
"361 469 CURVE SMOOTH",
"466 469 OFFCURVE",
"485 410 OFFCURVE",
"462 242 CURVE SMOOTH",
"437 60 OFFCURVE",
"403 11 OFFCURVE",
"255 11 CURVE SMOOTH",
"202 11 OFFCURVE",
"149 17 OFFCURVE",
"81 37 CURVE",
"60 19 LINE",
"129 0 OFFCURVE",
"181 -12 OFFCURVE",
"259 -12 CURVE SMOOTH",
"407 -12 OFFCURVE",
"458 30 OFFCURVE",
"487 238 CURVE SMOOTH",
"514 429 OFFCURVE",
"476 492 OFFCURVE",
"365 492 CURVE SMOOTH"
);
},
{
closed = 1;
nodes = (
"155 700 LINE",
"59 19 LINE",
"83 19 LINE",
"132 360 LINE",
"129 373 LINE",
"138 419 OFFCURVE",
"144 454 OFFCURVE",
"152 510 CURVE SMOOTH",
"179 700 LINE"
);
}
);
};
layerId = "E21536AE-9819-4FE7-8A20-8865FE3C0515";
paths = (
{
closed = 1;
nodes = (
"299 492 OFFCURVE",
"216 441 OFFCURVE",
"122 362 CURVE",
"121 336 LINE",
"226 424 OFFCURVE",
"299 469 OFFCURVE",
"370 469 CURVE SMOOTH",
"443 469 OFFCURVE",
"474 437 OFFCURVE",
"463 359 CURVE SMOOTH",
"412 0 LINE",
"436 0 LINE",
"487 360 LINE SMOOTH",
"499 446 OFFCURVE",
"460 492 OFFCURVE",
"374 492 CURVE SMOOTH"
);
},
{
closed = 1;
nodes = (
"151 700 LINE",
"52 0 LINE",
"76 0 LINE",
"125 343 LINE",
"123 360 LINE",
"131 397 OFFCURVE",
"140 446 OFFCURVE",
"145 484 CURVE SMOOTH",
"175 700 LINE"
);
}
);
width = 567;
},
{
anchors = (
{
name = bottom;
position = "{269, -5}";
},
{
name = center;
position = "{276, 240}";
},
{
name = top;
position = "{208, 720}";
}
);
background = {
paths = (
{
closed = 1;
nodes = (
"366 514 OFFCURVE",
"269 459 OFFCURVE",
"208 374 CURVE",
"245 287 LINE",
"285 325 OFFCURVE",
"311 335 OFFCURVE",
"330 337 CURVE SMOOTH",
"355 340 OFFCURVE",
"359 329 OFFCURVE",
"355 302 CURVE SMOOTH",
"312 0 LINE",
"523 0 LINE",
"575 370 LINE SMOOTH",
"590 466 OFFCURVE",
"530 514 OFFCURVE",
"451 514 CURVE SMOOTH"
);
},
{
closed = 1;
nodes = (
"75 500 LINE",
"5 0 LINE",
"216 0 LINE",
"265 354 LINE",
"246 366 LINE",
"239 500 LINE"
);
}
);
};
layerId = "924B7471-43FB-4CAD-AF7E-45215B64D997";
paths = (
{
closed = 1;
nodes = (
"380 514 OFFCURVE",
"293 471 OFFCURVE",
"207 374 CURVE",
"242 287 LINE",
"293 327 OFFCURVE",
"320 337 OFFCURVE",
"352 337 CURVE SMOOTH",
"371 337 OFFCURVE",
"375 333 OFFCURVE",
"371 311 CURVE SMOOTH",
"327 0 LINE",
"537 0 LINE",
"589 370 LINE",
"602 462 OFFCURVE",
"553 514 OFFCURVE",
"451 514 CURVE SMOOTH"
);
},
{
closed = 1;
nodes = (
"101 700 LINE",
"3 0 LINE",
"213 0 LINE",
"262 356 LINE",
"237 365 LINE",
"254 404 OFFCURVE",
"280 475 OFFCURVE",
"290 547 CURVE SMOOTH",
"311 700 LINE"
);
}
);
width = 619;
},
{
anchors = (
{
name = bottom;
position = "{247, 0}";
},
{
name = center;
position = "{276, 240}";
},
{
name = top;
position = "{183, 720}";
}
);
layerId = "77EC9CE6-E33A-4866-9665-0506F15B57B2";
paths = (
{
closed = 1;
nodes = (
"335 502 OFFCURVE",
"262 462 OFFCURVE",
"172 379 CURVE",
"171 302 LINE",
"257 369 OFFCURVE",
"314 411 OFFCURVE",
"375 411 CURVE SMOOTH",
"412 411 OFFCURVE",
"420 396 OFFCURVE",
"413 337 CURVE SMOOTH",
"366 0 LINE",
"473 0 LINE",
"525 365 LINE SMOOTH",
"538 455 OFFCURVE",
"489 502 OFFCURVE",
"409 502 CURVE SMOOTH"
);
},
{
closed = 1;
nodes = (
"128 700 LINE",
"29 0 LINE",
"137 0 LINE",
"184 347 LINE",
"177 360 LINE",
"188 389 OFFCURVE",
"202 453 OFFCURVE",
"210 512 CURVE SMOOTH",
"235 700 LINE"
);
}
);
width = 582;
}
);
leftKerningGroup = b;
rightKerningGroup = h;
unicode = 0068;
},
{
glyphname = hbar;
lastChange = "2016-12-09 13:27:44 +0000";
layers = (
{
components = (
{
name = h;
}
);
layerId = "E21536AE-9819-4FE7-8A20-8865FE3C0515";
paths = (
{
closed = 1;
nodes = (
"57 610 LINE",
"54 590 LINE",
"329 590 LINE",
"332 610 LINE"
);
}
);
width = 567;
},
{
components = (
{
name = h;
transform = "{1, 0, 0, 1, -4, 0}";
}
);
layerId = "924B7471-43FB-4CAD-AF7E-45215B64D997";
paths = (
{
closed = 1;
nodes = (
"38 631 LINE",
"26 547 LINE",
"397 547 LINE",
"409 631 LINE"
);
}
);
width = 615;
},
{
components = (
{
name = h;
}
);
layerId = "77EC9CE6-E33A-4866-9665-0506F15B57B2";
paths = (
{
closed = 1;
nodes = (
"50 629 LINE",
"42 571 LINE",
"359 571 LINE",
"367 629 LINE"
);
}
);
width = 582;
}
);
leftKerningGroup = b;
rightKerningGroup = h;
unicode = 0127;
},
{
glyphname = i;
lastChange = "2016-12-09 13:27:44 +0000";
layers = (
{
anchors = (
{
name = bottom;
position = "{67, 0}";
},
{
name = ogonek;
position = "{80, 0}";
},
{
name = top;
position = "{146, 558}";
}
);
layerId = "E21536AE-9819-4FE7-8A20-8865FE3C0515";
paths = (
{
closed = 1;
nodes = (
"124 480 LINE",
"56 0 LINE",
"80 0 LINE",
"148 480 LINE"
);
},
{
closed = 1;
nodes = (
"158 679 LINE SMOOTH",
"150 679 OFFCURVE",
"146 676 OFFCURVE",
"145 668 CURVE SMOOTH",
"136 606 LINE SMOOTH",
"135 598 OFFCURVE",
"140 593 OFFCURVE",
"148 593 CURVE SMOOTH",
"158 593 LINE SMOOTH",
"166 593 OFFCURVE",
"169 596 OFFCURVE",
"170 604 CURVE SMOOTH",
"179 666 LINE SMOOTH",
"180 674 OFFCURVE",
"176 679 OFFCURVE",
"168 679 CURVE SMOOTH"
);
}
);
width = 218;
},
{
anchors = (
{
name = bottom;
position = "{110, -5}";
},
{
name = ogonek;
position = "{198, 0}";
},
{
name = top;
position = "{183, 547}";
}
);
layerId = "924B7471-43FB-4CAD-AF7E-45215B64D997";
paths = (
{
closed = 1;
nodes = (
"76 500 LINE",
"7 0 LINE",
"216 0 LINE",
"285 500 LINE"
);
},
{
closed = 1;
nodes = (
"169 729 LINE SMOOTH",
"126 729 OFFCURVE",
"104 711 OFFCURVE",
"100 671 CURVE SMOOTH",
"93 620 LINE SMOOTH",
"88 575 OFFCURVE",
"107 554 OFFCURVE",
"152 554 CURVE SMOOTH",
"234 554 LINE SMOOTH",
"277 554 OFFCURVE",
"298 572 OFFCURVE",
"303 612 CURVE SMOOTH",
"310 663 LINE SMOOTH",
"315 708 OFFCURVE",
"295 729 OFFCURVE",
"250 729 CURVE SMOOTH"
);
}
);
width = 304;
},
{
anchors = (
{
name = bottom;
position = "{86, 0}";
},
{
name = ogonek;
position = "{132, 0}";
},
{
name = top;
position = "{166, 553}";
}
);
layerId = "77EC9CE6-E33A-4866-9665-0506F15B57B2";
paths = (
{
closed = 1;
nodes = (
"102 489 LINE",
"34 0 LINE",
"141 0 LINE",
"209 489 LINE"
);
},
{
closed = 1;
nodes = (
"157 699 LINE SMOOTH",
"136 699 OFFCURVE",
"127 689 OFFCURVE",
"125 670 CURVE SMOOTH",
"117 615 LINE SMOOTH",
"114 594 OFFCURVE",
"125 582 OFFCURVE",
"146 582 CURVE SMOOTH",
"197 582 LINE SMOOTH",
"218 582 OFFCURVE",
"227 590 OFFCURVE",
"230 611 CURVE SMOOTH",
"237 666 LINE SMOOTH",
"240 685 OFFCURVE",
"229 699 OFFCURVE",
"208 699 CURVE SMOOTH"
);
}
);
width = 256;
}
);
leftKerningGroup = i;
rightKerningGroup = i;
unicode = 0069;
},
{
glyphname = idotless;
lastChange = "2016-12-09 13:27:44 +0000";
layers = (
{
anchors = (
{
name = bottom;
position = "{68, 0}";
},
{
name = ogonek;
position = "{80, 0}";
},
{
name = top;
position = "{146, 558}";
}
);
layerId = "E21536AE-9819-4FE7-8A20-8865FE3C0515";
paths = (
{
closed = 1;
nodes = (
"124 480 LINE",
"56 0 LINE",
"80 0 LINE",
"148 480 LINE"
);
}
);
width = 218;
},
{
anchors = (
{
name = bottom;
position = "{110, -5}";
},
{
name = ogonek;
position = "{198, 0}";
},
{
name = top;
position = "{188, 547}";
}
);
layerId = "924B7471-43FB-4CAD-AF7E-45215B64D997";
paths = (
{
closed = 1;
nodes = (
"77 500 LINE",
"7 0 LINE",
"218 0 LINE",
"288 500 LINE"
);
}
);
width = 306;
},
{
anchors = (
{
name = bottom;
position = "{86, 0}";
},
{
name = ogonek;
position = "{132, 0}";
},
{
name = top;
position = "{166, 553}";
}
);
layerId = "77EC9CE6-E33A-4866-9665-0506F15B57B2";
paths = (
{
closed = 1;
nodes = (
"102 489 LINE",
"33 0 LINE",
"141 0 LINE",
"210 489 LINE"
);
}
);
width = 257;
}
);
leftKerningGroup = i;
rightKerningGroup = i;
unicode = 0131;
},
{
glyphname = j;
lastChange = "2016-12-09 13:27:44 +0000";
layers = (
{
layerId = "E21536AE-9819-4FE7-8A20-8865FE3C0515";
paths = (
{
closed = 1;
nodes = (
"124 480 LINE",
"50 -45 LINE SMOOTH",
"41 -110 OFFCURVE",
"13 -155 OFFCURVE",
"-27 -200 CURVE",
"-15 -210 LINE",
"31 -165 OFFCURVE",
"65 -112 OFFCURVE",
"74 -47 CURVE SMOOTH",
"148 480 LINE"
);
},
{
closed = 1;
nodes = (
"158 679 LINE",
"150 679 OFFCURVE",
"146 676 OFFCURVE",
"145 668 CURVE SMOOTH",
"136 606 LINE",
"135 598 OFFCURVE",
"140 593 OFFCURVE",
"148 593 CURVE SMOOTH",
"158 593 LINE",
"166 593 OFFCURVE",
"169 596 OFFCURVE",
"170 604 CURVE SMOOTH",
"179 666 LINE",
"180 674 OFFCURVE",
"176 679 OFFCURVE",
"168 679 CURVE SMOOTH"
);
}
);
width = 219;
},
{
layerId = "924B7471-43FB-4CAD-AF7E-45215B64D997";
paths = (
{
closed = 1;
nodes = (
"79 500 LINE",
"16 62 LINE SMOOTH",
"8 5 OFFCURVE",
"-16 -42 OFFCURVE",
"-73 -95 CURVE",
"42 -192 LINE",
"144 -151 OFFCURVE",
"211 -50 OFFCURVE",
"224 54 CURVE SMOOTH",
"289 500 LINE"
);
},
{
closed = 1;
nodes = (
"171 729 LINE SMOOTH",
"127 729 OFFCURVE",
"104 711 OFFCURVE",
"99 671 CURVE SMOOTH",
"92 620 LINE SMOOTH",
"87 575 OFFCURVE",
"106 554 OFFCURVE",
"152 554 CURVE SMOOTH",
"231 554 LINE SMOOTH",
"274 554 OFFCURVE",
"297 572 OFFCURVE",
"302 612 CURVE SMOOTH",
"309 663 LINE SMOOTH",
"315 708 OFFCURVE",
"296 729 OFFCURVE",
"250 729 CURVE SMOOTH"
);
}
);
width = 306;
},
{
layerId = "77EC9CE6-E33A-4866-9665-0506F15B57B2";
paths = (
{
closed = 1;
nodes = (
"102 489 LINE",
"33 3 LINE SMOOTH",
"24 -59 OFFCURVE",
"0 -104 OFFCURVE",
"-46 -152 CURVE",
"12 -202 LINE",
"81 -159 OFFCURVE",
"129 -84 OFFCURVE",
"140 -2 CURVE SMOOTH",
"209 489 LINE"
);
},
{
closed = 1;
nodes = (
"157 699 LINE",
"136 699 OFFCURVE",
"127 689 OFFCURVE",
"125 670 CURVE SMOOTH",
"117 615 LINE",
"114 594 OFFCURVE",
"125 582 OFFCURVE",
"146 582 CURVE SMOOTH",
"197 582 LINE",
"218 582 OFFCURVE",
"227 590 OFFCURVE",
"230 611 CURVE SMOOTH",
"237 666 LINE",
"240 685 OFFCURVE",
"229 699 OFFCURVE",
"208 699 CURVE SMOOTH"
);
}
);
width = 256;
}
);
leftKerningGroup = i;
rightKerningGroup = i;
unicode = 006A;
},
{
glyphname = jdotless;
lastChange = "2016-12-09 13:27:44 +0000";
layers = (
{
anchors = (
{
name = top;
position = "{143, 558}";
}
);
layerId = "E21536AE-9819-4FE7-8A20-8865FE3C0515";
paths = (
{
closed = 1;
nodes = (
"124 480 LINE",
"50 -45 LINE SMOOTH",
"41 -110 OFFCURVE",
"13 -155 OFFCURVE",
"-27 -200 CURVE",
"-15 -210 LINE",
"31 -165 OFFCURVE",
"65 -112 OFFCURVE",
"74 -47 CURVE SMOOTH",
"148 480 LINE"
);
}
);
width = 219;
},
{
anchors = (
{
name = top;
position = "{157, 553}";
}
);
layerId = "77EC9CE6-E33A-4866-9665-0506F15B57B2";
paths = (
{
closed = 1;
nodes = (
"102 489 LINE",
"33 3 LINE SMOOTH",
"24 -59 OFFCURVE",
"0 -104 OFFCURVE",
"-46 -152 CURVE",
"12 -202 LINE",
"81 -159 OFFCURVE",
"129 -84 OFFCURVE",
"140 -2 CURVE SMOOTH",
"209 489 LINE"
);
}
);
width = 256;
},
{
anchors = (
{
name = top;
position = "{194, 547}";
}
);
layerId = "924B7471-43FB-4CAD-AF7E-45215B64D997";
paths = (
{
closed = 1;
nodes = (
"79 500 LINE",
"16 62 LINE SMOOTH",
"8 5 OFFCURVE",
"-16 -42 OFFCURVE",
"-73 -95 CURVE",
"42 -192 LINE",
"144 -151 OFFCURVE",
"211 -50 OFFCURVE",
"224 54 CURVE SMOOTH",
"289 500 LINE"
);
}
);
width = 306;
}
);
leftKerningGroup = i;
rightKerningGroup = i;
unicode = 0237;
},
{
glyphname = k;
lastChange = "2016-12-09 13:27:44 +0000";
layers = (
{
anchors = (
{
name = bottom;
position = "{224, 0}";
}
);
background = {
paths = (
{
closed = 1;
nodes = (
"303 492 OFFCURVE",
"220 441 OFFCURVE",
"126 362 CURVE",
"125 336 LINE",
"230 424 OFFCURVE",
"303 469 OFFCURVE",
"374 469 CURVE SMOOTH",
"447 469 OFFCURVE",
"478 437 OFFCURVE",
"467 359 CURVE SMOOTH",
"416 0 LINE",
"440 0 LINE",
"491 360 LINE SMOOTH",
"503 446 OFFCURVE",
"464 492 OFFCURVE",
"378 492 CURVE SMOOTH"
);
},
{
closed = 1;
nodes = (
"155 700 LINE",
"56 0 LINE",
"80 0 LINE",
"129 343 LINE",
"127 360 LINE",
"135 397 OFFCURVE",
"144 446 OFFCURVE",
"149 484 CURVE SMOOTH",
"179 700 LINE"
);
}
);
};
guideLines = (
{
angle = 82;
position = "{391, 273}";
}
);
layerId = "E21536AE-9819-4FE7-8A20-8865FE3C0515";
paths = (
{
closed = 1;
nodes = (
"151 700 LINE",
"52 0 LINE",
"76 0 LINE",
"106 209 LINE",
"105 211 OFFCURVE",
"104 214 OFFCURVE",
"103 216 CURVE",
"112 252 OFFCURVE",
"116 275 OFFCURVE",
"121 310 CURVE SMOOTH",
"175 700 LINE"
);
},
{
closed = 1;
nodes = (
"436 480 LINE",
"382 356 OFFCURVE",
"268 265 OFFCURVE",
"92 217 CURVE",
"92 194 LINE",
"203 225 OFFCURVE",
"382 288 OFFCURVE",
"461 480 CURVE"
);
},
{
closed = 1;
nodes = (
"247 260 LINE",
"377 0 LINE",
"404 0 LINE",
"296 215 LINE SMOOTH",
"287 234 OFFCURVE",
"277 252 OFFCURVE",
"268 271 CURVE"
);
}
);
width = 487;
},
{
anchors = (
{
name = bottom;
position = "{284, 0}";
}
);
guideLines = (
{
angle = 90;
position = "{463, 273}";
}
);
layerId = "924B7471-43FB-4CAD-AF7E-45215B64D997";
paths = (
{
closed = 1;
nodes = (
"101 700 LINE",
"3 0 LINE",
"213 0 LINE",
"233 139 LINE SMOOTH",
"238 187 OFFCURVE",
"233 258 OFFCURVE",
"230 306 CURVE",
"252 347 OFFCURVE",
"266 386 OFFCURVE",
"273 428 CURVE SMOOTH",
"311 700 LINE"
);
},
{
closed = 1;
nodes = (
"388 500 LINE",
"368 406 OFFCURVE",
"279 319 OFFCURVE",
"183 284 CURVE",
"203 160 LINE",
"360 206 OFFCURVE",
"554 281 OFFCURVE",
"604 500 CURVE"
);
},
{
closed = 1;
nodes = (
"259 230 LINE",
"365 0 LINE",
"580 0 LINE",
"489 189 LINE SMOOTH",
"473 225 OFFCURVE",
"445 259 OFFCURVE",
"393 279 CURVE"
);
}
);
width = 609;
},
{
anchors = (
{
name = bottom;
position = "{251, 0}";
}
);
guideLines = (
{
angle = 82;
position = "{463, 273}";
}
);
layerId = "77EC9CE6-E33A-4866-9665-0506F15B57B2";
paths = (
{
closed = 1;
nodes = (
"128 700 LINE",
"30 0 LINE",
"137 0 LINE",
"166 195 LINE",
"162 211 OFFCURVE",
"158 227 OFFCURVE",
"154 243 CURVE",
"174 291 OFFCURVE",
"187 333 OFFCURVE",
"193 381 CURVE SMOOTH",
"236 700 LINE"
);
},
{
closed = 1;
nodes = (
"401 489 LINE",
"374 384 OFFCURVE",
"245 299 OFFCURVE",
"133 244 CURVE",
"142 156 LINE",
"284 223 OFFCURVE",
"453 294 OFFCURVE",
"511 489 CURVE"
);
},
{
closed = 1;
nodes = (
"258 257 LINE",
"362 0 LINE",
"477 0 LINE",
"385 213 LINE SMOOTH",
"374 239 OFFCURVE",
"359 267 OFFCURVE",
"342 289 CURVE"
);
}
);
width = 533;
}
);
leftKerningGroup = b;
rightKerningGroup = k;
unicode = 006B;
},
{
glyphname = kgreenlandic;
lastChange = "2016-12-09 13:27:44 +0000";
layers = (
{
background = {
paths = (
{
closed = 1;
nodes = (
"151 700 LINE",
"52 0 LINE",
"76 0 LINE",
"106 209 LINE",
"105 211 OFFCURVE",
"104 214 OFFCURVE",
"103 216 CURVE",
"112 252 OFFCURVE",
"116 275 OFFCURVE",
"121 310 CURVE SMOOTH",
"175 700 LINE"
);
},
{
closed = 1;
nodes = (
"436 480 LINE",
"382 356 OFFCURVE",
"268 265 OFFCURVE",
"92 217 CURVE",
"92 194 LINE",
"203 225 OFFCURVE",
"382 288 OFFCURVE",
"461 480 CURVE"
);
},
{
closed = 1;
nodes = (
"247 260 LINE",
"377 0 LINE",
"404 0 LINE",
"296 215 LINE SMOOTH",
"287 234 OFFCURVE",
"277 252 OFFCURVE",
"268 271 CURVE"
);
}
);
};
layerId = "E21536AE-9819-4FE7-8A20-8865FE3C0515";
paths = (
{
closed = 1;
nodes = (
"120 480 LINE",
"52 0 LINE",
"76 0 LINE",
"106 209 LINE",
"105 211 OFFCURVE",
"104 214 OFFCURVE",
"103 216 CURVE",
"112 252 OFFCURVE",
"116 275 OFFCURVE",
"121 310 CURVE SMOOTH",
"144 480 LINE"
);
},
{
closed = 1;
nodes = (
"436 480 LINE",
"382 356 OFFCURVE",
"268 265 OFFCURVE",
"92 217 CURVE",
"92 194 LINE",
"203 225 OFFCURVE",
"382 288 OFFCURVE",
"461 480 CURVE"
);
},
{
closed = 1;
nodes = (
"247 260 LINE",
"377 0 LINE",
"404 0 LINE",
"296 215 LINE SMOOTH",
"287 234 OFFCURVE",
"277 252 OFFCURVE",
"268 271 CURVE"
);
}
);
width = 487;
},
{
background = {
paths = (
{
closed = 1;
nodes = (
"128 700 LINE",
"30 0 LINE",
"137 0 LINE",
"166 195 LINE",
"162 211 OFFCURVE",
"158 227 OFFCURVE",
"154 243 CURVE",
"174 291 OFFCURVE",
"187 333 OFFCURVE",
"193 381 CURVE SMOOTH",
"236 700 LINE"
);
},
{
closed = 1;
nodes = (
"401 489 LINE",
"374 384 OFFCURVE",
"245 299 OFFCURVE",
"133 244 CURVE",
"142 156 LINE",
"284 223 OFFCURVE",
"453 294 OFFCURVE",
"511 489 CURVE"
);
},
{
closed = 1;
nodes = (
"258 257 LINE",
"362 0 LINE",
"477 0 LINE",
"385 213 LINE SMOOTH",
"374 239 OFFCURVE",
"359 267 OFFCURVE",
"342 289 CURVE"
);
}
);
};
layerId = "77EC9CE6-E33A-4866-9665-0506F15B57B2";
paths = (
{
closed = 1;
nodes = (
"100 489 LINE",
"30 0 LINE",
"137 0 LINE",
"165 186 LINE",
"161 202 OFFCURVE",
"157 218 OFFCURVE",
"153 234 CURVE",
"173 282 OFFCURVE",
"186 325 OFFCURVE",
"192 372 CURVE SMOOTH",
"208 489 LINE"
);
},
{
closed = 1;
nodes = (
"405 489 LINE",
"374 381 OFFCURVE",
"244 290 OFFCURVE",
"132 235 CURVE",
"141 147 LINE",
"284 215 OFFCURVE",
"455 293 OFFCURVE",
"515 489 CURVE"
);
},
{
closed = 1;
nodes = (
"257 248 LINE",
"358 0 LINE",
"473 0 LINE",
"384 204 LINE SMOOTH",
"373 230 OFFCURVE",
"358 258 OFFCURVE",
"341 280 CURVE"
);
}
);
width = 533;
},
{
background = {
paths = (
{
closed = 1;
nodes = (
"101 700 LINE",
"3 0 LINE",
"213 0 LINE",
"233 139 LINE SMOOTH",
"238 187 OFFCURVE",
"233 258 OFFCURVE",
"230 306 CURVE",
"252 347 OFFCURVE",
"267 385 OFFCURVE",
"273 428 CURVE SMOOTH",
"311 700 LINE"
);
},
{
closed = 1;
nodes = (
"388 500 LINE",
"368 406 OFFCURVE",
"279 319 OFFCURVE",
"183 284 CURVE",
"203 160 LINE",
"360 206 OFFCURVE",
"554 281 OFFCURVE",
"604 500 CURVE"
);
},
{
closed = 1;
nodes = (
"259 230 LINE",
"365 0 LINE",
"580 0 LINE",
"489 189 LINE SMOOTH",
"473 225 OFFCURVE",
"445 259 OFFCURVE",
"393 279 CURVE"
);
}
);
};
layerId = "924B7471-43FB-4CAD-AF7E-45215B64D997";
paths = (
{
closed = 1;
nodes = (
"73 500 LINE",
"3 0 LINE",
"213 0 LINE",
"232 128 LINE SMOOTH",
"239 176 OFFCURVE",
"232 247 OFFCURVE",
"229 295 CURVE",
"251 336 OFFCURVE",
"266 375 OFFCURVE",
"272 417 CURVE SMOOTH",
"283 500 LINE"
);
},
{
closed = 1;
nodes = (
"393 500 LINE",
"370 396 OFFCURVE",
"278 308 OFFCURVE",
"182 273 CURVE",
"202 149 LINE",
"359 195 OFFCURVE",
"559 281 OFFCURVE",
"609 500 CURVE"
);
},
{
closed = 1;
nodes = (
"258 219 LINE",
"360 0 LINE",
"575 0 LINE",
"488 178 LINE SMOOTH",
"471 213 OFFCURVE",
"444 248 OFFCURVE",
"392 268 CURVE"
);
}
);
width = 609;
}
);
leftKerningGroup = b;
rightKerningGroup = k;
unicode = 0138;
},
{
glyphname = l;
lastChange = "2016-12-09 13:27:44 +0000";
layers = (
{
anchors = (
{
name = bottom;
position = "{145, -5}";
},
{
name = top;
position = "{174, 763}";
}
);
layerId = "E21536AE-9819-4FE7-8A20-8865FE3C0515";
paths = (
{
closed = 1;
nodes = (
"152 700 LINE",
"67 96 LINE SMOOTH",
"58 31 OFFCURVE",
"93 -6 OFFCURVE",
"155 -6 CURVE SMOOTH",
"172 -6 OFFCURVE",
"206 -4 OFFCURVE",
"219 0 CURVE",
"218 16 LINE",
"159 16 LINE SMOOTH",
"108 16 OFFCURVE",
"83 43 OFFCURVE",
"91 95 CURVE SMOOTH",
"176 700 LINE"
);
}
);
width = 265;
},
{
anchors = (
{
name = bottom;
position = "{165, -5}";
},
{
name = top;
position = "{219, 740}";
}
);
layerId = "924B7471-43FB-4CAD-AF7E-45215B64D997";
paths = (
{
closed = 1;
nodes = (
"102 700 LINE",
"21 130 LINE SMOOTH",
"10 42 OFFCURVE",
"72 -14 OFFCURVE",
"184 -14 CURVE SMOOTH",
"217 -14 OFFCURVE",
"295 -8 OFFCURVE",
"327 10 CURVE",
"315 146 LINE",
"275 146 LINE SMOOTH",
"239 146 OFFCURVE",
"231 152 OFFCURVE",
"236 178 CURVE SMOOTH",
"311 700 LINE"
);
}
);
width = 360;
},
{
anchors = (
{
name = bottom;
position = "{153, 0}";
},
{
name = top;
position = "{193, 753}";
}
);
layerId = "77EC9CE6-E33A-4866-9665-0506F15B57B2";
paths = (
{
closed = 1;
nodes = (
"129 700 LINE",
"48 125 LINE SMOOTH",
"36 39 OFFCURVE",
"80 -10 OFFCURVE",
"160 -10 CURVE SMOOTH",
"184 -10 OFFCURVE",
"236 -6 OFFCURVE",
"257 4 CURVE",
"253 88 LINE",
"208 88 LINE SMOOTH",
"164 88 OFFCURVE",
"151 102 OFFCURVE",
"158 146 CURVE SMOOTH",
"236 700 LINE"
);
}
);
width = 303;
}
);
leftKerningGroup = l;
rightKerningGroup = l;
unicode = 006C;
},
{
glyphname = lslash;
lastChange = "2016-12-09 13:27:44 +0000";
layers = (
{
components = (
{
name = l;
}
);
layerId = "E21536AE-9819-4FE7-8A20-8865FE3C0515";
paths = (
{
closed = 1;
nodes = (
"37 343 LINE",
"35 323 LINE",
"280 425 LINE",
"283 445 LINE"
);
}
);
width = 288;
},
{
components = (
{
name = l;
transform = "{1, 0, 0, 1, 12, 0}";
}
);
layerId = "924B7471-43FB-4CAD-AF7E-45215B64D997";
paths = (
{
closed = 1;
nodes = (
"14 373 LINE",
"0 269 LINE",
"380 409 LINE",
"395 513 LINE"
);
}
);
width = 376;
},
{
components = (
{
name = l;
}
);
layerId = "77EC9CE6-E33A-4866-9665-0506F15B57B2";
paths = (
{
closed = 1;
nodes = (
"18 365 LINE",
"9 299 LINE",
"315 418 LINE",
"324 484 LINE"
);
}
);
width = 303;
}
);
leftKerningGroup = l;
rightKerningGroup = l;
unicode = 0142;
},
{
glyphname = m;
lastChange = "2016-12-09 13:27:44 +0000";
layers = (
{
anchors = (
{
name = bottom;
position = "{400, 0}";
}
);
background = {
paths = (
{
closed = 1;
nodes = (
"625 492 OFFCURVE",
"551 458 OFFCURVE",
"466 392 CURVE",
"465 369 LINE",
"560 435 OFFCURVE",
"621 469 OFFCURVE",
"689 469 CURVE SMOOTH",
"757 469 OFFCURVE",
"787 435 OFFCURVE",
"777 359 CURVE SMOOTH",
"726 0 LINE",
"750 0 LINE",
"801 360 LINE SMOOTH",
"813 446 OFFCURVE",
"774 492 OFFCURVE",
"693 492 CURVE SMOOTH"
);
},
{
closed = 1;
nodes = (
"124 480 LINE",
"56 0 LINE",
"80 0 LINE",
"133 376 LINE",
"132 392 LINE",
"142 480 LINE"
);
},
{
closed = 1;
nodes = (
"290 492 OFFCURVE",
"216 458 OFFCURVE",
"131 392 CURVE",
"130 369 LINE",
"225 435 OFFCURVE",
"286 469 OFFCURVE",
"354 469 CURVE SMOOTH",
"422 469 OFFCURVE",
"452 435 OFFCURVE",
"442 359 CURVE SMOOTH",
"391 0 LINE",
"415 0 LINE",
"466 360 LINE SMOOTH",
"478 446 OFFCURVE",
"439 492 OFFCURVE",
"358 492 CURVE SMOOTH"
);
}
);
};
layerId = "E21536AE-9819-4FE7-8A20-8865FE3C0515";
paths = (
{
closed = 1;
nodes = (
"120 480 LINE",
"52 0 LINE",
"76 0 LINE",
"124 342 LINE",
"123 360 LINE",
"138 480 LINE"
);
},
{
closed = 1;
nodes = (
"280 492 OFFCURVE",
"208 441 OFFCURVE",
"122 362 CURVE",
"121 339 LINE",
"218 424 OFFCURVE",
"280 469 OFFCURVE",
"345 469 CURVE SMOOTH",
"418 469 OFFCURVE",
"449 437 OFFCURVE",
"438 359 CURVE SMOOTH",
"387 0 LINE",
"411 0 LINE",
"462 360 LINE SMOOTH",
"474 446 OFFCURVE",
"435 492 OFFCURVE",
"349 492 CURVE SMOOTH"
);
},
{
closed = 1;
nodes = (
"614 492 OFFCURVE",
"542 441 OFFCURVE",
"456 362 CURVE",
"455 339 LINE",
"552 424 OFFCURVE",
"614 469 OFFCURVE",
"679 469 CURVE SMOOTH",
"752 469 OFFCURVE",
"783 437 OFFCURVE",
"772 359 CURVE SMOOTH",
"721 0 LINE",
"745 0 LINE",
"796 360 LINE SMOOTH",
"808 446 OFFCURVE",
"769 492 OFFCURVE",
"683 492 CURVE SMOOTH"
);
}
);
width = 876;
},
{
anchors = (
{
name = bottom;
position = "{404, -5}";
}
);
background = {
paths = (
{
closed = 1;
nodes = (
"350 514 OFFCURVE",
"253 459 OFFCURVE",
"192 374 CURVE",
"229 287 LINE",
"269 325 OFFCURVE",
"295 335 OFFCURVE",
"314 337 CURVE SMOOTH",
"339 340 OFFCURVE",
"343 329 OFFCURVE",
"339 302 CURVE SMOOTH",
"296 0 LINE",
"507 0 LINE",
"559 370 LINE SMOOTH",
"574 466 OFFCURVE",
"514 514 OFFCURVE",
"435 514 CURVE SMOOTH"
);
},
{
closed = 1;
nodes = (
"59 500 LINE",
"-11 0 LINE",
"200 0 LINE",
"249 354 LINE",
"230 366 LINE",
"223 500 LINE"
);
}
);
};
guideLines = (
{
angle = 82;
position = "{594, 168}";
}
);
layerId = "924B7471-43FB-4CAD-AF7E-45215B64D997";
paths = (
{
closed = 1;
nodes = (
"73 500 LINE",
"3 0 LINE",
"212 0 LINE",
"265 386 LINE",
"245 398 LINE",
"236 500 LINE"
);
},
{
closed = 1;
nodes = (
"338 514 OFFCURVE",
"275 472 OFFCURVE",
"191 374 CURVE",
"227 289 LINE",
"276 327 OFFCURVE",
"306 337 OFFCURVE",
"327 337 CURVE SMOOTH",
"341 337 OFFCURVE",
"350 333 OFFCURVE",
"346 311 CURVE SMOOTH",
"303 0 LINE",
"504 0 LINE",
"556 370 LINE SMOOTH",
"569 462 OFFCURVE",
"521 514 OFFCURVE",
"424 514 CURVE SMOOTH"
);
},
{
closed = 1;
nodes = (
"635 514 OFFCURVE",
"571 473 OFFCURVE",
"487 374 CURVE",
"524 289 LINE",
"570 327 OFFCURVE",
"600 337 OFFCURVE",
"619 337 CURVE SMOOTH",
"631 337 OFFCURVE",
"641 333 OFFCURVE",
"638 311 CURVE SMOOTH",
"595 0 LINE",
"803 0 LINE",
"855 370 LINE SMOOTH",
"868 460 OFFCURVE",
"821 514 OFFCURVE",
"721 514 CURVE SMOOTH"
);
}
);
width = 884;
},
{
anchors = (
{
name = bottom;
position = "{396, 0}";
}
);
background = {
paths = (
{
closed = 1;
nodes = (
"339 502 OFFCURVE",
"260 457 OFFCURVE",
"176 379 CURVE",
"175 302 LINE",
"261 361 OFFCURVE",
"318 403 OFFCURVE",
"377 403 CURVE SMOOTH",
"416 403 OFFCURVE",
"424 389 OFFCURVE",
"417 337 CURVE SMOOTH",
"370 0 LINE",
"477 0 LINE",
"529 365 LINE SMOOTH",
"541 453 OFFCURVE",
"499 502 OFFCURVE",
"407 502 CURVE SMOOTH"
);
},
{
closed = 1;
nodes = (
"102 489 LINE",
"33 0 LINE",
"141 0 LINE",
"188 347 LINE",
"183 362 LINE",
"188 489 LINE"
);
},
{
closed = 1;
nodes = (
"627 502 OFFCURVE",
"559 460 OFFCURVE",
"482 378 CURVE",
"485 302 LINE",
"558 363 OFFCURVE",
"601 403 OFFCURVE",
"649 403 CURVE SMOOTH",
"701 403 OFFCURVE",
"713 389 OFFCURVE",
"705 337 CURVE SMOOTH",
"658 0 LINE",
"762 0 LINE",
"813 365 LINE SMOOTH",
"825 453 OFFCURVE",
"783 502 OFFCURVE",
"696 502 CURVE SMOOTH"
);
}
);
};
guideLines = (
{
position = "{259, 303}";
}
);
layerId = "77EC9CE6-E33A-4866-9665-0506F15B57B2";
paths = (
{
closed = 1;
nodes = (
"98 489 LINE",
"29 0 LINE",
"136 0 LINE",
"184 347 LINE",
"176 362 LINE",
"181 489 LINE"
);
},
{
closed = 1;
nodes = (
"315 502 OFFCURVE",
"250 465 OFFCURVE",
"168 378 CURVE",
"171 302 LINE",
"260 384 OFFCURVE",
"296 411 OFFCURVE",
"345 411 CURVE SMOOTH",
"390 411 OFFCURVE",
"398 388 OFFCURVE",
"391 337 CURVE SMOOTH",
"344 0 LINE",
"448 0 LINE",
"499 365 LINE SMOOTH",
"511 448 OFFCURVE",
"471 502 OFFCURVE",
"386 502 CURVE SMOOTH"
);
},
{
closed = 1;
nodes = (
"630 502 OFFCURVE",
"568 467 OFFCURVE",
"486 379 CURVE",
"488 303 LINE",
"578 388 OFFCURVE",
"612 411 OFFCURVE",
"657 411 CURVE SMOOTH",
"693 411 OFFCURVE",
"711 396 OFFCURVE",
"703 337 CURVE SMOOTH",
"656 0 LINE",
"763 0 LINE",
"814 365 LINE SMOOTH",
"826 448 OFFCURVE",
"786 502 OFFCURVE",
"700 502 CURVE SMOOTH"
);
}
);
width = 871;
}
);
leftKerningGroup = m;
rightKerningGroup = h;
unicode = 006D;
},
{
glyphname = n;
lastChange = "2016-12-09 13:27:44 +0000";
layers = (
{
anchors = (
{
name = bottom;
position = "{242, 0}";
},
{
name = top;
position = "{312, 558}";
}
);
layerId = "E21536AE-9819-4FE7-8A20-8865FE3C0515";
paths = (
{
closed = 1;
nodes = (
"299 492 OFFCURVE",
"216 441 OFFCURVE",
"122 362 CURVE",
"121 339 LINE",
"226 424 OFFCURVE",
"299 469 OFFCURVE",
"370 469 CURVE SMOOTH",
"443 469 OFFCURVE",
"474 437 OFFCURVE",
"463 359 CURVE SMOOTH",
"412 0 LINE",
"436 0 LINE",
"487 360 LINE SMOOTH",
"499 446 OFFCURVE",
"460 492 OFFCURVE",
"374 492 CURVE SMOOTH"
);
},
{
closed = 1;
nodes = (
"120 480 LINE",
"52 0 LINE",
"76 0 LINE",
"124 342 LINE",
"123 360 LINE",
"138 480 LINE"
);
}
);
width = 567;
},
{
anchors = (
{
name = bottom;
position = "{277, 0}";
},
{
name = top;
position = "{347, 547}";
}
);
guideLines = (
{
angle = 82;
position = "{242, 197}";
}
);
layerId = "924B7471-43FB-4CAD-AF7E-45215B64D997";
paths = (
{
closed = 1;
nodes = (
"372 514 OFFCURVE",
"273 459 OFFCURVE",
"207 374 CURVE",
"242 287 LINE",
"288 325 OFFCURVE",
"319 335 OFFCURVE",
"343 337 CURVE SMOOTH",
"369 340 OFFCURVE",
"374 329 OFFCURVE",
"370 302 CURVE SMOOTH",
"327 0 LINE",
"538 0 LINE",
"590 370 LINE SMOOTH",
"604 466 OFFCURVE",
"542 514 OFFCURVE",
"460 514 CURVE SMOOTH"
);
},
{
closed = 1;
nodes = (
"72 500 LINE",
"3 0 LINE",
"213 0 LINE",
"263 354 LINE",
"243 366 LINE",
"236 500 LINE"
);
}
);
width = 619;
},
{
anchors = (
{
name = bottom;
position = "{265, 0}";
},
{
name = top;
position = "{334, 553}";
}
);
background = {
paths = (
{
closed = 1;
nodes = (
"339 502 OFFCURVE",
"260 457 OFFCURVE",
"176 379 CURVE",
"175 302 LINE",
"261 361 OFFCURVE",
"318 403 OFFCURVE",
"377 403 CURVE SMOOTH",
"416 403 OFFCURVE",
"424 389 OFFCURVE",
"417 337 CURVE SMOOTH",
"370 0 LINE",
"477 0 LINE",
"529 365 LINE SMOOTH",
"541 453 OFFCURVE",
"499 502 OFFCURVE",
"407 502 CURVE SMOOTH"
);
},
{
closed = 1;
nodes = (
"132 700 LINE",
"33 0 LINE",
"141 0 LINE",
"188 347 LINE",
"181 360 LINE",
"192 389 OFFCURVE",
"206 453 OFFCURVE",
"214 512 CURVE SMOOTH",
"239 700 LINE"
);
}
);
};
layerId = "77EC9CE6-E33A-4866-9665-0506F15B57B2";
paths = (
{
closed = 1;
nodes = (
"335 502 OFFCURVE",
"262 462 OFFCURVE",
"172 379 CURVE",
"171 302 LINE",
"257 369 OFFCURVE",
"314 411 OFFCURVE",
"375 411 CURVE SMOOTH",
"412 411 OFFCURVE",
"420 396 OFFCURVE",
"413 337 CURVE SMOOTH",
"366 0 LINE",
"473 0 LINE",
"525 365 LINE SMOOTH",
"538 455 OFFCURVE",
"489 502 OFFCURVE",
"409 502 CURVE SMOOTH"
);
},
{
closed = 1;
nodes = (
"98 489 LINE",
"29 0 LINE",
"137 0 LINE",
"184 347 LINE",
"179 362 LINE",
"184 489 LINE"
);
}
);
width = 582;
}
);
leftKerningGroup = m;
rightKerningGroup = h;
unicode = 006E;
},
{
glyphname = eng;
lastChange = "2016-12-09 16:27:03 +0000";
layers = (
{
background = {
paths = (
{
closed = 1;
nodes = (
"303 492 OFFCURVE",
"220 441 OFFCURVE",
"126 362 CURVE",
"125 339 LINE",
"230 424 OFFCURVE",
"303 469 OFFCURVE",
"374 469 CURVE SMOOTH",
"447 469 OFFCURVE",
"478 437 OFFCURVE",
"467 359 CURVE SMOOTH",
"416 0 LINE",
"440 0 LINE",
"491 360 LINE SMOOTH",
"503 446 OFFCURVE",
"464 492 OFFCURVE",
"378 492 CURVE SMOOTH"
);
},
{
closed = 1;
nodes = (
"124 480 LINE",
"56 0 LINE",
"80 0 LINE",
"128 342 LINE",
"127 360 LINE",
"142 480 LINE"
);
}
);
};
layerId = "E21536AE-9819-4FE7-8A20-8865FE3C0515";
paths = (
{
closed = 1;
nodes = (
"289 492 OFFCURVE",
"214 436 OFFCURVE",
"119 360 CURVE",
"118 337 LINE",
"216 412 OFFCURVE",
"285 469 OFFCURVE",
"370 469 CURVE SMOOTH",
"443 469 OFFCURVE",
"473 435 OFFCURVE",
"463 359 CURVE SMOOTH",
"400 -87 LINE SMOOTH",
"391 -154 OFFCURVE",
"355 -188 OFFCURVE",
"295 -188 CURVE SMOOTH",
"248 -188 LINE",
"244 -204 LINE",
"268 -209 OFFCURVE",
"282 -210 OFFCURVE",
"298 -210 CURVE SMOOTH",
"372 -211 OFFCURVE",
"412 -170 OFFCURVE",
"424 -90 CURVE SMOOTH",
"487 360 LINE SMOOTH",
"499 446 OFFCURVE",
"460 492 OFFCURVE",
"374 492 CURVE SMOOTH"
);
},
{
closed = 1;
nodes = (
"120 480 LINE",
"52 0 LINE",
"76 0 LINE",
"125 343 LINE",
"123 359 LINE",
"138 480 LINE"
);
}
);
width = 567;
},
{
background = {
paths = (
{
closed = 1;
nodes = (
"366 514 OFFCURVE",
"269 459 OFFCURVE",
"208 374 CURVE",
"245 287 LINE",
"285 325 OFFCURVE",
"311 335 OFFCURVE",
"330 337 CURVE SMOOTH",
"355 340 OFFCURVE",
"359 329 OFFCURVE",
"355 302 CURVE SMOOTH",
"312 0 LINE",
"523 0 LINE",
"575 370 LINE SMOOTH",
"590 466 OFFCURVE",
"530 514 OFFCURVE",
"451 514 CURVE SMOOTH"
);
},
{
closed = 1;
nodes = (
"75 500 LINE",
"5 0 LINE",
"216 0 LINE",
"265 354 LINE",
"246 366 LINE",
"239 500 LINE"
);
}
);
};
layerId = "924B7471-43FB-4CAD-AF7E-45215B64D997";
paths = (
{
closed = 1;
nodes = (
"381 514 OFFCURVE",
"293 474 OFFCURVE",
"205 377 CURVE",
"242 287 LINE",
"291 326 OFFCURVE",
"322 335 OFFCURVE",
"344 337 CURVE SMOOTH",
"366 339 OFFCURVE",
"375 333 OFFCURVE",
"371 311 CURVE SMOOTH",
"326 -2 LINE SMOOTH",
"323 -21 OFFCURVE",
"300 -33 OFFCURVE",
"275 -33 CURVE SMOOTH",
"245 -33 LINE",
"209 -167 LINE",
"240 -185 OFFCURVE",
"318 -195 OFFCURVE",
"365 -195 CURVE SMOOTH",
"459 -195 OFFCURVE",
"518 -136 OFFCURVE",
"533 -28 CURVE SMOOTH",
"590 370 LINE SMOOTH",
"602 462 OFFCURVE",
"553 514 OFFCURVE",
"451 514 CURVE SMOOTH"
);
},
{
closed = 1;
nodes = (
"72 500 LINE",
"3 0 LINE",
"213 0 LINE",
"261 341 LINE",
"242 413 LINE",
"236 500 LINE"
);
}
);
width = 619;
},
{
background = {
paths = (
{
closed = 1;
nodes = (
"335 502 OFFCURVE",
"262 462 OFFCURVE",
"172 379 CURVE",
"171 302 LINE",
"257 369 OFFCURVE",
"314 411 OFFCURVE",
"375 411 CURVE SMOOTH",
"412 411 OFFCURVE",
"420 396 OFFCURVE",
"413 337 CURVE SMOOTH",
"366 0 LINE",
"473 0 LINE",
"525 365 LINE SMOOTH",
"538 455 OFFCURVE",
"489 502 OFFCURVE",
"409 502 CURVE SMOOTH"
);
},
{
closed = 1;
nodes = (
"98 489 LINE",
"29 0 LINE",
"137 0 LINE",
"184 347 LINE",
"179 362 LINE",
"184 489 LINE"
);
}
);
};
layerId = "77EC9CE6-E33A-4866-9665-0506F15B57B2";
paths = (
{
closed = 1;
nodes = (
"333 502 OFFCURVE",
"253 458 OFFCURVE",
"166 372 CURVE",
"174 305 LINE",
"249 363 OFFCURVE",
"316 411 OFFCURVE",
"371 411 CURVE SMOOTH",
"413 411 OFFCURVE",
"421 394 OFFCURVE",
"413 337 CURVE SMOOTH",
"359 -49 LINE SMOOTH",
"351 -105 OFFCURVE",
"323 -119 OFFCURVE",
"280 -119 CURVE SMOOTH",
"242 -119 LINE",
"223 -187 LINE",
"250 -197 OFFCURVE",
"292 -203 OFFCURVE",
"320 -203 CURVE SMOOTH",
"405 -203 OFFCURVE",
"453 -150 OFFCURVE",
"468 -43 CURVE SMOOTH",
"525 365 LINE SMOOTH",
"537 453 OFFCURVE",
"494 502 OFFCURVE",
"405 502 CURVE SMOOTH"
);
},
{
closed = 1;
nodes = (
"98 489 LINE",
"29 0 LINE",
"137 0 LINE",
"184 340 LINE",
"179 367 LINE",
"181 489 LINE"
);
}
);
width = 582;
}
);
leftKerningGroup = m;
rightKerningGroup = h;
unicode = 014B;
},
{
glyphname = o;
lastChange = "2016-12-09 13:27:44 +0000";
layers = (
{
anchors = (
{
name = bottom;
position = "{243, -12}";
},
{
name = ogonek;
position = "{269, 0}";
},
{
name = top;
position = "{315, 558}";
}
);
layerId = "E21536AE-9819-4FE7-8A20-8865FE3C0515";
paths = (
{
closed = 1;
nodes = (
"150 492 OFFCURVE",
"87 426 OFFCURVE",
"61 242 CURVE SMOOTH",
"35 56 OFFCURVE",
"82 -12 OFFCURVE",
"238 -12 CURVE SMOOTH",
"392 -12 OFFCURVE",
"455 54 OFFCURVE",
"481 238 CURVE SMOOTH",
"507 424 OFFCURVE",
"460 492 OFFCURVE",
"304 492 CURVE SMOOTH"
);
},
{
closed = 1;
nodes = (
"440 469 OFFCURVE",
"480 414 OFFCURVE",
"456 242 CURVE SMOOTH",
"432 68 OFFCURVE",
"374 11 OFFCURVE",
"238 11 CURVE SMOOTH",
"102 11 OFFCURVE",
"62 66 OFFCURVE",
"86 238 CURVE SMOOTH",
"110 412 OFFCURVE",
"168 469 OFFCURVE",
"304 469 CURVE SMOOTH"
);
}
);
width = 557;
},
{
anchors = (
{
name = bottom;
position = "{268, -12}";
},
{
name = ogonek;
position = "{310, 0}";
},
{
name = top;
position = "{346, 547}";
}
);
layerId = "924B7471-43FB-4CAD-AF7E-45215B64D997";
paths = (
{
closed = 1;
nodes = (
"126 514 OFFCURVE",
"48 448 OFFCURVE",
"21 257 CURVE SMOOTH",
"-7 61 OFFCURVE",
"80 -12 OFFCURVE",
"278 -12 CURVE SMOOTH",
"477 -12 OFFCURVE",
"555 53 OFFCURVE",
"582 241 CURVE SMOOTH",
"610 440 OFFCURVE",
"527 514 OFFCURVE",
"327 514 CURVE SMOOTH"
);
},
{
closed = 1;
nodes = (
"372 372 OFFCURVE",
"379 352 OFFCURVE",
"365 257 CURVE SMOOTH",
"349 152 OFFCURVE",
"337 130 OFFCURVE",
"286 130 CURVE SMOOTH",
"233 130 OFFCURVE",
"227 149 OFFCURVE",
"240 241 CURVE SMOOTH",
"256 350 OFFCURVE",
"269 372 OFFCURVE",
"323 372 CURVE SMOOTH"
);
}
);
width = 615;
},
{
anchors = (
{
name = bottom;
position = "{239, -13}";
},
{
name = ogonek;
position = "{288, 0}";
},
{
name = top;
position = "{319, 553}";
}
);
annotations = (
{
position = "{671, -59}";
text = "contrast +14";
type = Text;
}
);
layerId = "77EC9CE6-E33A-4866-9665-0506F15B57B2";
paths = (
{
closed = 1;
nodes = (
"138 502 OFFCURVE",
"66 432 OFFCURVE",
"41 248 CURVE SMOOTH",
"15 59 OFFCURVE",
"83 -13 OFFCURVE",
"248 -13 CURVE SMOOTH",
"414 -13 OFFCURVE",
"487 55 OFFCURVE",
"513 240 CURVE SMOOTH",
"540 429 OFFCURVE",
"475 502 OFFCURVE",
"308 502 CURVE SMOOTH"
);
},
{
closed = 1;
nodes = (
"400 412 OFFCURVE",
"421 377 OFFCURVE",
"402 248 CURVE SMOOTH",
"384 116 OFFCURVE",
"346 77 OFFCURVE",
"248 77 CURVE SMOOTH",
"155 77 OFFCURVE",
"135 112 OFFCURVE",
"153 240 CURVE SMOOTH",
"173 379 OFFCURVE",
"212 412 OFFCURVE",
"308 412 CURVE SMOOTH"
);
}
);
width = 567;
},
{
anchors = (
{
name = top;
position = "{285.5, 553.079}";
}
);
associatedMasterId = "77EC9CE6-E33A-4866-9665-0506F15B57B2";
layerId = "B1BAF3FD-5601-4535-9914-3ED06279A78E";
name = "Regular Jun 4 13, 12:00";
paths = (
{
closed = 1;
nodes = (
"108.605 501.842 OFFCURVE",
"46 433.5 OFFCURVE",
"46 244.026 CURVE SMOOTH",
"46 55.895 OFFCURVE",
"108.605 -12 OFFCURVE",
"282.842 -12 CURVE SMOOTH",
"456.632 -12 OFFCURVE",
"519.237 55.895 OFFCURVE",
"519.237 244.026 CURVE SMOOTH",
"519.237 433.5 OFFCURVE",
"456.632 501.842 OFFCURVE",
"282.842 501.842 CURVE SMOOTH"
);
},
{
closed = 1;
nodes = (
"375.895 425.605 OFFCURVE",
"406.553 385.711 OFFCURVE",
"406.553 244.026 CURVE SMOOTH",
"406.553 103.684 OFFCURVE",
"375.895 64.237 OFFCURVE",
"282.842 64.237 CURVE SMOOTH",
"189.342 64.237 OFFCURVE",
"158.684 103.684 OFFCURVE",
"158.684 244.026 CURVE SMOOTH",
"158.684 385.711 OFFCURVE",
"189.342 425.605 OFFCURVE",
"282.842 425.605 CURVE SMOOTH"
);
}
);
width = 565;
}
);
leftKerningGroup = c;
rightKerningGroup = o;
unicode = 006F;
},
{
glyphname = oslash;
lastChange = "2016-12-09 13:27:44 +0000";
layers = (
{
anchors = (
{
name = bottom;
position = "{243, -12}";
},
{
name = top;
position = "{315, 558}";
}
);
components = (
{
name = o;
}
);
layerId = "E21536AE-9819-4FE7-8A20-8865FE3C0515";
paths = (
{
closed = 1;
nodes = (
"86 -52 LINE",
"104 -61 LINE",
"463 530 LINE",
"445 539 LINE"
);
}
);
width = 557;
},
{
anchors = (
{
name = bottom;
position = "{239, -13}";
},
{
name = top;
position = "{319, 553}";
}
);
components = (
{
name = o;
}
);
layerId = "77EC9CE6-E33A-4866-9665-0506F15B57B2";
paths = (
{
closed = 1;
nodes = (
"72 -54 LINE",
"117 -80 LINE",
"496 545 LINE",
"451 572 LINE"
);
}
);
width = 567;
},
{
anchors = (
{
name = top;
position = "{319, 553}";
}
);
associatedMasterId = "77EC9CE6-E33A-4866-9665-0506F15B57B2";
components = (
{
name = o;
}
);
layerId = "93FBAA00-B587-4372-86B8-B4D7179118D4";
name = "Regular Italic [144]";
paths = (
{
closed = 1;
nodes = (
"132 75 LINE",
"47 -62 LINE",
"119 -99 LINE",
"203 36 LINE"
);
},
{
closed = 1;
nodes = (
"436 418 LINE",
"516 546 LINE",
"444 584 LINE",
"365 457 LINE"
);
}
);
width = 567;
},
{
anchors = (
{
name = bottom;
position = "{268, -12}";
},
{
name = top;
position = "{346, 547}";
}
);
components = (
{
name = o;
}
);
layerId = "924B7471-43FB-4CAD-AF7E-45215B64D997";
paths = (
{
closed = 1;
nodes = (
"84 -71 LINE",
"131 -93 LINE",
"533 575 LINE",
"486 597 LINE"
);
}
);
width = 615;
},
{
anchors = (
{
name = top;
position = "{346, 547}";
}
);
associatedMasterId = "924B7471-43FB-4CAD-AF7E-45215B64D997";
components = (
{
name = o;
}
);
layerId = "BCA1E54A-21EF-4F8D-B6C4-B2F5B49106D2";
name = "Bold Italic [144]";
paths = (
{
closed = 1;
nodes = (
"134 102 LINE",
"49 -35 LINE",
"179 -106 LINE",
"263 29 LINE"
);
},
{
closed = 1;
nodes = (
"495 411 LINE",
"575 539 LINE",
"445 611 LINE",
"366 484 LINE"
);
}
);
width = 615;
}
);
leftKerningGroup = c;
rightKerningGroup = o;
unicode = 00F8;
},
